{
.appVersion = "1032";
classes = (
{
code = "zero one two three four five six seven eight nine";
name = all_figures;
},
{
code = "slash fraction";
name = slash;
},
{
code = "A B C D E F G H I J K L M N O P Q S T V W X Y Z";
name = somecaps;
},
{
code = "a b c d e f g h i j k l m n o p q r s t u v w x y z fi fl germandbls";
name = all_lowercase;
}
);
copyright = "Copyright 2012 The Sacramento Project Authors (https://github.com/googlefonts/SacramentoFont), with Reserved Font Name \"Sacramento\"";
customParameters = (
{
name = licenseURL;
value = "http://scripts.sil.org/OFL";
},
{
name = trademark;
value = "Sacramento is a trademark of Astigmatic.";
},
{
name = license;
value = "This Font Software is licensed under the SIL Open Font License,\012Version 1.1. This license is available with a FAQ at:\012http://scripts.sil.org/OFL";
},
{
name = panose;
value = (
2,
0,
5,
7,
0,
0,
0,
2,
0,
0
);
},
{
name = openTypeOS2VendorID;
value = AOEF;
},
{
name = glyphOrder;
value = (
A,
B,
C,
D,
E,
F,
G,
H,
I,
J,
K,
L,
M,
N,
O,
P,
Q,
R,
S,
T,
U,
V,
W,
X,
Y,
Z,
a,
b,
c,
d,
e,
f,
g,
h,
i,
j,
k,
l,
m,
n,
o,
p,
q,
r,
s,
t,
u,
v,
w,
x,
y,
z,
fi,
fl,
germandbls,
Agrave,
agrave,
Aacute,
aacute,
Acircumflex,
acircumflex,
Atilde,
atilde,
Adieresis,
adieresis,
Aring,
aring,
AE,
ae,
AEacute,
aeacute,
Amacron,
amacron,
Abreve,
abreve,
Aogonek,
aogonek,
Ccedilla,
ccedilla,
Cacute,
cacute,
Ccircumflex,
ccircumflex,
Cdotaccent,
cdotaccent,
Ccaron,
ccaron,
Dcaron,
dcaron,
Eth,
eth,
Dcroat,
dcroat,
Egrave,
egrave,
Eacute,
eacute,
Ecircumflex,
ecircumflex,
Edieresis,
edieresis,
Emacron,
emacron,
Ebreve,
ebreve,
Edotaccent,
edotaccent,
Eogonek,
eogonek,
Ecaron,
ecaron,
Gcircumflex,
gcircumflex,
Gbreve,
gbreve,
Gdotaccent,
gdotaccent,
Gcommaaccent,
gcommaaccent,
Hcircumflex,
hcircumflex,
Hbar,
hbar,
Igrave,
igrave,
Iacute,
iacute,
Icircumflex,
icircumflex,
Idieresis,
idieresis,
Itilde,
itilde,
Imacron,
imacron,
Ibreve,
ibreve,
Iogonek,
iogonek,
Idotaccent,
dotlessi,
IJ,
ij,
Jcircumflex,
jcircumflex,

glyphs = (
{
glyphname = A;
lastChange = "2017-06-09 11:17:31 +0000";
layers = (
{
anchors = (
{
name = top;
position = "{930, 766}";
}
);
layerId = UUID0;
paths = (
{
closed = 1;
nodes = (
"933 46 OFFCURVE",
"921 140 OFFCURVE",
"917 247 CURVE",
"999 257 OFFCURVE",
"1037 261 OFFCURVE",
"1060 264 CURVE SMOOTH",
"1070 265 OFFCURVE",
"1077 272 OFFCURVE",
"1077 282 CURVE SMOOTH",
"1077 293 OFFCURVE",
"1066 300 OFFCURVE",
"1058 300 CURVE SMOOTH",
"1056 300 OFFCURVE",
"1013 296 OFFCURVE",
"916 284 CURVE",
"915 310 OFFCURVE",
"915 336 OFFCURVE",
"915 363 CURVE SMOOTH",
"915 506 OFFCURVE",
"929 654 OFFCURVE",
"933 679 CURVE",
"939 686 OFFCURVE",
"947 697 OFFCURVE",
"947 707 CURVE SMOOTH",
"947 719 OFFCURVE",
"936 728 OFFCURVE",
"926 728 CURVE SMOOTH",
"909 728 OFFCURVE",
"902 710 OFFCURVE",
"898 693 CURVE",
"859 629 OFFCURVE",
"749 452 OFFCURVE",
"665 333 CURVE SMOOTH",
"647 309 OFFCURVE",
"623 277 OFFCURVE",
"592 243 CURVE",
"527 237 OFFCURVE",
"469 233 OFFCURVE",
"416 233 CURVE SMOOTH",
"232 233 OFFCURVE",
"127 273 OFFCURVE",
"127 347 CURVE SMOOTH",
"127 391 OFFCURVE",
"171 422 OFFCURVE",
"173 424 CURVE SMOOTH",
"179 427 OFFCURVE",
"181 433 OFFCURVE",
"181 439 CURVE SMOOTH",
"181 450 OFFCURVE",
"172 457 OFFCURVE",
"163 457 CURVE SMOOTH",
"140 457 OFFCURVE",
"91 398 OFFCURVE",
"91 347 CURVE SMOOTH",
"91 232 OFFCURVE",
"243 197 OFFCURVE",
"417 197 CURVE SMOOTH",
"461 197 OFFCURVE",
"508 199 OFFCURVE",
"554 203 CURVE",
"459 109 OFFCURVE",
"322 13 OFFCURVE",
"158 13 CURVE SMOOTH",
"38 13 OFFCURVE",
"-14 66 OFFCURVE",
"-17 69 CURVE SMOOTH",
"-21 73 OFFCURVE",
"-25 75 OFFCURVE",
"-31 75 CURVE SMOOTH",
"-41 75 OFFCURVE",
"-49 66 OFFCURVE",
"-49 56 CURVE SMOOTH",
"-49 52 OFFCURVE",
"-47 47 OFFCURVE",
"-44 43 CURVE SMOOTH",
"-41 41 OFFCURVE",
"21 -24 OFFCURVE",
"159 -24 CURVE SMOOTH",
"312 -24 OFFCURVE",
"472 57 OFFCURVE",
"610 208 CURVE",
"639 210 OFFCURVE",
"667 214 OFFCURVE",
"694 218 CURVE SMOOTH",
"771 228 OFFCURVE",
"832 236 OFFCURVE",
"880 242 CURVE",
"885 133 OFFCURVE",
"897 34 OFFCURVE",
"922 -14 CURVE SMOOTH",
"925 -21 OFFCURVE",
"932 -24 OFFCURVE",
"938 -24 CURVE SMOOTH",
"949 -24 OFFCURVE",
"957 -16 OFFCURVE",
"957 -6 CURVE SMOOTH",
"957 -3 OFFCURVE",
"957 0 OFFCURVE",
"955 2 CURVE SMOOTH"
);
},
{
closed = 1;
nodes = (
"674 252 OFFCURVE",
"660 250 OFFCURVE",
"646 249 CURVE",
"662 269 OFFCURVE",
"679 290 OFFCURVE",
"694 312 CURVE SMOOTH",
"757 400 OFFCURVE",
"835 522 OFFCURVE",
"887 604 CURVE",
"881 543 OFFCURVE",
"878 455 OFFCURVE",
"878 364 CURVE SMOOTH",
"878 335 OFFCURVE",
"878 307 OFFCURVE",
"879 279 CURVE",
"828 273 OFFCURVE",
"766 265 OFFCURVE",
"689 254 CURVE SMOOTH"
);
}
);
width = 1057;
}
);
leftKerningGroup = A;
rightKerningGroup = A;
unicode = 0041;
},
{
glyphname = B;
lastChange = "2017-06-09 11:17:31 +0000";
layers = (
{
layerId = UUID0;
paths = (
{
closed = 1;
nodes = (
"998 368 OFFCURVE",
"1065 422 OFFCURVE",
"1065 517 CURVE SMOOTH",
"1065 603 OFFCURVE",
"1000 664 OFFCURVE",
"881 692 CURVE",
"897 708 OFFCURVE",
"907 713 OFFCURVE",
"907 727 CURVE SMOOTH",
"907 736 OFFCURVE",
"898 742 OFFCURVE",
"889 742 CURVE SMOOTH",
"886 742 OFFCURVE",
"883 741 OFFCURVE",
"879 739 CURVE SMOOTH",
"877 738 OFFCURVE",
"862 727 OFFCURVE",
"838 701 CURVE",
"798 708 OFFCURVE",
"754 711 OFFCURVE",
"705 711 CURVE SMOOTH",
"525 711 OFFCURVE",
"262 634 OFFCURVE",
"110 419 CURVE SMOOTH",
"57 343 OFFCURVE",
"29 268 OFFCURVE",
"29 199 CURVE SMOOTH",
"29 66 OFFCURVE",
"133 -19 OFFCURVE",
"280 -19 CURVE SMOOTH",
"423 -19 OFFCURVE",
"597 83 OFFCURVE",
"691 308 CURVE",
"691 308 OFFCURVE",
"703 308 OFFCURVE",
"709 308 CURVE SMOOTH",
"745 308 OFFCURVE",
"789 311 OFFCURVE",
"833 318 CURVE",
"970 300 OFFCURVE",
"1061 242 OFFCURVE",
"1061 163 CURVE SMOOTH",
"1061 91 OFFCURVE",
"985 17 OFFCURVE",
"810 17 CURVE SMOOTH",
"746 17 OFFCURVE",
"681 30 OFFCURVE",
"621 55 CURVE SMOOTH",
"618 56 OFFCURVE",
"616 57 OFFCURVE",
"613 57 CURVE SMOOTH",
"604 57 OFFCURVE",
"595 49 OFFCURVE",
"595 38 CURVE SMOOTH",
"595 31 OFFCURVE",
"599 24 OFFCURVE",
"606 21 CURVE SMOOTH",
"676 -8 OFFCURVE",
"747 -21 OFFCURVE",
"811 -21 CURVE SMOOTH",
"931 -21 OFFCURVE",
"1098 26 OFFCURVE",
"1098 163 CURVE SMOOTH",
"1098 200 OFFCURVE",
"1084 292 OFFCURVE",
"917 339 CURVE"
);
},
{
closed = 1;
nodes = (
"799 359 OFFCURVE",
"769 361 OFFCURVE",
"744 361 CURVE SMOOTH",
"736 361 OFFCURVE",
"724 361 OFFCURVE",
"711 360 CURVE",
"737 461 OFFCURVE",
"788 580 OFFCURVE",
"853 661 CURVE",
"965 638 OFFCURVE",
"1029 590 OFFCURVE",
"1029 518 CURVE SMOOTH",
"1029 411 OFFCURVE",
"919 372 OFFCURVE",
"833 355 CURVE SMOOTH"
);
},
{
closed = 1;
nodes = (
"742 571 OFFCURVE",
"707 464 OFFCURVE",
"671 357 CURVE",
"640 353 OFFCURVE",
"625 348 OFFCURVE",
"625 332 CURVE SMOOTH",
"625 317 OFFCURVE",
"641 311 OFFCURVE",
"652 311 CURVE",
"564 109 OFFCURVE",
"408 19 OFFCURVE",
"280 19 CURVE SMOOTH",
"152 19 OFFCURVE",
"66 86 OFFCURVE",
"66 200 CURVE SMOOTH",
"66 260 OFFCURVE",
"91 329 OFFCURVE",
"140 397 CURVE SMOOTH",
"284 602 OFFCURVE",
"534 674 OFFCURVE",
"705 674 CURVE SMOOTH",
"743 674 OFFCURVE",
"779 672 OFFCURVE",
"812 667 CURVE"
);
}
);
width = 1152;
}
);
leftKerningGroup = B;
rightKerningGroup = B;
unicode = 0042;
},
{
glyphname = C;
lastChange = "2017-06-09 11:17:31 +0000";
layers = (
{
anchors = (
{
name = top;
position = "{478, 750}";
}
);
layerId = UUID0;
paths = (
{
closed = 1;
nodes = (
"819 184 OFFCURVE",
"820 188 OFFCURVE",
"820 191 CURVE SMOOTH",
"820 200 OFFCURVE",
"812 209 OFFCURVE",
"802 209 CURVE SMOOTH",
"795 209 OFFCURVE",
"789 206 OFFCURVE",
"786 200 CURVE SMOOTH",
"730 110 OFFCURVE",
"590 14 OFFCURVE",
"434 14 CURVE SMOOTH",
"258 14 OFFCURVE",
"66 104 OFFCURVE",
"66 316 CURVE SMOOTH",
"66 551 OFFCURVE",
"303 672 OFFCURVE",
"470 672 CURVE SMOOTH",
"618 672 OFFCURVE",
"740 604 OFFCURVE",
"740 502 CURVE SMOOTH",
"740 410 OFFCURVE",
"643 326 OFFCURVE",
"521 326 CURVE SMOOTH",
"457 326 OFFCURVE",
"383 352 OFFCURVE",
"383 426 CURVE SMOOTH",
"383 474 OFFCURVE",
"419 505 OFFCURVE",
"421 507 CURVE SMOOTH",
"425 511 OFFCURVE",
"427 516 OFFCURVE",
"427 521 CURVE SMOOTH",
"427 532 OFFCURVE",
"419 539 OFFCURVE",
"409 539 CURVE SMOOTH",
"405 539 OFFCURVE",
"400 538 OFFCURVE",
"397 535 CURVE SMOOTH",
"395 533 OFFCURVE",
"347 491 OFFCURVE",
"347 426 CURVE SMOOTH",
"347 350 OFFCURVE",
"407 290 OFFCURVE",
"521 290 CURVE SMOOTH",
"662 290 OFFCURVE",
"777 388 OFFCURVE",
"777 503 CURVE SMOOTH",
"777 626 OFFCURVE",
"639 709 OFFCURVE",
"472 709 CURVE SMOOTH",
"244 709 OFFCURVE",
"29 544 OFFCURVE",
"29 316 CURVE SMOOTH",
"29 82 OFFCURVE",
"238 -22 OFFCURVE",
"435 -22 CURVE SMOOTH",
"603 -22 OFFCURVE",
"756 82 OFFCURVE",
"817 181 CURVE SMOOTH"
);
}
);
width = 849;
}
);
rightKerningGroup = C;
unicode = 0043;
},
{
glyphname = D;
lastChange = "2017-06-09 11:17:31 +0000";
layers = (
{
anchors = (
{
name = top;
position = "{502, 757}";
}
);
layerId = UUID0;
paths = (
{
closed = 1;
nodes = (
"225 718 OFFCURVE",
"68 627 OFFCURVE",
"68 480 CURVE SMOOTH",
"68 358 OFFCURVE",
"176 304 OFFCURVE",
"215 304 CURVE SMOOTH",
"224 304 OFFCURVE",
"233 310 OFFCURVE",
"233 321 CURVE SMOOTH",
"233 329 OFFCURVE",
"228 337 OFFCURVE",
"220 339 CURVE SMOOTH",
"214 340 OFFCURVE",
"104 371 OFFCURVE",
"104 480 CURVE SMOOTH",
"104 608 OFFCURVE",
"251 682 OFFCURVE",
"465 682 CURVE SMOOTH",
"704 682 OFFCURVE",
"951 543 OFFCURVE",
"951 308 CURVE SMOOTH",
"951 154 OFFCURVE",
"841 23 OFFCURVE",
"656 23 CURVE SMOOTH",
"571 23 OFFCURVE",
"478 49 OFFCURVE",
"396 99 CURVE SMOOTH",
"395 99 OFFCURVE",
"395 100 OFFCURVE",
"394 100 CURVE",
"446 168 OFFCURVE",
"461 263 OFFCURVE",
"474 342 CURVE SMOOTH",
"490 437 OFFCURVE",
"504 520 OFFCURVE",
"573 560 CURVE SMOOTH",
"579 563 OFFCURVE",
"582 569 OFFCURVE",
"582 576 CURVE SMOOTH",
"582 587 OFFCURVE",
"572 594 OFFCURVE",
"563 594 CURVE SMOOTH",
"560 594 OFFCURVE",
"557 593 OFFCURVE",
"554 592 CURVE SMOOTH",
"423 514 OFFCURVE",
"457 330 OFFCURVE",
"396 179 CURVE SMOOTH",
"388 157 OFFCURVE",
"376 137 OFFCURVE",
"361 119 CURVE",
"284 160 OFFCURVE",
"216 181 OFFCURVE",
"160 181 CURVE SMOOTH",
"83 181 OFFCURVE",
"29 139 OFFCURVE",
"29 89 CURVE SMOOTH",
"29 30 OFFCURVE",
"92 -8 OFFCURVE",
"173 -8 CURVE SMOOTH",
"247 -8 OFFCURVE",
"317 21 OFFCURVE",
"369 72 CURVE",
"456 14 OFFCURVE",
"564 -13 OFFCURVE",
"656 -13 CURVE SMOOTH",
"852 -13 OFFCURVE",
"988 124 OFFCURVE",
"988 309 CURVE SMOOTH",
"988 586 OFFCURVE",
"697 718 OFFCURVE",
"457 718 CURVE SMOOTH"
);
},
{
closed = 1;
nodes = (
"292 52 OFFCURVE",
"233 29 OFFCURVE",
"173 29 CURVE SMOOTH",
"101 29 OFFCURVE",
"66 60 OFFCURVE",
"66 88 CURVE SMOOTH",
"66 119 OFFCURVE",
"107 145 OFFCURVE",
"161 145 CURVE SMOOTH",
"209 145 OFFCURVE",
"268 126 OFFCURVE",
"335 91 CURVE"
);
}
);
width = 1022;
}
);
rightKerningGroup = D;
unicode = 0044;
},
{
glyphname = E;
lastChange = "2017-06-09 11:17:31 +0000";
layers = (
{
anchors = (
{
name = top;
position = "{394, 762}";
}
);
layerId = UUID0;
paths = (
{
closed = 1;
nodes = (
"799 209 OFFCURVE",
"800 211 OFFCURVE",
"800 213 CURVE SMOOTH",
"800 223 OFFCURVE",
"792 231 OFFCURVE",
"781 231 CURVE SMOOTH",
"773 231 OFFCURVE",
"767 227 OFFCURVE",
"764 219 CURVE SMOOTH",
"764 218 OFFCURVE",
"706 57 OFFCURVE",
"458 18 CURVE SMOOTH",
"432 13 OFFCURVE",
"402 11 OFFCURVE",
"371 11 CURVE SMOOTH",
"227 11 OFFCURVE",
"66 64 OFFCURVE",
"66 205 CURVE SMOOTH",
"66 291 OFFCURVE",
"121 351 OFFCURVE",
"224 381 CURVE",
"270 354 OFFCURVE",
"337 338 OFFCURVE",
"399 338 CURVE SMOOTH",
"457 338 OFFCURVE",
"498 358 OFFCURVE",
"498 391 CURVE SMOOTH",
"498 424 OFFCURVE",
"457 441 OFFCURVE",
"399 441 CURVE SMOOTH",
"368 440 OFFCURVE",
"299 438 OFFCURVE",
"229 420 CURVE",
"190 448 OFFCURVE",
"168 488 OFFCURVE",
"168 530 CURVE SMOOTH",
"168 603 OFFCURVE",
"238 687 OFFCURVE",
"389 687 CURVE SMOOTH",
"587 687 OFFCURVE",
"625 568 OFFCURVE",
"625 564 CURVE SMOOTH",
"628 556 OFFCURVE",
"635 550 OFFCURVE",
"643 550 CURVE SMOOTH",
"653 550 OFFCURVE",
"661 559 OFFCURVE",
"661 568 CURVE SMOOTH",
"661 570 OFFCURVE",
"661 572 OFFCURVE",
"661 574 CURVE SMOOTH",
"659 579 OFFCURVE",
"617 723 OFFCURVE",
"389 723 CURVE SMOOTH",
"240 723 OFFCURVE",
"132 642 OFFCURVE",
"132 529 CURVE SMOOTH",
"132 484 OFFCURVE",
"150 441 OFFCURVE",
"187 407 CURVE",
"83 369 OFFCURVE",
"29 298 OFFCURVE",
"29 203 CURVE SMOOTH",
"29 41 OFFCURVE",
"206 -26 OFFCURVE",
"370 -26 CURVE SMOOTH",
"403 -26 OFFCURVE",
"435 -24 OFFCURVE",
"464 -19 CURVE SMOOTH",
"733 23 OFFCURVE",
"796 200 OFFCURVE",
"799 208 CURVE SMOOTH"
);
},
{
closed = 1;
nodes = (
"460 383 OFFCURVE",
"441 375 OFFCURVE",
"400 375 CURVE SMOOTH",
"355 375 OFFCURVE",
"309 383 OFFCURVE",
"275 396 CURVE",
"320 404 OFFCURVE",
"351 405 OFFCURVE",
"389 405 CURVE SMOOTH",
"424 405 OFFCURVE",
"460 401 OFFCURVE",
"460 391 CURVE SMOOTH"
);
}
);
width = 829;
}
);
rightKerningGroup = E;
unicode = 0045;
},
{
glyphname = F;
lastChange = "2017-06-09 11:17:31 +0000";
layers = (
{
layerId = UUID0;
paths = (
{
closed = 1;
nodes = (
"1023 723 OFFCURVE",
"915 680 OFFCURVE",
"879 578 CURVE",
"660 609 OFFCURVE",
"403 689 OFFCURVE",
"269 689 CURVE SMOOTH",
"117 689 OFFCURVE",
"0 621 OFFCURVE",
"0 504 CURVE SMOOTH",
"0 440 OFFCURVE",
"43 395 OFFCURVE",
"75 373 CURVE SMOOTH",
"78 371 OFFCURVE",
"81 370 OFFCURVE",
"85 370 CURVE SMOOTH",
"94 370 OFFCURVE",
"103 377 OFFCURVE",
"103 388 CURVE SMOOTH",
"103 394 OFFCURVE",
"101 400 OFFCURVE",
"95 404 CURVE SMOOTH",
"92 405 OFFCURVE",
"37 443 OFFCURVE",
"37 504 CURVE SMOOTH",
"37 598 OFFCURVE",
"137 652 OFFCURVE",
"269 652 CURVE SMOOTH",
"409 652 OFFCURVE",
"653 574 OFFCURVE",
"866 543 CURVE",
"852 493 OFFCURVE",
"844 433 OFFCURVE",
"844 361 CURVE",
"706 356 OFFCURVE",
"604 345 OFFCURVE",
"603 345 CURVE SMOOTH",
"593 343 OFFCURVE",
"586 336 OFFCURVE",
"586 327 CURVE SMOOTH",
"586 314 OFFCURVE",
"596 308 OFFCURVE",
"607 308 CURVE SMOOTH",
"619 308 OFFCURVE",
"712 319 OFFCURVE",
"844 324 CURVE",
"844 316 OFFCURVE",
"844 308 OFFCURVE",
"844 300 CURVE SMOOTH",
"844 116 OFFCURVE",
"737 19 OFFCURVE",
"534 19 CURVE SMOOTH",
"312 19 OFFCURVE",
"247 146 OFFCURVE",
"230 202 CURVE SMOOTH",
"228 209 OFFCURVE",
"221 214 OFFCURVE",
"213 214 CURVE SMOOTH",
"202 214 OFFCURVE",
"194 206 OFFCURVE",
"194 196 CURVE SMOOTH",
"194 194 OFFCURVE",
"194 192 OFFCURVE",
"195 190 CURVE SMOOTH",
"215 127 OFFCURVE",
"289 -19 OFFCURVE",
"534 -19 CURVE SMOOTH",
"756 -19 OFFCURVE",
"881 96 OFFCURVE",
"881 299 CURVE SMOOTH",
"881 308 OFFCURVE",
"880 317 OFFCURVE",
"880 326 CURVE",
"906 326 OFFCURVE",
"932 327 OFFCURVE",
"959 327 CURVE SMOOTH",
"995 327 OFFCURVE",
"1032 325 OFFCURVE",
"1069 325 CURVE SMOOTH",
"1079 325 OFFCURVE",
"1087 332 OFFCURVE",
"1087 342 CURVE SMOOTH",
"1087 352 OFFCURVE",
"1080 361 OFFCURVE",
"1069 361 CURVE SMOOTH",
"1032 363 OFFCURVE",
"994 364 OFFCURVE",
"958 364 CURVE SMOOTH",
"931 364 OFFCURVE",
"905 363 OFFCURVE",
"880 363 CURVE",
"881 434 OFFCURVE",
"888 492 OFFCURVE",
"903 538 CURVE",
"944 533 OFFCURVE",
"982 531 OFFCURVE",
"1018 531 CURVE SMOOTH",
"1142 531 OFFCURVE",
"1229 578 OFFCURVE",
"1229 648 CURVE SMOOTH",
"1229 706 OFFCURVE",
"1164 723 OFFCURVE",
"1119 723 CURVE SMOOTH"
);
},
{
closed = 1;
nodes = (
"1191 601 OFFCURVE",
"1117 567 OFFCURVE",
"1017 567 CURVE SMOOTH",
"987 567 OFFCURVE",
"953 569 OFFCURVE",
"917 573 CURVE",
"959 664 OFFCURVE",
"1056 686 OFFCURVE",
"1119 686 CURVE SMOOTH",
"1146 686 OFFCURVE",
"1191 680 OFFCURVE",
"1191 649 CURVE SMOOTH"
);
}
);
width = 1082;
}
);
leftKerningGroup = F;
rightKerningGroup = F;
unicode = 0046;
},
{
glyphname = G;
lastChange = "2017-06-09 11:17:31 +0000";
layers = (
{
anchors = (
{
name = top;
position = "{552, 762}";
}
);
layerId = UUID0;
paths = (
{
closed = 1;
nodes = (
"847 471 OFFCURVE",
"846 519 OFFCURVE",
"819 573 CURVE SMOOTH",
"789 635 OFFCURVE",
"715 722 OFFCURVE",
"546 722 CURVE SMOOTH",
"286 722 OFFCURVE",
"39 479 OFFCURVE",
"39 229 CURVE SMOOTH",
"39 71 OFFCURVE",
"132 -15 OFFCURVE",
"272 -15 CURVE SMOOTH",
"428 -15 OFFCURVE",
"590 82 OFFCURVE",
"704 263 CURVE",
"705 204 OFFCURVE",
"711 140 OFFCURVE",
"719 75 CURVE",
"628 28 OFFCURVE",
"464 -111 OFFCURVE",
"464 -258 CURVE SMOOTH",
"464 -327 OFFCURVE",
"514 -376 OFFCURVE",
"582 -376 CURVE SMOOTH",
"719 -376 OFFCURVE",
"764 -226 OFFCURVE",
"764 -53 CURVE SMOOTH",
"764 -17 OFFCURVE",
"762 19 OFFCURVE",
"759 54 CURVE",
"793 72 OFFCURVE",
"817 80 OFFCURVE",
"818 80 CURVE SMOOTH",
"826 83 OFFCURVE",
"831 89 OFFCURVE",
"831 97 CURVE SMOOTH",
"831 108 OFFCURVE",
"822 116 OFFCURVE",
"812 116 CURVE SMOOTH",
"810 116 OFFCURVE",
"809 120 OFFCURVE",
"754 93 CURVE",
"745 162 OFFCURVE",
"741 224 OFFCURVE",
"741 275 CURVE SMOOTH",
"741 293 OFFCURVE",
"741 310 OFFCURVE",
"742 325 CURVE",
"765 368 OFFCURVE",
"776 402 OFFCURVE",
"776 423 CURVE SMOOTH",
"776 443 OFFCURVE",
"765 457 OFFCURVE",
"750 457 CURVE SMOOTH",
"723 457 OFFCURVE",
"711 413 OFFCURVE",
"706 334 CURVE",
"612 166 OFFCURVE",
"468 21 OFFCURVE",
"274 21 CURVE SMOOTH",
"162 21 OFFCURVE",
"76 81 OFFCURVE",
"76 228 CURVE SMOOTH",
"76 473 OFFCURVE",
"321 685 OFFCURVE",
"546 685 CURVE SMOOTH",
"801 685 OFFCURVE",
"809 476 OFFCURVE",
"810 468 CURVE SMOOTH",
"812 457 OFFCURVE",
"819 450 OFFCURVE",
"829 450 CURVE SMOOTH",
"839 450 OFFCURVE",
"847 459 OFFCURVE",
"847 469 CURVE SMOOTH"
);
},
{
closed = 1;
nodes = (
"726 4 OFFCURVE",
"728 -25 OFFCURVE",
"728 -53 CURVE SMOOTH",
"728 -240 OFFCURVE",
"673 -339 OFFCURVE",
"582 -339 CURVE SMOOTH",
"535 -339 OFFCURVE",
"501 -307 OFFCURVE",
"501 -258 CURVE SMOOTH",
"501 -138 OFFCURVE",
"625 -21 OFFCURVE",
"724 35 CURVE"
);
}
);
width = 867;
}
);
leftKerningGroup = G;
rightKerningGroup = G;
unicode = 0047;
},
{
glyphname = H;
lastChange = "2017-06-09 11:17:31 +0000";
layers = (
{
anchors = (
{
name = top;
position = "{914, 770}";
}
);
layerId = UUID0;
paths = (
{
closed = 1;
nodes = (
"742 729 OFFCURVE",
"725 744 OFFCURVE",
"704 744 CURVE SMOOTH",
"671 744 OFFCURVE",
"630 708 OFFCURVE",
"607 626 CURVE",
"591 621 OFFCURVE",
"572 620 OFFCURVE",
"549 620 CURVE SMOOTH",
"432 620 OFFCURVE",
"324 665 OFFCURVE",
"210 665 CURVE SMOOTH",
"111 665 OFFCURVE",
"0 616 OFFCURVE",
"0 501 CURVE SMOOTH",
"0 442 OFFCURVE",
"40 402 OFFCURVE",
"69 384 CURVE SMOOTH",
"72 382 OFFCURVE",
"77 380 OFFCURVE",
"82 380 CURVE SMOOTH",
"91 380 OFFCURVE",
"99 388 OFFCURVE",
"99 398 CURVE SMOOTH",
"99 405 OFFCURVE",
"95 411 OFFCURVE",
"90 415 CURVE SMOOTH",
"83 419 OFFCURVE",
"37 446 OFFCURVE",
"37 501 CURVE SMOOTH",
"37 587 OFFCURVE",
"113 627 OFFCURVE",
"210 627 CURVE SMOOTH",
"327 627 OFFCURVE",
"434 584 OFFCURVE",
"548 584 CURVE SMOOTH",
"566 584 OFFCURVE",
"586 587 OFFCURVE",
"601 590 CURVE",
"596 564 OFFCURVE",
"592 532 OFFCURVE",
"590 500 CURVE SMOOTH",
"588 448 OFFCURVE",
"585 396 OFFCURVE",
"580 346 CURVE",
"514 343 OFFCURVE",
"472 341 OFFCURVE",
"471 341 CURVE SMOOTH",
"460 340 OFFCURVE",
"454 332 OFFCURVE",
"454 321 CURVE SMOOTH",
"454 311 OFFCURVE",
"463 304 OFFCURVE",
"473 304 CURVE SMOOTH",
"474 304 OFFCURVE",
"514 306 OFFCURVE",
"576 309 CURVE",
"554 147 OFFCURVE",
"494 18 OFFCURVE",
"302 18 CURVE SMOOTH",
"200 18 OFFCURVE",
"107 61 OFFCURVE",
"67 125 CURVE SMOOTH",
"63 130 OFFCURVE",
"57 133 OFFCURVE",
"51 133 CURVE SMOOTH",
"40 133 OFFCURVE",
"33 124 OFFCURVE",
"33 114 CURVE SMOOTH",
"33 111 OFFCURVE",
"34 107 OFFCURVE",
"36 104 CURVE SMOOTH",
"83 31 OFFCURVE",
"187 -20 OFFCURVE",
"302 -20 CURVE SMOOTH",
"520 -20 OFFCURVE",
"590 130 OFFCURVE",
"614 311 CURVE",
"720 315 OFFCURVE",
"870 321 OFFCURVE",
"1015 321 CURVE",
"1015 289 LINE SMOOTH",
"1015 63 OFFCURVE",
"1076 -23 OFFCURVE",
"1078 -27 CURVE SMOOTH",
"1082 -32 OFFCURVE",
"1087 -35 OFFCURVE",
"1093 -35 CURVE SMOOTH",
"1103 -35 OFFCURVE",
"1111 -26 OFFCURVE",
"1111 -16 CURVE SMOOTH",
"1111 -12 OFFCURVE",
"1110 -9 OFFCURVE",
"1108 -5 CURVE SMOOTH",
"1107 -4 OFFCURVE",
"1052 75 OFFCURVE",
"1052 289 CURVE SMOOTH",
"1052 300 OFFCURVE",
"1052 311 OFFCURVE",
"1052 321 CURVE",
"1124 320 OFFCURVE",
"1152 318 OFFCURVE",
"1178 318 CURVE SMOOTH",
"1187 318 OFFCURVE",
"1196 326 OFFCURVE",
"1196 336 CURVE SMOOTH",
"1196 346 OFFCURVE",
"1189 355 OFFCURVE",
"1178 355 CURVE",
"1138 356 OFFCURVE",
"1096 357 OFFCURVE",
"1053 357 CURVE",
"1066 625 OFFCURVE",
"1154 646 OFFCURVE",
"1183 646 CURVE SMOOTH",
"1206 646 OFFCURVE",
"1206 638 OFFCURVE",
"1216 638 CURVE SMOOTH",
"1222 638 OFFCURVE",
"1227 641 OFFCURVE",
"1230 647 CURVE SMOOTH",
"1232 650 OFFCURVE",
"1233 653 OFFCURVE",
"1233 656 CURVE SMOOTH",
"1233 679 OFFCURVE",
"1197 683 OFFCURVE",
"1182 683 CURVE SMOOTH",
"1087 683 OFFCURVE",
"1027 565 OFFCURVE",
"1016 357 CURVE",
"873 357 OFFCURVE",
"725 352 OFFCURVE",
"619 348 CURVE",
"624 397 OFFCURVE",
"626 448 OFFCURVE",
"627 498 CURVE SMOOTH",
"628 539 OFFCURVE",
"633 572 OFFCURVE",
"639 600 CURVE",
"688 619 OFFCURVE",
"742 663 OFFCURVE",
"742 708 CURVE SMOOTH"
);
},
{
closed = 1;
nodes = (
"714 709 OFFCURVE",
"689 659 OFFCURVE",
"647 639 CURVE",
"662 687 OFFCURVE",
"691 709 OFFCURVE",
"701 709 CURVE SMOOTH"
);
}
);
width = 1184;
}
);
leftKerningGroup = H;
rightKerningGroup = H;
unicode = 0048;
},
{
glyphname = I;
lastChange = "2017-06-09 11:17:31 +0000";
layers = (
{
anchors = (
{
name = top;
position = "{620, 796}";
}
);
layerId = UUID0;
paths = (
{
closed = 1;
nodes = (
"596 757 OFFCURVE",
"570 720 OFFCURVE",
"552 642 CURVE",
"488 588 OFFCURVE",
"292 560 OFFCURVE",
"292 440 CURVE SMOOTH",
"292 350 OFFCURVE",
"371 318 OFFCURVE",
"414 308 CURVE SMOOTH",
"416 308 OFFCURVE",
"421 307 OFFCURVE",
"422 307 CURVE SMOOTH",
"432 307 OFFCURVE",
"439 315 OFFCURVE",
"439 326 CURVE SMOOTH",
"439 333 OFFCURVE",
"436 339 OFFCURVE",
"425 342 CURVE SMOOTH",
"421 343 OFFCURVE",
"330 356 OFFCURVE",
"330 437 CURVE SMOOTH",
"330 525 OFFCURVE",
"466 556 OFFCURVE",
"544 598 CURVE",
"540 565 OFFCURVE",
"537 523 OFFCURVE",
"536 482 CURVE SMOOTH",
"534 222 OFFCURVE",
"503 1 OFFCURVE",
"255 1 CURVE SMOOTH",
"166 1 OFFCURVE",
"39 37 OFFCURVE",
"39 145 CURVE SMOOTH",
"39 226 OFFCURVE",
"114 286 OFFCURVE",
"203 286 CURVE SMOOTH",
"209 286 OFFCURVE",
"216 286 OFFCURVE",
"222 286 CURVE SMOOTH",
"232 286 OFFCURVE",
"241 293 OFFCURVE",
"241 304 CURVE SMOOTH",
"241 324 OFFCURVE",
"220 323 OFFCURVE",
"203 323 CURVE SMOOTH",
"94 323 OFFCURVE",
"2 246 OFFCURVE",
"2 145 CURVE SMOOTH",
"2 43 OFFCURVE",
"95 -34 OFFCURVE",
"250 -34 CURVE SMOOTH",
"532 -34 OFFCURVE",
"573 208 OFFCURVE",
"573 481 CURVE SMOOTH",
"573 540 OFFCURVE",
"579 587 OFFCURVE",
"586 623 CURVE",
"627 659 OFFCURVE",
"649 694 OFFCURVE",
"649 721 CURVE SMOOTH",
"649 741 OFFCURVE",
"636 757 OFFCURVE",
"620 757 CURVE SMOOTH"
);
}
);
width = 635;
}
);
leftKerningGroup = I;
rightKerningGroup = I;
unicode = 0049;
},
{
glyphname = J;
lastChange = "2017-06-09 11:17:31 +0000";
layers = (
{
anchors = (
{
name = top;
position = "{549, 824}";
}
);
layerId = UUID0;
paths = (
{
closed = 1;
nodes = (
"547 683 OFFCURVE",
"580 722 OFFCURVE",
"580 750 CURVE SMOOTH",
"580 775 OFFCURVE",
"562 783 OFFCURVE",
"550 783 CURVE SMOOTH",
"523 783 OFFCURVE",
"491 742 OFFCURVE",
"465 669 CURVE",
"420 634 OFFCURVE",
"333 605 OFFCURVE",
"247 580 CURVE SMOOTH",
"128 546 OFFCURVE",
"49 494 OFFCURVE",
"49 398 CURVE SMOOTH",
"49 289 OFFCURVE",
"146 238 OFFCURVE",
"234 238 CURVE SMOOTH",
"243 238 OFFCURVE",
"252 246 OFFCURVE",
"252 256 CURVE SMOOTH",
"252 267 OFFCURVE",
"244 275 OFFCURVE",
"234 275 CURVE SMOOTH",
"164 275 OFFCURVE",
"85 309 OFFCURVE",
"85 400 CURVE SMOOTH",
"85 478 OFFCURVE",
"154 517 OFFCURVE",
"257 547 CURVE SMOOTH",
"325 567 OFFCURVE",
"398 588 OFFCURVE",
"449 616 CURVE",
"435 563 OFFCURVE",
"426 500 OFFCURVE",
"426 434 CURVE SMOOTH",
"426 363 OFFCURVE",
"433 296 OFFCURVE",
"434 229 CURVE",
"310 176 OFFCURVE",
"70 34 OFFCURVE",
"70 -164 CURVE SMOOTH",
"70 -283 OFFCURVE",
"148 -342 OFFCURVE",
"225 -342 CURVE SMOOTH",
"407 -342 OFFCURVE",
"471 -132 OFFCURVE",
"471 165 CURVE SMOOTH",
"471 175 OFFCURVE",
"471 197 OFFCURVE",
"471 207 CURVE",
"495 217 OFFCURVE",
"508 222 OFFCURVE",
"508 236 CURVE SMOOTH",
"508 246 OFFCURVE",
"500 252 OFFCURVE",
"491 252 CURVE SMOOTH",
"485 252 OFFCURVE",
"478 250 OFFCURVE",
"470 246 CURVE",
"468 316 OFFCURVE",
"462 376 OFFCURVE",
"462 436 CURVE SMOOTH",
"462 520 OFFCURVE",
"478 592 OFFCURVE",
"496 646 CURVE"
);
},
{
closed = 1;
nodes = (
"434 -71 OFFCURVE",
"392 -307 OFFCURVE",
"230 -307 CURVE SMOOTH",
"167 -307 OFFCURVE",
"107 -258 OFFCURVE",
"107 -163 CURVE SMOOTH",
"107 5 OFFCURVE",
"321 143 OFFCURVE",
"434 191 CURVE"
);
}
);
width = 565;
}
);
leftKerningGroup = J;
rightKerningGroup = J;
unicode = 004A;
},
{
glyphname = K;
lastChange = "2017-06-09 11:17:31 +0000";
layers = (
{
layerId = UUID0;
paths = (
{
closed = 1;
nodes = (
"581 626 OFFCURVE",
"641 655 OFFCURVE",
"641 686 CURVE SMOOTH",
"641 706 OFFCURVE",
"624 720 OFFCURVE",
"603 720 CURVE SMOOTH",
"564 720 OFFCURVE",
"518 689 OFFCURVE",
"492 658 CURVE",
"429 653 OFFCURVE",
"336 675 OFFCURVE",
"251 675 CURVE SMOOTH",
"142 675 OFFCURVE",
"52 605 OFFCURVE",
"52 504 CURVE SMOOTH",
"52 426 OFFCURVE",
"118 389 OFFCURVE",
"154 381 CURVE SMOOTH",
"155 380 OFFCURVE",
"157 380 OFFCURVE",
"158 380 CURVE SMOOTH",
"167 380 OFFCURVE",
"177 388 OFFCURVE",
"177 398 CURVE SMOOTH",
"177 407 OFFCURVE",
"171 415 OFFCURVE",
"163 417 CURVE SMOOTH",
"159 417 OFFCURVE",
"89 436 OFFCURVE",
"89 504 CURVE SMOOTH",
"89 583 OFFCURVE",
"162 639 OFFCURVE",
"252 639 CURVE SMOOTH",
"322 639 OFFCURVE",
"402 619 OFFCURVE",
"468 621 CURVE",
"452 590 OFFCURVE",
"437 546 OFFCURVE",
"436 479 CURVE SMOOTH",
"435 437 OFFCURVE",
"434 396 OFFCURVE",
"432 358 CURVE",
"422 352 OFFCURVE",
"417 342 OFFCURVE",
"417 331 CURVE SMOOTH",
"417 322 OFFCURVE",
"420 313 OFFCURVE",
"428 307 CURVE",
"413 133 OFFCURVE",
"368 16 OFFCURVE",
"202 16 CURVE SMOOTH",
"136 16 OFFCURVE",
"73 38 OFFCURVE",
"31 76 CURVE SMOOTH",
"27 80 OFFCURVE",
"23 81 OFFCURVE",
"18 81 CURVE SMOOTH",
"8 81 OFFCURVE",
"0 72 OFFCURVE",
"0 62 CURVE SMOOTH",
"0 57 OFFCURVE",
"2 52 OFFCURVE",
"6 49 CURVE SMOOTH",
"55 5 OFFCURVE",
"128 -21 OFFCURVE",
"202 -21 CURVE SMOOTH",
"397 -21 OFFCURVE",
"447 122 OFFCURVE",
"463 293 CURVE",
"473 291 OFFCURVE",
"483 291 OFFCURVE",
"497 291 CURVE SMOOTH",
"523 291 OFFCURVE",
"557 293 OFFCURVE",
"592 302 CURVE",
"647 274 OFFCURVE",
"691 228 OFFCURVE",
"750 163 CURVE SMOOTH",
"842 64 OFFCURVE",
"908 -12 OFFCURVE",
"992 -12 CURVE SMOOTH",
"1045 -12 OFFCURVE",
"1098 17 OFFCURVE",
"1131 69 CURVE SMOOTH",
"1133 72 OFFCURVE",
"1134 75 OFFCURVE",
"1134 79 CURVE SMOOTH",
"1134 88 OFFCURVE",
"1126 97 OFFCURVE",
"1116 97 CURVE SMOOTH",
"1109 97 OFFCURVE",
"1104 94 OFFCURVE",
"1100 89 CURVE SMOOTH",
"1074 47 OFFCURVE",
"1033 25 OFFCURVE",
"991 25 CURVE SMOOTH",
"924 25 OFFCURVE",
"861 98 OFFCURVE",
"778 188 CURVE SMOOTH",
"728 242 OFFCURVE",
"687 287 OFFCURVE",
"641 316 CURVE",
"808 380 OFFCURVE",
"841 496 OFFCURVE",
"918 600 CURVE SMOOTH",
"962 660 OFFCURVE",
"1033 699 OFFCURVE",
"1072 700 CURVE SMOOTH",
"1082 701 OFFCURVE",
"1090 709 OFFCURVE",
"1090 719 CURVE SMOOTH",
"1090 730 OFFCURVE",
"1080 737 OFFCURVE",
"1070 737 CURVE SMOOTH",
"1014 737 OFFCURVE",
"936 686 OFFCURVE",
"889 623 CURVE SMOOTH",
"821 532 OFFCURVE",
"776 387 OFFCURVE",
"597 341 CURVE",
"553 361 OFFCURVE",
"509 371 OFFCURVE",
"476 371 CURVE SMOOTH",
"473 371 OFFCURVE",
"471 371 OFFCURVE",
"468 371 CURVE",
"470 406 OFFCURVE",
"471 441 OFFCURVE",
"472 476 CURVE SMOOTH",
"475 552 OFFCURVE",
"492 595 OFFCURVE",
"511 622 CURVE"
);
},
{
closed = 1;
nodes = (
"530 324 OFFCURVE",
"500 324 OFFCURVE",
"492 324 CURVE SMOOTH",
"480 324 OFFCURVE",
"471 324 OFFCURVE",
"466 326 CURVE",
"466 329 OFFCURVE",
"466 333 OFFCURVE",
"467 336 CURVE",
"470 336 OFFCURVE",
"473 337 OFFCURVE",
"476 337 CURVE SMOOTH",
"501 337 OFFCURVE",
"529 331 OFFCURVE",
"542 327 CURVE"
);
},
{
closed = 1;
nodes = (
"617 690 OFFCURVE",
"573 662 OFFCURVE",
"540 660 CURVE",
"559 675 OFFCURVE",
"591 690 OFFCURVE",
"604 690 CURVE SMOOTH"
);
}
);
width = 1154;
}
);
rightKerningGroup = K;
unicode = 004B;
},
{
glyphname = L;
lastChange = "2017-06-09 11:17:31 +0000";
layers = (
{
anchors = (
{
name = top;
position = "{583, 759}";
}
);
layerId = UUID0;
paths = (
{
closed = 1;
nodes = (
"881 83 OFFCURVE",
"882 86 OFFCURVE",
"882 89 CURVE SMOOTH",
"882 99 OFFCURVE",
"874 108 OFFCURVE",
"863 108 CURVE SMOOTH",
"857 108 OFFCURVE",
"851 104 OFFCURVE",
"848 99 CURVE SMOOTH",
"847 98 OFFCURVE",
"799 22 OFFCURVE",
"695 22 CURVE SMOOTH",
"577 22 OFFCURVE",
"487 94 OFFCURVE",
"387 146 CURVE",
"398 173 OFFCURVE",
"403 212 OFFCURVE",
"403 239 CURVE SMOOTH",
"403 286 OFFCURVE",
"399 325 OFFCURVE",
"399 405 CURVE SMOOTH",
"399 573 OFFCURVE",
"455 684 OFFCURVE",
"577 684 CURVE SMOOTH",
"642 684 OFFCURVE",
"700 642 OFFCURVE",
"700 577 CURVE SMOOTH",
"700 544 OFFCURVE",
"686 519 OFFCURVE",
"667 502 CURVE SMOOTH",
"663 498 OFFCURVE",
"658 493 OFFCURVE",
"658 485 CURVE SMOOTH",
"658 474 OFFCURVE",
"667 469 OFFCURVE",
"676 469 CURVE SMOOTH",
"708 469 OFFCURVE",
"737 530 OFFCURVE",
"737 577 CURVE SMOOTH",
"737 663 OFFCURVE",
"662 720 OFFCURVE",
"576 720 CURVE SMOOTH",
"435 720 OFFCURVE",
"362 594 OFFCURVE",
"362 408 CURVE SMOOTH",
"362 328 OFFCURVE",
"366 297 OFFCURVE",
"366 254 CURVE SMOOTH",
"366 208 OFFCURVE",
"362 188 OFFCURVE",
"354 164 CURVE",
"295 193 OFFCURVE",
"220 222 OFFCURVE",
"146 222 CURVE SMOOTH",
"47 222 OFFCURVE",
"-29 173 OFFCURVE",
"-29 94 CURVE SMOOTH",
"-29 11 OFFCURVE",
"54 -16 OFFCURVE",
"125 -16 CURVE SMOOTH",
"200 -16 OFFCURVE",
"308 6 OFFCURVE",
"372 113 CURVE",
"477 56 OFFCURVE",
"568 -15 OFFCURVE",
"696 -15 CURVE SMOOTH",
"819 -15 OFFCURVE",
"876 76 OFFCURVE",
"879 80 CURVE SMOOTH"
);
},
{
closed = 1;
nodes = (
"291 41 OFFCURVE",
"202 20 OFFCURVE",
"126 20 CURVE SMOOTH",
"63 20 OFFCURVE",
"7 44 OFFCURVE",
"7 96 CURVE SMOOTH",
"7 152 OFFCURVE",
"70 186 OFFCURVE",
"147 186 CURVE SMOOTH",
"215 186 OFFCURVE",
"284 159 OFFCURVE",
"340 131 CURVE"
);
}
);
width = 901;
}
);
leftKerningGroup = L;
rightKerningGroup = L;
unicode = 004C;
},
{
glyphname = M;
lastChange = "2017-06-09 11:17:31 +0000";
layers = (
{
layerId = UUID0;
paths = (
{
closed = 1;
nodes = (
"1135 540 OFFCURVE",
"1110 421 OFFCURVE",
"1110 306 CURVE SMOOTH",
"1110 160 OFFCURVE",
"1145 12 OFFCURVE",
"1286 -8 CURVE SMOOTH",
"1291 -9 OFFCURVE",
"1296 -10 OFFCURVE",
"1301 -10 CURVE SMOOTH",
"1311 -10 OFFCURVE",
"1319 -1 OFFCURVE",
"1319 8 CURVE SMOOTH",
"1319 17 OFFCURVE",
"1312 27 OFFCURVE",
"1302 27 CURVE SMOOTH",
"1178 32 OFFCURVE",
"1146 175 OFFCURVE",
"1146 304 CURVE SMOOTH",
"1146 332 OFFCURVE",
"1148 359 OFFCURVE",
"1150 384 CURVE SMOOTH",
"1163 546 OFFCURVE",
"1236 720 OFFCURVE",
"1237 722 CURVE SMOOTH",
"1238 725 OFFCURVE",
"1238 727 OFFCURVE",
"1238 729 CURVE SMOOTH",
"1238 739 OFFCURVE",
"1230 748 OFFCURVE",
"1220 748 CURVE SMOOTH",
"1215 748 OFFCURVE",
"1210 746 OFFCURVE",
"1207 742 CURVE SMOOTH",
"1204 739 OFFCURVE",
"1132 662 OFFCURVE",
"1029 477 CURVE SMOOTH",
"957 347 OFFCURVE",
"886 173 OFFCURVE",
"851 85 CURVE",
"825 200 OFFCURVE",
"778 407 OFFCURVE",
"751 527 CURVE",
"763 576 OFFCURVE",
"769 618 OFFCURVE",
"769 649 CURVE SMOOTH",
"769 706 OFFCURVE",
"748 713 OFFCURVE",
"735 713 CURVE SMOOTH",
"720 713 OFFCURVE",
"699 707 OFFCURVE",
"699 649 CURVE SMOOTH",
"699 623 OFFCURVE",
"704 583 OFFCURVE",
"714 526 CURVE",
"702 486 OFFCURVE",
"689 446 OFFCURVE",
"676 412 CURVE SMOOTH",
"548 74 OFFCURVE",
"419 19 OFFCURVE",
"271 19 CURVE SMOOTH",
"184 19 OFFCURVE",
"52 74 OFFCURVE",
"52 198 CURVE SMOOTH",
"52 281 OFFCURVE",
"128 340 OFFCURVE",
"219 340 CURVE SMOOTH",
"320 340 OFFCURVE",
"356 287 OFFCURVE",
"357 286 CURVE SMOOTH",
"361 280 OFFCURVE",
"367 277 OFFCURVE",
"373 277 CURVE SMOOTH",
"384 277 OFFCURVE",
"392 287 OFFCURVE",
"392 296 CURVE SMOOTH",
"392 299 OFFCURVE",
"391 303 OFFCURVE",
"389 306 CURVE SMOOTH",
"388 307 OFFCURVE",
"342 377 OFFCURVE",
"221 377 CURVE SMOOTH",
"110 377 OFFCURVE",
"15 304 OFFCURVE",
"15 198 CURVE SMOOTH",
"15 48 OFFCURVE",
"168 -19 OFFCURVE",
"270 -19 CURVE SMOOTH",
"467 -19 OFFCURVE",
"600 84 OFFCURVE",
"729 454 CURVE",
"770 277 OFFCURVE",
"828 20 OFFCURVE",
"829 18 CURVE SMOOTH",
"831 9 OFFCURVE",
"838 3 OFFCURVE",
"846 3 CURVE SMOOTH",
"854 3 OFFCURVE",
"861 8 OFFCURVE",
"864 15 CURVE SMOOTH",
"865 18 OFFCURVE",
"961 281 OFFCURVE",
"1061 459 CURVE SMOOTH",
"1100 529 OFFCURVE",
"1135 588 OFFCURVE",
"1163 629 CURVE"
);
}
);
width = 1329;
}
);
leftKerningGroup = M;
rightKerningGroup = M;
unicode = 004D;
},
{
glyphname = N;
lastChange = "2017-06-09 11:17:31 +0000";
layers = (
{
anchors = (
{
name = top;
position = "{943, 737}";
}
);
layerId = UUID0;
paths = (
{
closed = 1;
nodes = (
"1299 735 OFFCURVE",
"1299 736 OFFCURVE",
"1299 737 CURVE SMOOTH",
"1299 751 OFFCURVE",
"1290 756 OFFCURVE",
"1267 756 CURVE SMOOTH",
"1147 756 OFFCURVE",
"1069 666 OFFCURVE",
"1040 551 CURVE SMOOTH",
"1021 479 OFFCURVE",
"983 252 OFFCURVE",
"963 96 CURVE",
"899 289 OFFCURVE",
"757 671 OFFCURVE",
"750 689 CURVE SMOOTH",
"747 697 OFFCURVE",
"741 702 OFFCURVE",
"733 702 CURVE SMOOTH",
"722 702 OFFCURVE",
"714 693 OFFCURVE",
"714 683 CURVE SMOOTH",
"714 682 OFFCURVE",
"714 679 OFFCURVE",
"714 673 CURVE SMOOTH",
"714 634 OFFCURVE",
"710 482 OFFCURVE",
"640 303 CURVE SMOOTH",
"539 41 OFFCURVE",
"326 26 OFFCURVE",
"260 26 CURVE SMOOTH",
"146 26 OFFCURVE",
"51 90 OFFCURVE",
"51 186 CURVE SMOOTH",
"51 273 OFFCURVE",
"141 339 OFFCURVE",
"233 339 CURVE SMOOTH",
"346 339 OFFCURVE",
"390 263 OFFCURVE",
"392 259 CURVE SMOOTH",
"395 253 OFFCURVE",
"401 250 OFFCURVE",
"408 250 CURVE SMOOTH",
"419 250 OFFCURVE",
"426 259 OFFCURVE",
"426 268 CURVE SMOOTH",
"426 271 OFFCURVE",
"426 274 OFFCURVE",
"424 277 CURVE SMOOTH",
"421 283 OFFCURVE",
"369 375 OFFCURVE",
"230 375 CURVE SMOOTH",
"118 375 OFFCURVE",
"15 292 OFFCURVE",
"15 187 CURVE SMOOTH",
"15 69 OFFCURVE",
"118 -11 OFFCURVE",
"261 -11 CURVE SMOOTH",
"324 -11 OFFCURVE",
"565 7 OFFCURVE",
"674 289 CURVE SMOOTH",
"722 411 OFFCURVE",
"740 519 OFFCURVE",
"747 591 CURVE",
"806 432 OFFCURVE",
"928 98 OFFCURVE",
"953 4 CURVE SMOOTH",
"956 -5 OFFCURVE",
"963 -10 OFFCURVE",
"972 -10 CURVE SMOOTH",
"981 -10 OFFCURVE",
"988 -1 OFFCURVE",
"989 7 CURVE SMOOTH",
"1004 143 OFFCURVE",
"1052 458 OFFCURVE",
"1076 541 CURVE SMOOTH",
"1122 704 OFFCURVE",
"1229 719 OFFCURVE",
"1266 719 CURVE SMOOTH",
"1277 719 OFFCURVE",
"1279 718 OFFCURVE",
"1280 718 CURVE SMOOTH",
"1289 718 OFFCURVE",
"1297 725 OFFCURVE",
"1299 734 CURVE SMOOTH"
);
}
);
width = 1128;
}
);
leftKerningGroup = N;
rightKerningGroup = N;
unicode = 004E;
},
{
glyphname = O;
lastChange = "2017-06-09 11:17:31 +0000";
layers = (
{
anchors = (
{
name = top;
position = "{468, 759}";
}
);
layerId = UUID0;
paths = (
{
closed = 1;
nodes = (
"732 413 OFFCURVE",
"732 419 OFFCURVE",
"732 425 CURVE SMOOTH",
"732 632 OFFCURVE",
"595 718 OFFCURVE",
"471 718 CURVE SMOOTH",
"369 718 OFFCURVE",
"280 646 OFFCURVE",
"280 529 CURVE SMOOTH",
"280 385 OFFCURVE",
"412 312 OFFCURVE",
"550 312 CURVE SMOOTH",
"600 312 OFFCURVE",
"646 324 OFFCURVE",
"688 343 CURVE",
"660 116 OFFCURVE",
"521 17 OFFCURVE",
"359 17 CURVE SMOOTH",
"333 17 OFFCURVE",
"66 27 OFFCURVE",
"66 312 CURVE SMOOTH",
"66 547 OFFCURVE",
"246 622 OFFCURVE",
"258 628 CURVE SMOOTH",
"265 631 OFFCURVE",
"270 638 OFFCURVE",
"270 645 CURVE SMOOTH",
"270 656 OFFCURVE",
"260 663 OFFCURVE",
"251 663 CURVE SMOOTH",
"249 663 OFFCURVE",
"244 662 OFFCURVE",
"242 661 CURVE SMOOTH",
"104 592 OFFCURVE",
"29 467 OFFCURVE",
"29 312 CURVE SMOOTH",
"29 79 OFFCURVE",
"201 -19 OFFCURVE",
"358 -19 CURVE SMOOTH",
"550 -19 OFFCURVE",
"707 107 OFFCURVE",
"729 363 CURVE",
"770 387 OFFCURVE",
"805 417 OFFCURVE",
"820 438 CURVE SMOOTH",
"822 441 OFFCURVE",
"822 444 OFFCURVE",
"822 447 CURVE SMOOTH",
"822 456 OFFCURVE",
"815 466 OFFCURVE",
"804 466 CURVE SMOOTH",
"800 466 OFFCURVE",
"798 465 OFFCURVE",
"796 462 CURVE SMOOTH",
"786 449 OFFCURVE",
"756 421 OFFCURVE",
"732 408 CURVE"
);
},
{
closed = 1;
nodes = (
"652 363 OFFCURVE",
"604 349 OFFCURVE",
"551 349 CURVE SMOOTH",
"396 349 OFFCURVE",
"317 435 OFFCURVE",
"317 529 CURVE SMOOTH",
"317 627 OFFCURVE",
"385 682 OFFCURVE",
"469 682 CURVE SMOOTH",
"577 682 OFFCURVE",
"696 608 OFFCURVE",
"696 423 CURVE SMOOTH",
"696 411 OFFCURVE",
"695 397 OFFCURVE",
"694 385 CURVE"
);
}
);
width = 773;
}
);
leftKerningGroup = O;
rightKerningGroup = O;
unicode = 004F;
},
{
glyphname = P;
lastChange = "2017-06-09 11:17:31 +0000";
layers = (
{
layerId = UUID0;
paths = (
{
closed = 1;
nodes = (
"919 643 OFFCURVE",
"774 739 OFFCURVE",
"567 739 CURVE SMOOTH",
"284 739 OFFCURVE",
"49 589 OFFCURVE",
"49 407 CURVE SMOOTH",
"49 297 OFFCURVE",
"134 229 OFFCURVE",
"232 229 CURVE SMOOTH",
"340 229 OFFCURVE",
"400 286 OFFCURVE",
"402 288 CURVE SMOOTH",
"406 292 OFFCURVE",
"408 296 OFFCURVE",
"408 301 CURVE SMOOTH",
"408 311 OFFCURVE",
"399 320 OFFCURVE",
"390 320 CURVE SMOOTH",
"385 320 OFFCURVE",
"380 318 OFFCURVE",
"377 314 CURVE SMOOTH",
"375 312 OFFCURVE",
"324 266 OFFCURVE",
"232 266 CURVE SMOOTH",
"156 266 OFFCURVE",
"86 313 OFFCURVE",
"86 407 CURVE SMOOTH",
"86 567 OFFCURVE",
"305 703 OFFCURVE",
"568 703 CURVE SMOOTH",
"752 703 OFFCURVE",
"883 623 OFFCURVE",
"883 482 CURVE SMOOTH",
"883 344 OFFCURVE",
"771 267 OFFCURVE",
"607 267 CURVE SMOOTH",
"597 267 OFFCURVE",
"589 258 OFFCURVE",
"589 249 CURVE SMOOTH",
"589 236 OFFCURVE",
"599 230 OFFCURVE",
"609 230 CURVE SMOOTH",
"793 230 OFFCURVE",
"919 325 OFFCURVE",
"919 482 CURVE SMOOTH"
);
},
{
closed = 1;
nodes = (
"627 598 OFFCURVE",
"622 597 OFFCURVE",
"620 595 CURVE SMOOTH",
"530 534 OFFCURVE",
"520 431 OFFCURVE",
"520 343 CURVE SMOOTH",
"520 322 OFFCURVE",
"520 302 OFFCURVE",
"520 281 CURVE SMOOTH",
"520 132 OFFCURVE",
"486 10 OFFCURVE",
"333 10 CURVE SMOOTH",
"266 10 OFFCURVE",
"213 40 OFFCURVE",
"172 97 CURVE SMOOTH",
"168 103 OFFCURVE",
"162 106 OFFCURVE",
"156 106 CURVE SMOOTH",
"145 106 OFFCURVE",
"137 97 OFFCURVE",
"137 88 CURVE SMOOTH",
"137 85 OFFCURVE",
"139 81 OFFCURVE",
"140 79 CURVE SMOOTH",
"181 13 OFFCURVE",
"254 -26 OFFCURVE",
"333 -26 CURVE SMOOTH",
"505 -26 OFFCURVE",
"556 113 OFFCURVE",
"556 274 CURVE SMOOTH",
"556 294 OFFCURVE",
"556 315 OFFCURVE",
"556 335 CURVE SMOOTH",
"556 430 OFFCURVE",
"566 507 OFFCURVE",
"639 563 CURVE SMOOTH",
"644 568 OFFCURVE",
"648 573 OFFCURVE",
"648 580 CURVE SMOOTH",
"648 591 OFFCURVE",
"639 598 OFFCURVE",
"629 598 CURVE SMOOTH"
);
}
);
width = 934;
}
);
leftKerningGroup = P;
rightKerningGroup = P;
unicode = 0050;
},
{
glyphname = Q;
lastChange = "2017-06-09 11:17:31 +0000";
layers = (
{
layerId = UUID0;
paths = (
{
closed = 1;
nodes = (
"602 9 OFFCURVE",
"674 -46 OFFCURVE",
"744 -77 CURVE SMOOTH",
"789 -97 OFFCURVE",
"833 -104 OFFCURVE",
"873 -104 CURVE SMOOTH",
"951 -104 OFFCURVE",
"1010 -78 OFFCURVE",
"1014 -77 CURVE SMOOTH",
"1021 -74 OFFCURVE",
"1025 -67 OFFCURVE",
"1025 -60 CURVE SMOOTH",
"1025 -49 OFFCURVE",
"1016 -42 OFFCURVE",
"1006 -42 CURVE SMOOTH",
"1004 -42 OFFCURVE",
"1001 -42 OFFCURVE",
"999 -43 CURVE SMOOTH",
"999 -43 OFFCURVE",
"943 -67 OFFCURVE",
"873 -67 CURVE SMOOTH",
"837 -67 OFFCURVE",
"798 -62 OFFCURVE",
"759 -44 CURVE SMOOTH",
"698 -16 OFFCURVE",
"634 31 OFFCURVE",
"564 75 CURVE",
"662 125 OFFCURVE",
"792 229 OFFCURVE",
"792 402 CURVE SMOOTH",
"792 582 OFFCURVE",
"640 728 OFFCURVE",
"442 728 CURVE SMOOTH",
"245 728 OFFCURVE",
"70 577 OFFCURVE",
"70 383 CURVE SMOOTH",
"70 310 OFFCURVE",
"97 243 OFFCURVE",
"150 189 CURVE",
"106 178 OFFCURVE",
"49 152 OFFCURVE",
"49 98 CURVE SMOOTH",
"49 66 OFFCURVE",
"70 -6 OFFCURVE",
"254 -6 CURVE SMOOTH",
"335 -6 OFFCURVE",
"429 13 OFFCURVE",
"525 56 CURVE"
);
},
{
closed = 1;
nodes = (
"468 133 OFFCURVE",
"400 168 OFFCURVE",
"326 185 CURVE SMOOTH",
"287 194 OFFCURVE",
"252 198 OFFCURVE",
"223 198 CURVE SMOOTH",
"213 198 OFFCURVE",
"205 197 OFFCURVE",
"196 197 CURVE",
"151 235 OFFCURVE",
"107 296 OFFCURVE",
"107 385 CURVE SMOOTH",
"107 556 OFFCURVE",
"264 692 OFFCURVE",
"442 692 CURVE SMOOTH",
"619 692 OFFCURVE",
"755 562 OFFCURVE",
"755 403 CURVE SMOOTH",
"755 250 OFFCURVE",
"648 152 OFFCURVE",
"529 96 CURVE"
);
},
{
closed = 1;
nodes = (
"390 37 OFFCURVE",
"306 29 OFFCURVE",
"255 29 CURVE SMOOTH",
"121 29 OFFCURVE",
"85 67 OFFCURVE",
"85 98 CURVE SMOOTH",
"85 141 OFFCURVE",
"150 159 OFFCURVE",
"184 159 CURVE",
"229 124 OFFCURVE",
"267 109 OFFCURVE",
"269 109 CURVE SMOOTH",
"273 107 OFFCURVE",
"278 106 OFFCURVE",
"281 106 CURVE SMOOTH",
"291 106 OFFCURVE",
"299 113 OFFCURVE",
"299 124 CURVE SMOOTH",
"299 132 OFFCURVE",
"294 137 OFFCURVE",
"287 141 CURVE SMOOTH",
"282 143 OFFCURVE",
"264 148 OFFCURVE",
"245 161 CURVE",
"337 154 OFFCURVE",
"409 129 OFFCURVE",
"487 79 CURVE"
);
}
);
width = 854;
}
);
unicode = 0051;
},
{
glyphname = R;
lastChange = "2017-06-09 11:17:31 +0000";
layers = (
{
anchors = (
{
name = top;
position = "{572, 779}";
}
);
layerId = UUID0;
paths = (
{
closed = 1;
nodes = (
"627 598 OFFCURVE",
"624 598 OFFCURVE",
"621 596 CURVE SMOOTH",
"618 594 OFFCURVE",
"533 547 OFFCURVE",
"521 406 CURVE SMOOTH",
"521 392 OFFCURVE",
"520 376 OFFCURVE",
"520 362 CURVE",
"497 353 OFFCURVE",
"484 338 OFFCURVE",
"484 319 CURVE SMOOTH",
"484 301 OFFCURVE",
"498 287 OFFCURVE",
"520 280 CURVE",
"520 261 LINE SMOOTH",
"520 109 OFFCURVE",
"467 10 OFFCURVE",
"333 10 CURVE SMOOTH",
"267 10 OFFCURVE",
"201 46 OFFCURVE",
"172 97 CURVE SMOOTH",
"168 103 OFFCURVE",
"163 106 OFFCURVE",
"156 106 CURVE SMOOTH",
"145 106 OFFCURVE",
"137 97 OFFCURVE",
"137 88 CURVE SMOOTH",
"137 85 OFFCURVE",
"138 82 OFFCURVE",
"140 80 CURVE SMOOTH",
"171 20 OFFCURVE",
"252 -26 OFFCURVE",
"333 -26 CURVE SMOOTH",
"495 -26 OFFCURVE",
"556 101 OFFCURVE",
"556 261 CURVE SMOOTH",
"556 276 LINE",
"613 276 OFFCURVE",
"667 287 OFFCURVE",
"717 303 CURVE",
"793 252 OFFCURVE",
"796 145 OFFCURVE",
"798 95 CURVE SMOOTH",
"801 17 OFFCURVE",
"823 -28 OFFCURVE",
"892 -28 CURVE SMOOTH",
"1009 -28 OFFCURVE",
"1065 130 OFFCURVE",
"1067 137 CURVE SMOOTH",
"1068 139 OFFCURVE",
"1068 142 OFFCURVE",
"1068 144 CURVE SMOOTH",
"1068 153 OFFCURVE",
"1061 162 OFFCURVE",
"1050 162 CURVE SMOOTH",
"1042 162 OFFCURVE",
"1036 157 OFFCURVE",
"1033 150 CURVE SMOOTH",
"1032 148 OFFCURVE",
"984 8 OFFCURVE",
"897 8 CURVE SMOOTH",
"856 8 OFFCURVE",
"838 23 OFFCURVE",
"835 97 CURVE SMOOTH",
"833 148 OFFCURVE",
"829 258 OFFCURVE",
"757 319 CURVE",
"854 367 OFFCURVE",
"906 441 OFFCURVE",
"906 528 CURVE SMOOTH",
"906 661 OFFCURVE",
"769 740 OFFCURVE",
"575 740 CURVE SMOOTH",
"289 740 OFFCURVE",
"49 593 OFFCURVE",
"49 407 CURVE SMOOTH",
"49 296 OFFCURVE",
"135 229 OFFCURVE",
"233 229 CURVE SMOOTH",
"340 229 OFFCURVE",
"399 285 OFFCURVE",
"402 288 CURVE SMOOTH",
"406 292 OFFCURVE",
"408 296 OFFCURVE",
"408 301 CURVE SMOOTH",
"408 311 OFFCURVE",
"399 319 OFFCURVE",
"390 319 CURVE SMOOTH",
"383 319 OFFCURVE",
"377 313 OFFCURVE",
"373 310 CURVE SMOOTH",
"370 308 OFFCURVE",
"324 265 OFFCURVE",
"232 265 CURVE SMOOTH",
"156 265 OFFCURVE",
"86 313 OFFCURVE",
"86 407 CURVE SMOOTH",
"86 598 OFFCURVE",
"350 704 OFFCURVE",
"576 704 CURVE SMOOTH",
"748 704 OFFCURVE",
"869 638 OFFCURVE",
"869 523 CURVE SMOOTH",
"869 447 OFFCURVE",
"816 381 OFFCURVE",
"723 344 CURVE",
"687 363 OFFCURVE",
"642 374 OFFCURVE",
"595 374 CURVE SMOOTH",
"581 374 OFFCURVE",
"568 373 OFFCURVE",
"556 372 CURVE",
"557 382 OFFCURVE",
"557 393 OFFCURVE",
"558 403 CURVE SMOOTH",
"568 523 OFFCURVE",
"635 561 OFFCURVE",
"639 563 CURVE SMOOTH",
"645 567 OFFCURVE",
"648 573 OFFCURVE",
"648 580 CURVE SMOOTH",
"648 591 OFFCURVE",
"639 598 OFFCURVE",
"629 598 CURVE SMOOTH"
);
},
{
closed = 1;
nodes = (
"640 317 OFFCURVE",
"595 312 OFFCURVE",
"556 312 CURVE",
"556 335 LINE",
"556 336 LINE",
"566 338 OFFCURVE",
"580 339 OFFCURVE",
"597 339 CURVE SMOOTH",
"635 339 OFFCURVE",
"654 332 OFFCURVE",
"675 326 CURVE"
);
}
);
width = 1012;
}
);
leftKerningGroup = R;
rightKerningGroup = R;
unicode = 0052;
},
{
glyphname = S;
lastChange = "2017-06-09 11:17:31 +0000";
layers = (
{
anchors = (
{
name = top;
position = "{499, 773}";
}
);
layerId = UUID0;
paths = (
{
closed = 1;
nodes = (
"888 524 OFFCURVE",
"889 535 OFFCURVE",
"889 545 CURVE SMOOTH",
"889 580 OFFCURVE",
"877 611 OFFCURVE",
"854 638 CURVE SMOOTH",
"816 683 OFFCURVE",
"731 732 OFFCURVE",
"542 732 CURVE SMOOTH",
"314 732 OFFCURVE",
"49 642 OFFCURVE",
"49 458 CURVE SMOOTH",
"49 338 OFFCURVE",
"165 279 OFFCURVE",
"402 259 CURVE SMOOTH",
"477 252 LINE SMOOTH",
"535 248 OFFCURVE",
"601 243 OFFCURVE",
"650 230 CURVE SMOOTH",
"698 218 OFFCURVE",
"731 198 OFFCURVE",
"731 153 CURVE SMOOTH",
"731 76 OFFCURVE",
"640 18 OFFCURVE",
"472 18 CURVE SMOOTH",
"303 18 OFFCURVE",
"216 71 OFFCURVE",
"215 72 CURVE SMOOTH",
"212 74 OFFCURVE",
"208 75 OFFCURVE",
"205 75 CURVE SMOOTH",
"196 75 OFFCURVE",
"187 67 OFFCURVE",
"187 56 CURVE SMOOTH",
"187 50 OFFCURVE",
"189 44 OFFCURVE",
"195 41 CURVE SMOOTH",
"199 38 OFFCURVE",
"292 -19 OFFCURVE",
"471 -19 CURVE SMOOTH",
"636 -19 OFFCURVE",
"770 42 OFFCURVE",
"770 154 CURVE SMOOTH",
"770 213 OFFCURVE",
"734 246 OFFCURVE",
"660 265 CURVE SMOOTH",
"615 276 OFFCURVE",
"556 283 OFFCURVE",
"481 289 CURVE SMOOTH",
"406 295 LINE SMOOTH",
"250 309 OFFCURVE",
"86 339 OFFCURVE",
"86 458 CURVE SMOOTH",
"86 612 OFFCURVE",
"324 696 OFFCURVE",
"542 696 CURVE SMOOTH",
"731 696 OFFCURVE",
"852 641 OFFCURVE",
"852 545 CURVE SMOOTH",
"852 536 OFFCURVE",
"849 526 OFFCURVE",
"849 517 CURVE SMOOTH",
"849 507 OFFCURVE",
"857 498 OFFCURVE",
"869 498 CURVE SMOOTH",
"876 498 OFFCURVE",
"884 504 OFFCURVE",
"886 513 CURVE SMOOTH"
);
}
);
width = 821;
}
);
leftKerningGroup = S;
rightKerningGroup = S;
unicode = 0053;
},
{
glyphname = T;
lastChange = "2017-06-09 11:17:31 +0000";
layers = (
{
anchors = (
{
name = top;
position = "{600, 720}";
}
);
layerId = UUID0;
paths = (
{
closed = 1;
nodes = (
"851 680 OFFCURVE",
"848 679 OFFCURVE",
"845 677 CURVE SMOOTH",
"843 676 OFFCURVE",
"809 656 OFFCURVE",
"776 615 CURVE",
"591 646 OFFCURVE",
"426 738 OFFCURVE",
"271 738 CURVE SMOOTH",
"128 738 OFFCURVE",
"20 651 OFFCURVE",
"20 519 CURVE SMOOTH",
"20 419 OFFCURVE",
"96 346 OFFCURVE",
"195 346 CURVE SMOOTH",
"349 346 OFFCURVE",
"400 495 OFFCURVE",
"402 499 CURVE SMOOTH",
"403 501 OFFCURVE",
"403 502 OFFCURVE",
"403 504 CURVE SMOOTH",
"403 514 OFFCURVE",
"396 523 OFFCURVE",
"385 523 CURVE SMOOTH",
"377 523 OFFCURVE",
"370 518 OFFCURVE",
"367 511 CURVE SMOOTH",
"367 510 OFFCURVE",
"322 382 OFFCURVE",
"195 382 CURVE SMOOTH",
"115 382 OFFCURVE",
"56 440 OFFCURVE",
"56 519 CURVE SMOOTH",
"56 628 OFFCURVE",
"146 702 OFFCURVE",
"270 702 CURVE SMOOTH",
"406 702 OFFCURVE",
"579 618 OFFCURVE",
"754 583 CURVE",
"741 561 OFFCURVE",
"729 535 OFFCURVE",
"721 504 CURVE SMOOTH",
"692 389 OFFCURVE",
"717 234 OFFCURVE",
"685 143 CURVE SMOOTH",
"656 60 OFFCURVE",
"600 11 OFFCURVE",
"504 11 CURVE SMOOTH",
"413 11 OFFCURVE",
"352 45 OFFCURVE",
"304 118 CURVE SMOOTH",
"301 123 OFFCURVE",
"294 127 OFFCURVE",
"288 127 CURVE SMOOTH",
"276 127 OFFCURVE",
"269 116 OFFCURVE",
"269 107 CURVE SMOOTH",
"269 102 OFFCURVE",
"273 95 OFFCURVE",
"275 92 CURVE SMOOTH",
"332 11 OFFCURVE",
"410 -26 OFFCURVE",
"504 -26 CURVE SMOOTH",
"620 -26 OFFCURVE",
"691 42 OFFCURVE",
"721 129 CURVE SMOOTH",
"760 246 OFFCURVE",
"730 386 OFFCURVE",
"757 496 CURVE SMOOTH",
"765 527 OFFCURVE",
"778 554 OFFCURVE",
"793 576 CURVE",
"827 570 OFFCURVE",
"861 567 OFFCURVE",
"895 567 CURVE SMOOTH",
"1013 567 OFFCURVE",
"1087 608 OFFCURVE",
"1118 650 CURVE SMOOTH",
"1121 653 OFFCURVE",
"1122 657 OFFCURVE",
"1122 661 CURVE SMOOTH",
"1122 670 OFFCURVE",
"1114 680 OFFCURVE",
"1104 680 CURVE SMOOTH",
"1098 680 OFFCURVE",
"1092 676 OFFCURVE",
"1088 672 CURVE SMOOTH",
"1057 633 OFFCURVE",
"994 604 OFFCURVE",
"895 604 CURVE SMOOTH",
"869 604 OFFCURVE",
"844 606 OFFCURVE",
"820 609 CURVE",
"843 633 OFFCURVE",
"863 645 OFFCURVE",
"864 646 CURVE SMOOTH",
"870 649 OFFCURVE",
"873 655 OFFCURVE",
"873 661 CURVE SMOOTH",
"873 672 OFFCURVE",
"863 680 OFFCURVE",
"854 680 CURVE SMOOTH"
);
}
);
width = 877;
}
);
leftKerningGroup = T;
rightKerningGroup = T;
unicode = 0054;
},
{
glyphname = U;
lastChange = "2017-06-09 11:17:31 +0000";
layers = (
{
anchors = (
{
name = top;
position = "{632, 721}";
}
);
layerId = UUID0;
paths = (
{
closed = 1;
nodes = (
"777 240 OFFCURVE",
"771 171 OFFCURVE",
"771 129 CURVE SMOOTH",
"771 30 OFFCURVE",
"812 -30 OFFCURVE",
"886 -30 CURVE SMOOTH",
"987 -30 OFFCURVE",
"1039 117 OFFCURVE",
"1046 138 CURVE SMOOTH",
"1046 140 OFFCURVE",
"1047 142 OFFCURVE",
"1047 144 CURVE SMOOTH",
"1047 153 OFFCURVE",
"1040 162 OFFCURVE",
"1028 162 CURVE SMOOTH",
"1021 162 OFFCURVE",
"1013 157 OFFCURVE",
"1011 149 CURVE SMOOTH",
"996 104 OFFCURVE",
"952 5 OFFCURVE",
"887 5 CURVE SMOOTH",
"840 5 OFFCURVE",
"808 46 OFFCURVE",
"808 129 CURVE SMOOTH",
"808 255 OFFCURVE",
"870 651 OFFCURVE",
"870 662 CURVE SMOOTH",
"870 671 OFFCURVE",
"862 680 OFFCURVE",
"852 680 CURVE SMOOTH",
"843 680 OFFCURVE",
"835 673 OFFCURVE",
"833 665 CURVE SMOOTH",
"833 662 OFFCURVE",
"788 381 OFFCURVE",
"704 206 CURVE SMOOTH",
"627 46 OFFCURVE",
"556 6 OFFCURVE",
"500 6 CURVE SMOOTH",
"417 6 OFFCURVE",
"389 62 OFFCURVE",
"389 144 CURVE SMOOTH",
"389 260 OFFCURVE",
"449 405 OFFCURVE",
"449 527 CURVE SMOOTH",
"449 639 OFFCURVE",
"383 706 OFFCURVE",
"274 706 CURVE SMOOTH",
"144 706 OFFCURVE",
"29 615 OFFCURVE",
"29 489 CURVE SMOOTH",
"29 385 OFFCURVE",
"91 344 OFFCURVE",
"143 331 CURVE SMOOTH",
"144 331 OFFCURVE",
"151 330 OFFCURVE",
"152 330 CURVE SMOOTH",
"162 330 OFFCURVE",
"171 337 OFFCURVE",
"171 348 CURVE SMOOTH",
"171 356 OFFCURVE",
"165 365 OFFCURVE",
"155 366 CURVE SMOOTH",
"151 367 OFFCURVE",
"66 378 OFFCURVE",
"66 489 CURVE SMOOTH",
"66 594 OFFCURVE",
"163 670 OFFCURVE",
"275 670 CURVE SMOOTH",
"364 670 OFFCURVE",
"412 618 OFFCURVE",
"412 527 CURVE SMOOTH",
"412 408 OFFCURVE",
"352 259 OFFCURVE",
"352 144 CURVE SMOOTH",
"352 46 OFFCURVE",
"389 -29 OFFCURVE",
"500 -29 CURVE SMOOTH",
"604 -29 OFFCURVE",
"710 82 OFFCURVE",
"786 316 CURVE"
);
}
);
width = 993;
}
);
leftKerningGroup = U;
unicode = 0055;
},
{
glyphname = V;
lastChange = "2017-06-09 11:17:31 +0000";
layers = (
{
layerId = UUID0;
paths = (
{
closed = 1;
nodes = (
"654 75 OFFCURVE",
"656 124 OFFCURVE",
"656 168 CURVE SMOOTH",
"656 489 OFFCURVE",
"554 702 OFFCURVE",
"318 702 CURVE SMOOTH",
"137 702 OFFCURVE",
"39 589 OFFCURVE",
"39 477 CURVE SMOOTH",
"39 376 OFFCURVE",
"113 308 OFFCURVE",
"211 308 CURVE SMOOTH",
"291 308 OFFCURVE",
"343 351 OFFCURVE",
"345 353 CURVE SMOOTH",
"350 356 OFFCURVE",
"352 361 OFFCURVE",
"352 367 CURVE SMOOTH",
"352 377 OFFCURVE",
"343 384 OFFCURVE",
"333 384 CURVE SMOOTH",
"330 384 OFFCURVE",
"325 383 OFFCURVE",
"322 380 CURVE SMOOTH",
"320 378 OFFCURVE",
"277 344 OFFCURVE",
"212 344 CURVE SMOOTH",
"135 344 OFFCURVE",
"76 394 OFFCURVE",
"76 477 CURVE SMOOTH",
"76 571 OFFCURVE",
"160 667 OFFCURVE",
"320 667 CURVE SMOOTH",
"535 667 OFFCURVE",
"620 456 OFFCURVE",
"619 171 CURVE SMOOTH",
"619 114 OFFCURVE",
"609 1 OFFCURVE",
"609 -12 CURVE SMOOTH",
"609 -22 OFFCURVE",
"615 -32 OFFCURVE",
"627 -32 CURVE SMOOTH",
"634 -32 OFFCURVE",
"640 -28 OFFCURVE",
"643 -25 CURVE SMOOTH",
"910 182 OFFCURVE",
"1054 414 OFFCURVE",
"1054 620 CURVE SMOOTH",
"1054 747 OFFCURVE",
"989 841 OFFCURVE",
"894 841 CURVE SMOOTH",
"879 841 OFFCURVE",
"866 837 OFFCURVE",
"866 822 CURVE SMOOTH",
"866 811 OFFCURVE",
"875 804 OFFCURVE",
"885 804 CURVE SMOOTH",
"888 804 OFFCURVE",
"892 804 OFFCURVE",
"895 804 CURVE SMOOTH",
"970 804 OFFCURVE",
"1018 723 OFFCURVE",
"1018 615 CURVE SMOOTH",
"1018 431 OFFCURVE",
"877 204 OFFCURVE",
"650 26 CURVE"
);
}
);
width = 1035;
}
);
leftKerningGroup = V;
rightKerningGroup = V;
unicode = 0056;
},
{
glyphname = W;
lastChange = "2017-06-09 11:17:31 +0000";
layers = (
{
anchors = (
{
name = top;
position = "{910, 719}";
}
);
layerId = UUID0;
paths = (
{
closed = 1;
nodes = (
"872 557 LINE",
"863 493 OFFCURVE",
"850 395 OFFCURVE",
"850 310 CURVE SMOOTH",
"850 105 OFFCURVE",
"895 -20 OFFCURVE",
"1028 -20 CURVE SMOOTH",
"1242 -20 OFFCURVE",
"1368 338 OFFCURVE",
"1368 553 CURVE SMOOTH",
"1368 646 OFFCURVE",
"1347 730 OFFCURVE",
"1297 783 CURVE SMOOTH",
"1293 787 OFFCURVE",
"1289 789 OFFCURVE",
"1284 789 CURVE SMOOTH",
"1274 789 OFFCURVE",
"1265 780 OFFCURVE",
"1265 770 CURVE SMOOTH",
"1265 766 OFFCURVE",
"1267 761 OFFCURVE",
"1270 758 CURVE SMOOTH",
"1312 713 OFFCURVE",
"1331 638 OFFCURVE",
"1331 554 CURVE SMOOTH",
"1331 366 OFFCURVE",
"1220 16 OFFCURVE",
"1028 16 CURVE SMOOTH",
"922 16 OFFCURVE",
"887 120 OFFCURVE",
"887 306 CURVE SMOOTH",
"887 472 OFFCURVE",
"925 649 OFFCURVE",
"925 659 CURVE SMOOTH",
"925 668 OFFCURVE",
"917 677 OFFCURVE",
"906 677 CURVE SMOOTH",
"899 677 OFFCURVE",
"894 674 OFFCURVE",
"891 668 CURVE SMOOTH",
"563 62 LINE",
"564 80 OFFCURVE",
"564 118 OFFCURVE",
"564 144 CURVE SMOOTH",
"565 352 OFFCURVE",
"562 671 OFFCURVE",
"287 671 CURVE SMOOTH",
"145 671 OFFCURVE",
"39 564 OFFCURVE",
"39 433 CURVE SMOOTH",
"39 318 OFFCURVE",
"126 232 OFFCURVE",
"234 232 CURVE SMOOTH",
"312 232 OFFCURVE",
"365 283 OFFCURVE",
"368 286 CURVE SMOOTH",
"371 289 OFFCURVE",
"373 293 OFFCURVE",
"373 298 CURVE SMOOTH",
"373 308 OFFCURVE",
"365 316 OFFCURVE",
"355 316 CURVE SMOOTH",
"350 316 OFFCURVE",
"345 314 OFFCURVE",
"342 311 CURVE SMOOTH",
"341 310 OFFCURVE",
"298 269 OFFCURVE",
"233 269 CURVE SMOOTH",
"148 269 OFFCURVE",
"76 338 OFFCURVE",
"76 433 CURVE SMOOTH",
"76 542 OFFCURVE",
"162 636 OFFCURVE",
"289 636 CURVE SMOOTH",
"545 636 OFFCURVE",
"526 281 OFFCURVE",
"526 59 CURVE SMOOTH",
"526 16 OFFCURVE",
"525 -12 OFFCURVE",
"525 -13 CURVE SMOOTH",
"525 -23 OFFCURVE",
"532 -32 OFFCURVE",
"543 -32 CURVE SMOOTH",
"550 -32 OFFCURVE",
"556 -29 OFFCURVE",
"560 -22 CURVE SMOOTH"
);
}
);
width = 1392;
}
);
leftKerningGroup = W;
rightKerningGroup = W;
unicode = 0057;
},
{
glyphname = X;
lastChange = "2017-06-09 11:17:31 +0000";
layers = (
{
layerId = UUID0;
paths = (
{
closed = 1;
nodes = (
"964 14 OFFCURVE",
"956 22 OFFCURVE",
"945 22 CURVE SMOOTH",
"789 33 OFFCURVE",
"748 161 OFFCURVE",
"678 322 CURVE",
"812 456 OFFCURVE",
"928 592 OFFCURVE",
"1018 723 CURVE",
"1020 726 OFFCURVE",
"1021 730 OFFCURVE",
"1021 734 CURVE SMOOTH",
"1021 743 OFFCURVE",
"1014 752 OFFCURVE",
"1002 752 CURVE SMOOTH",
"997 752 OFFCURVE",
"991 749 OFFCURVE",
"987 744 CURVE SMOOTH",
"901 618 OFFCURVE",
"791 487 OFFCURVE",
"662 358 CURVE",
"571 563 OFFCURVE",
"528 720 OFFCURVE",
"318 720 CURVE SMOOTH",
"182 720 OFFCURVE",
"39 609 OFFCURVE",
"39 471 CURVE SMOOTH",
"39 380 OFFCURVE",
"103 313 OFFCURVE",
"185 313 CURVE SMOOTH",
"266 313 OFFCURVE",
"319 370 OFFCURVE",
"322 373 CURVE SMOOTH",
"326 376 OFFCURVE",
"328 381 OFFCURVE",
"328 386 CURVE SMOOTH",
"328 396 OFFCURVE",
"319 404 OFFCURVE",
"310 404 CURVE SMOOTH",
"305 404 OFFCURVE",
"300 402 OFFCURVE",
"296 399 CURVE SMOOTH",
"295 398 OFFCURVE",
"252 350 OFFCURVE",
"185 350 CURVE SMOOTH",
"123 350 OFFCURVE",
"76 400 OFFCURVE",
"76 471 CURVE SMOOTH",
"76 593 OFFCURVE",
"211 684 OFFCURVE",
"319 684 CURVE SMOOTH",
"510 684 OFFCURVE",
"548 526 OFFCURVE",
"632 336 CURVE SMOOTH",
"633 334 OFFCURVE",
"633 332 OFFCURVE",
"634 330 CURVE",
"524 221 OFFCURVE",
"401 114 OFFCURVE",
"271 12 CURVE SMOOTH",
"253 -1 OFFCURVE",
"253 -1 OFFCURVE",
"250 -5 CURVE SMOOTH",
"249 -8 OFFCURVE",
"247 -12 OFFCURVE",
"247 -15 CURVE SMOOTH",
"247 -25 OFFCURVE",
"256 -34 OFFCURVE",
"266 -34 CURVE SMOOTH",
"273 -34 OFFCURVE",
"277 -30 OFFCURVE",
"294 -17 CURVE SMOOTH",
"422 83 OFFCURVE",
"542 188 OFFCURVE",
"650 294 CURVE",
"725 119 OFFCURVE",
"771 0 OFFCURVE",
"945 -14 CURVE SMOOTH",
"956 -15 OFFCURVE",
"964 -6 OFFCURVE",
"964 4 CURVE SMOOTH"
);
}
);
width = 982;
}
);
leftKerningGroup = X;
rightKerningGroup = X;
unicode = 0058;
},
{
glyphname = Y;
lastChange = "2017-06-09 11:17:31 +0000";
layers = (
{
anchors = (
{
name = top;
position = "{681, 692}";
}
);
layerId = UUID0;
paths = (
{
closed = 1;
nodes = (
"1014 38 OFFCURVE",
"1006 46 OFFCURVE",
"993 45 CURVE SMOOTH",
"979 44 OFFCURVE",
"916 31 OFFCURVE",
"863 9 CURVE",
"859 47 OFFCURVE",
"857 86 OFFCURVE",
"857 121 CURVE SMOOTH",
"857 204 OFFCURVE",
"870 329 OFFCURVE",
"881 403 CURVE SMOOTH",
"895 503 OFFCURVE",
"909 588 OFFCURVE",
"909 593 CURVE SMOOTH",
"909 602 OFFCURVE",
"902 611 OFFCURVE",
"891 611 CURVE SMOOTH",
"882 611 OFFCURVE",
"875 604 OFFCURVE",
"873 596 CURVE SMOOTH",
"873 593 OFFCURVE",
"827 354 OFFCURVE",
"753 204 CURVE SMOOTH",
"688 74 OFFCURVE",
"617 7 OFFCURVE",
"544 7 CURVE SMOOTH",
"463 7 OFFCURVE",
"436 64 OFFCURVE",
"436 140 CURVE SMOOTH",
"436 225 OFFCURVE",
"467 335 OFFCURVE",
"487 436 CURVE SMOOTH",
"492 459 OFFCURVE",
"494 481 OFFCURVE",
"494 503 CURVE SMOOTH",
"494 619 OFFCURVE",
"424 708 OFFCURVE",
"302 708 CURVE SMOOTH",
"157 708 OFFCURVE",
"39 595 OFFCURVE",
"39 431 CURVE SMOOTH",
"39 252 OFFCURVE",
"178 212 OFFCURVE",
"200 212 CURVE SMOOTH",
"210 212 OFFCURVE",
"218 221 OFFCURVE",
"218 231 CURVE SMOOTH",
"218 240 OFFCURVE",
"211 248 OFFCURVE",
"202 250 CURVE",
"114 265 OFFCURVE",
"76 353 OFFCURVE",
"76 435 CURVE SMOOTH",
"76 571 OFFCURVE",
"178 672 OFFCURVE",
"303 672 CURVE SMOOTH",
"402 672 OFFCURVE",
"458 599 OFFCURVE",
"458 504 CURVE SMOOTH",
"458 461 OFFCURVE",
"444 411 OFFCURVE",
"434 364 CURVE SMOOTH",
"417 285 OFFCURVE",
"399 205 OFFCURVE",
"399 138 CURVE SMOOTH",
"399 37 OFFCURVE",
"446 -29 OFFCURVE",
"543 -29 CURVE SMOOTH",
"654 -29 OFFCURVE",
"758 89 OFFCURVE",
"835 310 CURVE",
"827 238 OFFCURVE",
"821 167 OFFCURVE",
"821 125 CURVE SMOOTH",
"821 83 OFFCURVE",
"824 35 OFFCURVE",
"827 -6 CURVE",
"667 -81 OFFCURVE",
"596 -198 OFFCURVE",
"596 -285 CURVE SMOOTH",
"596 -352 OFFCURVE",
"640 -406 OFFCURVE",
"709 -406 CURVE SMOOTH",
"831 -406 OFFCURVE",
"869 -270 OFFCURVE",
"869 -133 CURVE SMOOTH",
"869 -100 OFFCURVE",
"868 -64 OFFCURVE",
"865 -29 CURVE",
"929 -1 OFFCURVE",
"992 7 OFFCURVE",
"995 8 CURVE SMOOTH",
"1007 10 OFFCURVE",
"1014 16 OFFCURVE",
"1014 26 CURVE SMOOTH"
);
},
{
closed = 1;
nodes = (
"831 -75 OFFCURVE",
"833 -104 OFFCURVE",
"833 -132 CURVE SMOOTH",
"833 -221 OFFCURVE",
"814 -369 OFFCURVE",
"709 -369 CURVE SMOOTH",
"662 -369 OFFCURVE",
"633 -332 OFFCURVE",
"633 -285 CURVE SMOOTH",
"633 -211 OFFCURVE",
"705 -104 OFFCURVE",
"830 -46 CURVE"
);
}
);
width = 1014;
}
);
leftKerningGroup = Y;
rightKerningGroup = Y;
unicode = 0059;
},
{
glyphname = Z;
lastChange = "2017-06-09 11:17:31 +0000";
layers = (
{
anchors = (
{
name = top;
position = "{563, 739}";
}
);
layerId = UUID0;
paths = (
{
closed = 1;
nodes = (
"907 635 OFFCURVE",
"899 640 OFFCURVE",
"892 640 CURVE SMOOTH",
"888 640 OFFCURVE",
"884 640 OFFCURVE",
"881 640 CURVE SMOOTH",
"663 646 OFFCURVE",
"424 724 OFFCURVE",
"285 724 CURVE SMOOTH",
"142 724 OFFCURVE",
"29 647 OFFCURVE",
"29 529 CURVE SMOOTH",
"29 445 OFFCURVE",
"85 372 OFFCURVE",
"199 372 CURVE SMOOTH",
"250 372 OFFCURVE",
"301 389 OFFCURVE",
"343 422 CURVE SMOOTH",
"348 425 OFFCURVE",
"350 431 OFFCURVE",
"350 437 CURVE SMOOTH",
"350 447 OFFCURVE",
"341 455 OFFCURVE",
"332 455 CURVE SMOOTH",
"328 455 OFFCURVE",
"324 453 OFFCURVE",
"320 451 CURVE SMOOTH",
"285 423 OFFCURVE",
"241 408 OFFCURVE",
"199 408 CURVE SMOOTH",
"111 408 OFFCURVE",
"66 463 OFFCURVE",
"66 529 CURVE SMOOTH",
"66 625 OFFCURVE",
"162 687 OFFCURVE",
"284 687 CURVE SMOOTH",
"402 687 OFFCURVE",
"630 619 OFFCURVE",
"839 604 CURVE",
"725 516 OFFCURVE",
"376 241 OFFCURVE",
"254 135 CURVE SMOOTH",
"201 88 OFFCURVE",
"171 59 OFFCURVE",
"150 37 CURVE SMOOTH",
"140 26 OFFCURVE",
"136 17 OFFCURVE",
"136 7 CURVE SMOOTH",
"136 -10 OFFCURVE",
"150 -18 OFFCURVE",
"166 -18 CURVE SMOOTH",
"175 -18 OFFCURVE",
"200 -13 OFFCURVE",
"219 -10 CURVE SMOOTH",
"284 -1 OFFCURVE",
"406 16 OFFCURVE",
"562 16 CURVE SMOOTH",
"650 16 OFFCURVE",
"751 10 OFFCURVE",
"867 -9 CURVE",
"869 -10 OFFCURVE",
"871 -10 OFFCURVE",
"871 -10 CURVE SMOOTH",
"881 -10 OFFCURVE",
"890 -1 OFFCURVE",
"890 10 CURVE SMOOTH",
"890 19 OFFCURVE",
"883 26 OFFCURVE",
"874 27 CURVE SMOOTH",
"757 46 OFFCURVE",
"653 53 OFFCURVE",
"562 53 CURVE SMOOTH",
"368 53 OFFCURVE",
"244 29 OFFCURVE",
"184 20 CURVE",
"252 98 OFFCURVE",
"650 413 OFFCURVE",
"903 607 CURVE SMOOTH",
"908 610 OFFCURVE",
"911 616 OFFCURVE",
"911 622 CURVE SMOOTH",
"911 624 OFFCURVE",
"910 626 OFFCURVE",
"910 628 CURVE SMOOTH"
);
}
);
width = 911;
}
);
leftKerningGroup = Z;
rightKerningGroup = Z;
unicode = 005A;
},
{
glyphname = a;
lastChange = "2017-06-09 11:17:31 +0000";
layers = (
{
anchors = (
{
name = top;
position = "{137, 285}";
}
);
layerId = UUID0;
paths = (
{
closed = 1;
nodes = (
"397 139 OFFCURVE",
"397 141 OFFCURVE",
"397 143 CURVE SMOOTH",
"397 152 OFFCURVE",
"390 162 OFFCURVE",
"379 162 CURVE SMOOTH",
"372 162 OFFCURVE",
"365 158 OFFCURVE",
"362 151 CURVE SMOOTH",
"345 113 OFFCURVE",
"298 28 OFFCURVE",
"251 28 CURVE SMOOTH",
"204 28 OFFCURVE",
"201 104 OFFCURVE",
"199 129 CURVE SMOOTH",
"199 138 OFFCURVE",
"191 146 OFFCURVE",
"182 146 CURVE SMOOTH",
"172 146 OFFCURVE",
"164 140 OFFCURVE",
"163 130 CURVE SMOOTH",
"154 63 OFFCURVE",
"113 32 OFFCURVE",
"89 32 CURVE SMOOTH",
"57 32 OFFCURVE",
"47 61 OFFCURVE",
"47 85 CURVE SMOOTH",
"47 165 OFFCURVE",
"103 201 OFFCURVE",
"144 201 CURVE SMOOTH",
"171 201 OFFCURVE",
"187 187 OFFCURVE",
"189 185 CURVE SMOOTH",
"193 181 OFFCURVE",
"198 179 OFFCURVE",
"203 179 CURVE SMOOTH",
"212 179 OFFCURVE",
"221 188 OFFCURVE",
"221 198 CURVE SMOOTH",
"221 203 OFFCURVE",
"219 207 OFFCURVE",
"215 211 CURVE SMOOTH",
"214 212 OFFCURVE",
"187 238 OFFCURVE",
"146 238 CURVE SMOOTH",
"86 238 OFFCURVE",
"10 185 OFFCURVE",
"10 83 CURVE SMOOTH",
"10 32 OFFCURVE",
"41 -5 OFFCURVE",
"89 -5 CURVE SMOOTH",
"119 -5 OFFCURVE",
"152 18 OFFCURVE",
"174 55 CURVE",
"186 19 OFFCURVE",
"212 -8 OFFCURVE",
"250 -8 CURVE SMOOTH",
"330 -8 OFFCURVE",
"388 120 OFFCURVE",
"396 136 CURVE SMOOTH"
);
}
);
width = 344;
}
);
leftKerningGroup = a;
unicode = 0061;
},
{
glyphname = b;
lastChange = "2017-06-09 11:17:31 +0000";
layers = (
{
layerId = UUID0;
paths = (
{
closed = 1;
nodes = (
"431 138 OFFCURVE",
"432 141 OFFCURVE",
"432 143 CURVE SMOOTH",
"432 153 OFFCURVE",
"424 162 OFFCURVE",
"414 162 CURVE SMOOTH",
"407 162 OFFCURVE",
"400 158 OFFCURVE",
"397 152 CURVE SMOOTH",
"380 117 OFFCURVE",
"342 63 OFFCURVE",
"312 63 CURVE SMOOTH",
"275 63 OFFCURVE",
"257 90 OFFCURVE",
"252 100 CURVE",
"253 108 OFFCURVE",
"253 116 OFFCURVE",
"253 124 CURVE SMOOTH",
"253 180 OFFCURVE",
"227 238 OFFCURVE",
"171 238 CURVE SMOOTH",
"139 238 OFFCURVE",
"110 211 OFFCURVE",
"110 173 CURVE SMOOTH",
"110 150 OFFCURVE",
"126 114 OFFCURVE",
"152 114 CURVE SMOOTH",
"161 114 OFFCURVE",
"170 122 OFFCURVE",
"170 132 CURVE SMOOTH",
"170 139 OFFCURVE",
"167 145 OFFCURVE",
"162 148 CURVE SMOOTH",
"151 156 OFFCURVE",
"147 165 OFFCURVE",
"147 174 CURVE SMOOTH",
"147 178 OFFCURVE",
"148 201 OFFCURVE",
"172 201 CURVE SMOOTH",
"203 201 OFFCURVE",
"217 161 OFFCURVE",
"217 124 CURVE SMOOTH",
"217 70 OFFCURVE",
"182 15 OFFCURVE",
"137 15 CURVE SMOOTH",
"93 15 OFFCURVE",
"70 72 OFFCURVE",
"62 136 CURVE",
"120 263 OFFCURVE",
"186 425 OFFCURVE",
"186 565 CURVE SMOOTH",
"186 653 OFFCURVE",
"159 712 OFFCURVE",
"111 712 CURVE SMOOTH",
"67 712 OFFCURVE",
"10 667 OFFCURVE",
"10 363 CURVE SMOOTH",
"10 205 OFFCURVE",
"16 -22 OFFCURVE",
"135 -22 CURVE SMOOTH",
"178 -22 OFFCURVE",
"219 11 OFFCURVE",
"240 56 CURVE",
"255 41 OFFCURVE",
"278 26 OFFCURVE",
"312 26 CURVE SMOOTH",
"375 26 OFFCURVE",
"425 125 OFFCURVE",
"430 135 CURVE SMOOTH"
);
},
{
closed = 1;
nodes = (
"50 228 OFFCURVE",
"47 296 OFFCURVE",
"47 355 CURVE SMOOTH",
"47 625 OFFCURVE",
"94 675 OFFCURVE",
"109 675 CURVE SMOOTH",
"141 675 OFFCURVE",
"148 612 OFFCURVE",
"148 565 CURVE SMOOTH",
"148 442 OFFCURVE",
"97 308 OFFCURVE",
"53 198 CURVE"
);
}
);
width = 378;
}
);
leftKerningGroup = b;
unicode = 0062;
},
{
glyphname = c;
lastChange = "2017-06-09 11:17:31 +0000";
layers = (
{
anchors = (
{
name = top;
position = "{125, 300}";
}
);
layerId = UUID0;
paths = (
{
closed = 1;
nodes = (
"339 138 OFFCURVE",
"340 141 OFFCURVE",
"340 143 CURVE SMOOTH",
"340 153 OFFCURVE",
"332 162 OFFCURVE",
"321 162 CURVE SMOOTH",
"314 162 OFFCURVE",
"307 158 OFFCURVE",
"305 152 CURVE SMOOTH",
"300 141 OFFCURVE",
"242 12 OFFCURVE",
"136 12 CURVE SMOOTH",
"82 12 OFFCURVE",
"56 60 OFFCURVE",
"56 113 CURVE SMOOTH",
"56 169 OFFCURVE",
"88 216 OFFCURVE",
"125 216 CURVE SMOOTH",
"144 216 OFFCURVE",
"158 203 OFFCURVE",
"158 189 CURVE SMOOTH",
"158 169 OFFCURVE",
"147 167 OFFCURVE",
"147 156 CURVE SMOOTH",
"147 146 OFFCURVE",
"155 138 OFFCURVE",
"166 138 CURVE SMOOTH",
"180 138 OFFCURVE",
"195 161 OFFCURVE",
"195 189 CURVE SMOOTH",
"195 219 OFFCURVE",
"167 253 OFFCURVE",
"125 253 CURVE SMOOTH",
"67 253 OFFCURVE",
"20 190 OFFCURVE",
"20 112 CURVE SMOOTH",
"20 32 OFFCURVE",
"62 -24 OFFCURVE",
"136 -24 CURVE SMOOTH",
"262 -24 OFFCURVE",
"327 113 OFFCURVE",
"338 135 CURVE SMOOTH"
);
}
);
width = 286;
}
);
leftKerningGroup = c;
unicode = 0063;
},
{
glyphname = d;
lastChange = "2017-06-09 11:17:31 +0000";
layers = (
{
layerId = UUID0;
paths = (
{
closed = 1;
nodes = (
"243 227 OFFCURVE",
"302 384 OFFCURVE",
"302 535 CURVE SMOOTH",
"302 605 OFFCURVE",
"285 654 OFFCURVE",
"242 654 CURVE SMOOTH",
"169 654 OFFCURVE",
"147 493 OFFCURVE",
"147 371 CURVE SMOOTH",
"147 279 OFFCURVE",
"158 203 OFFCURVE",
"169 146 CURVE",
"131 48 OFFCURVE",
"106 32 OFFCURVE",
"85 32 CURVE SMOOTH",
"60 32 OFFCURVE",
"46 51 OFFCURVE",
"46 83 CURVE SMOOTH",
"46 163 OFFCURVE",
"101 196 OFFCURVE",
"140 201 CURVE SMOOTH",
"150 202 OFFCURVE",
"156 210 OFFCURVE",
"156 219 CURVE SMOOTH",
"156 229 OFFCURVE",
"148 237 OFFCURVE",
"138 237 CURVE SMOOTH",
"79 237 OFFCURVE",
"10 174 OFFCURVE",
"10 84 CURVE SMOOTH",
"10 19 OFFCURVE",
"46 -5 OFFCURVE",
"85 -5 CURVE SMOOTH",
"122 -5 OFFCURVE",
"153 23 OFFCURVE",
"184 90 CURVE",
"207 21 OFFCURVE",
"237 -8 OFFCURVE",
"281 -8 CURVE SMOOTH",
"351 -8 OFFCURVE",
"403 104 OFFCURVE",
"417 137 CURVE SMOOTH",
"418 139 OFFCURVE",
"419 141 OFFCURVE",
"419 144 CURVE SMOOTH",
"419 153 OFFCURVE",
"411 162 OFFCURVE",
"400 162 CURVE SMOOTH",
"393 162 OFFCURVE",
"386 158 OFFCURVE",
"383 150 CURVE SMOOTH",
"365 108 OFFCURVE",
"324 29 OFFCURVE",
"277 29 CURVE SMOOTH",
"248 29 OFFCURVE",
"224 67 OFFCURVE",
"208 142 CURVE"
);
},
{
closed = 1;
nodes = (
"265 423 OFFCURVE",
"233 309 OFFCURVE",
"195 209 CURVE",
"189 253 OFFCURVE",
"184 314 OFFCURVE",
"184 372 CURVE SMOOTH",
"184 492 OFFCURVE",
"210 618 OFFCURVE",
"242 618 CURVE SMOOTH",
"262 618 OFFCURVE",
"265 568 OFFCURVE",
"265 536 CURVE SMOOTH"
);
}
);
width = 365;
}
);
leftKerningGroup = d;
unicode = 0064;
},
{
glyphname = e;
lastChange = "2017-06-09 11:17:31 +0000";
layers = (
{
anchors = (
{
name = top;
position = "{110, 288}";
}
);
layerId = UUID0;
paths = (
{
closed = 1;
nodes = (
"128 79 OFFCURVE",
"167 121 OFFCURVE",
"167 174 CURVE SMOOTH",
"167 215 OFFCURVE",
"136 240 OFFCURVE",
"105 240 CURVE SMOOTH",
"54 240 OFFCURVE",
"20 190 OFFCURVE",
"20 125 CURVE SMOOTH",
"20 58 OFFCURVE",
"57 -15 OFFCURVE",
"144 -15 CURVE",
"210 -14 OFFCURVE",
"263 38 OFFCURVE",
"307 136 CURVE SMOOTH",
"308 138 OFFCURVE",
"309 141 OFFCURVE",
"309 144 CURVE SMOOTH",
"309 152 OFFCURVE",
"301 162 OFFCURVE",
"291 162 CURVE SMOOTH",
"284 162 OFFCURVE",
"277 158 OFFCURVE",
"274 151 CURVE SMOOTH",
"247 90 OFFCURVE",
"207 22 OFFCURVE",
"143 22 CURVE SMOOTH",
"112 22 OFFCURVE",
"91 35 OFFCURVE",
"77 54 CURVE"
);
},
{
closed = 1;
nodes = (
"59 97 OFFCURVE",
"57 111 OFFCURVE",
"57 123 CURVE SMOOTH",
"57 161 OFFCURVE",
"71 204 OFFCURVE",
"105 204 CURVE SMOOTH",
"118 204 OFFCURVE",
"130 193 OFFCURVE",
"130 174 CURVE SMOOTH",
"130 139 OFFCURVE",
"104 103 OFFCURVE",
"62 85 CURVE"
);
}
);
width = 255;
}
);
leftKerningGroup = e;
unicode = 0065;
},
{
glyphname = f;
lastChange = "2017-06-09 11:17:31 +0000";
layers = (
{
layerId = UUID0;
paths = (
{
closed = 1;
nodes = (
"57 18 OFFCURVE",
"57 94 OFFCURVE",
"57 147 CURVE",
"129 276 OFFCURVE",
"187 411 OFFCURVE",
"187 570 CURVE SMOOTH",
"187 646 OFFCURVE",
"168 712 OFFCURVE",
"113 712 CURVE SMOOTH",
"43 712 OFFCURVE",
"27 582 OFFCURVE",
"23 358 CURVE SMOOTH",
"20 183 OFFCURVE",
"20 -69 OFFCURVE",
"20 -190 CURVE SMOOTH",
"20 -352 OFFCURVE",
"20 -475 OFFCURVE",
"99 -475 CURVE SMOOTH",
"152 -475 OFFCURVE",
"183 -410 OFFCURVE",
"183 -327 CURVE SMOOTH",
"183 -237 OFFCURVE",
"148 -126 OFFCURVE",
"79 -53 CURVE",
"188 -3 OFFCURVE",
"246 72 OFFCURVE",
"274 136 CURVE SMOOTH",
"275 139 OFFCURVE",
"276 141 OFFCURVE",
"276 144 CURVE SMOOTH",
"276 153 OFFCURVE",
"269 162 OFFCURVE",
"257 162 CURVE SMOOTH",
"250 162 OFFCURVE",
"244 158 OFFCURVE",
"241 151 CURVE SMOOTH",
"215 92 OFFCURVE",
"153 19 OFFCURVE",
"57 -24 CURVE"
);
},
{
closed = 1;
nodes = (
"59 283 OFFCURVE",
"60 305 OFFCURVE",
"61 357 CURVE SMOOTH",
"62 406 OFFCURVE",
"62 675 OFFCURVE",
"113 675 CURVE SMOOTH",
"138 675 OFFCURVE",
"150 634 OFFCURVE",
"150 572 CURVE SMOOTH",
"150 447 OFFCURVE",
"111 322 OFFCURVE",
"58 222 CURVE"
);
},
{
closed = 1;
nodes = (
"115 -148 OFFCURVE",
"146 -247 OFFCURVE",
"146 -327 CURVE SMOOTH",
"146 -357 OFFCURVE",
"138 -438 OFFCURVE",
"99 -438 CURVE SMOOTH",
"56 -438 OFFCURVE",
"56 -311 OFFCURVE",
"56 -190 CURVE SMOOTH",
"56 -161 OFFCURVE",
"57 -125 OFFCURVE",
"57 -84 CURVE"
);
}
);
width = 222;
}
);
leftKerningGroup = f;
unicode = 0066;
},
{
glyphname = g;
lastChange = "2017-06-09 11:17:31 +0000";
layers = (
{
anchors = (
{
name = top;
position = "{135, 285}";
}
);
layerId = UUID0;
paths = (
{
closed = 1;
nodes = (
"197 45 OFFCURVE",
"199 126 OFFCURVE",
"199 127 CURVE SMOOTH",
"199 137 OFFCURVE",
"192 146 OFFCURVE",
"182 146 CURVE SMOOTH",
"172 146 OFFCURVE",
"164 140 OFFCURVE",
"163 130 CURVE SMOOTH",
"154 63 OFFCURVE",
"115 32 OFFCURVE",
"88 32 CURVE SMOOTH",
"60 32 OFFCURVE",
"46 53 OFFCURVE",
"46 84 CURVE SMOOTH",
"46 167 OFFCURVE",
"108 201 OFFCURVE",
"147 201 CURVE SMOOTH",
"173 201 OFFCURVE",
"185 188 OFFCURVE",
"189 185 CURVE SMOOTH",
"193 181 OFFCURVE",
"198 179 OFFCURVE",
"203 179 CURVE SMOOTH",
"212 179 OFFCURVE",
"221 188 OFFCURVE",
"221 198 CURVE SMOOTH",
"221 203 OFFCURVE",
"219 207 OFFCURVE",
"215 211 CURVE SMOOTH",
"214 212 OFFCURVE",
"187 238 OFFCURVE",
"146 238 CURVE SMOOTH",
"86 238 OFFCURVE",
"10 185 OFFCURVE",
"10 83 CURVE SMOOTH",
"10 32 OFFCURVE",
"39 -5 OFFCURVE",
"85 -5 CURVE SMOOTH",
"111 -5 OFFCURVE",
"141 10 OFFCURVE",
"160 35 CURVE",
"159 -3 OFFCURVE",
"159 -50 OFFCURVE",
"158 -95 CURVE",
"79 -183 OFFCURVE",
"21 -335 OFFCURVE",
"21 -434 CURVE SMOOTH",
"21 -495 OFFCURVE",
"45 -529 OFFCURVE",
"88 -529 CURVE SMOOTH",
"180 -529 OFFCURVE",
"196 -384 OFFCURVE",
"196 -237 CURVE SMOOTH",
"196 -189 OFFCURVE",
"195 -149 OFFCURVE",
"195 -108 CURVE",
"276 -7 OFFCURVE",
"328 71 OFFCURVE",
"356 136 CURVE SMOOTH",
"357 139 OFFCURVE",
"358 141 OFFCURVE",
"358 143 CURVE SMOOTH",
"358 153 OFFCURVE",
"350 162 OFFCURVE",
"339 162 CURVE SMOOTH",
"332 162 OFFCURVE",
"326 158 OFFCURVE",
"323 151 CURVE SMOOTH",
"299 98 OFFCURVE",
"257 32 OFFCURVE",
"195 -48 CURVE"
);
},
{
closed = 1;
nodes = (
"159 -184 OFFCURVE",
"159 -212 OFFCURVE",
"159 -240 CURVE SMOOTH",
"159 -333 OFFCURVE",
"151 -493 OFFCURVE",
"89 -493 CURVE SMOOTH",
"77 -493 OFFCURVE",
"58 -485 OFFCURVE",
"58 -438 CURVE SMOOTH",
"58 -362 OFFCURVE",
"97 -239 OFFCURVE",
"158 -155 CURVE"
);
}
);
width = 304;
}
);
leftKerningGroup = g;
unicode = 0067;
},
{
glyphname = h;
lastChange = "2017-06-09 11:17:31 +0000";
layers = (
{
anchors = (
{
name = top;
position = "{115, 754}";
}
);
layerId = UUID0;
paths = (
{
closed = 1;
nodes = (
"57 64 LINE SMOOTH",
"56 82 OFFCURVE",
"57 126 OFFCURVE",
"57 150 CURVE",
"126 276 OFFCURVE",
"186 417 OFFCURVE",
"186 571 CURVE SMOOTH",
"186 647 OFFCURVE",
"167 712 OFFCURVE",
"111 712 CURVE SMOOTH",
"16 712 OFFCURVE",
"20 433 OFFCURVE",
"20 64 CURVE SMOOTH",
"20 33 LINE SMOOTH",
"20 11 OFFCURVE",
"31 -8 OFFCURVE",
"51 -8 CURVE SMOOTH",
"62 -8 OFFCURVE",
"77 0 OFFCURVE",
"91 27 CURVE SMOOTH",
"112 70 OFFCURVE",
"174 190 OFFCURVE",
"205 190 CURVE SMOOTH",
"212 190 OFFCURVE",
"219 185 OFFCURVE",
"219 165 CURVE SMOOTH",
"219 149 OFFCURVE",
"214 117 OFFCURVE",
"214 93 CURVE SMOOTH",
"214 48 OFFCURVE",
"225 -8 OFFCURVE",
"284 -8 CURVE SMOOTH",
"363 -8 OFFCURVE",
"421 121 OFFCURVE",
"428 136 CURVE SMOOTH",
"429 139 OFFCURVE",
"429 141 OFFCURVE",
"429 144 CURVE SMOOTH",
"429 152 OFFCURVE",
"422 162 OFFCURVE",
"411 162 CURVE SMOOTH",
"404 162 OFFCURVE",
"397 158 OFFCURVE",
"394 151 CURVE SMOOTH",
"379 117 OFFCURVE",
"330 29 OFFCURVE",
"283 29 CURVE SMOOTH",
"255 29 OFFCURVE",
"251 61 OFFCURVE",
"251 93 CURVE SMOOTH",
"251 120 OFFCURVE",
"255 147 OFFCURVE",
"255 162 CURVE SMOOTH",
"255 198 OFFCURVE",
"239 227 OFFCURVE",
"205 227 CURVE SMOOTH",
"188 227 OFFCURVE",
"168 218 OFFCURVE",
"149 195 CURVE SMOOTH",
"112 147 OFFCURVE",
"78 85 OFFCURVE",
"57 42 CURVE"
);
},
{
closed = 1;
nodes = (
"57 346 OFFCURVE",
"55 675 OFFCURVE",
"111 675 CURVE SMOOTH",
"147 675 OFFCURVE",
"149 593 OFFCURVE",
"149 572 CURVE SMOOTH",
"149 445 OFFCURVE",
"111 342 OFFCURVE",
"57 222 CURVE"
);
}
);
width = 375;
}
);
leftKerningGroup = h;
unicode = 0068;
},
{
glyphname = i;
lastChange = "2017-06-09 11:17:31 +0000";
layers = (
{
layerId = UUID0;
paths = (
{
closed = 1;
nodes = (
"98 408 OFFCURVE",
"78 428 OFFCURVE",
"54 428 CURVE SMOOTH",
"29 428 OFFCURVE",
"9 408 OFFCURVE",
"9 383 CURVE SMOOTH",
"9 359 OFFCURVE",
"29 339 OFFCURVE",
"54 339 CURVE SMOOTH",
"78 339 OFFCURVE",
"98 359 OFFCURVE",
"98 383 CURVE SMOOTH"
);
},
{
closed = 1;
nodes = (
"19 33 OFFCURVE",
"50 -20 OFFCURVE",
"108 -20 CURVE SMOOTH",
"177 -20 OFFCURVE",
"239 89 OFFCURVE",
"262 135 CURVE SMOOTH",
"263 138 OFFCURVE",
"264 141 OFFCURVE",
"264 144 CURVE SMOOTH",
"264 152 OFFCURVE",
"256 162 OFFCURVE",
"246 162 CURVE SMOOTH",
"239 162 OFFCURVE",
"232 158 OFFCURVE",
"229 152 CURVE SMOOTH",
"189 71 OFFCURVE",
"145 18 OFFCURVE",
"109 18 CURVE SMOOTH",
"87 18 OFFCURVE",
"56 30 OFFCURVE",
"56 99 CURVE SMOOTH",
"56 149 OFFCURVE",
"64 229 OFFCURVE",
"64 236 CURVE SMOOTH",
"64 246 OFFCURVE",
"57 254 OFFCURVE",
"47 254 CURVE SMOOTH",
"36 254 OFFCURVE",
"29 247 OFFCURVE",
"28 237 CURVE SMOOTH",
"22 191 OFFCURVE",
"19 144 OFFCURVE",
"19 97 CURVE SMOOTH"
);
},
{
closed = 1;
nodes = (
"71 374 OFFCURVE",
"63 367 OFFCURVE",
"54 367 CURVE SMOOTH",
"44 367 OFFCURVE",
"37 374 OFFCURVE",
"37 383 CURVE SMOOTH",
"37 393 OFFCURVE",
"44 400 OFFCURVE",
"54 400 CURVE SMOOTH",
"63 400 OFFCURVE",
"71 393 OFFCURVE",
"71 383 CURVE SMOOTH"
);
}
);
width = 210;
}
);
leftKerningGroup = i;
unicode = 0069;
},
{
glyphname = j;
lastChange = "2017-06-09 11:17:31 +0000";
layers = (
{
layerId = UUID0;
paths = (
{
closed = 1;
nodes = (
"103 408 OFFCURVE",
"83 428 OFFCURVE",
"58 428 CURVE SMOOTH",
"34 428 OFFCURVE",
"14 408 OFFCURVE",
"14 383 CURVE SMOOTH",
"14 359 OFFCURVE",
"34 339 OFFCURVE",
"58 339 CURVE SMOOTH",
"83 339 OFFCURVE",
"103 359 OFFCURVE",
"103 383 CURVE SMOOTH"
);
},
{
closed = 1;
nodes = (
"56 150 OFFCURVE",
"66 229 OFFCURVE",
"66 236 CURVE SMOOTH",
"66 246 OFFCURVE",
"58 254 OFFCURVE",
"48 254 CURVE SMOOTH",
"39 254 OFFCURVE",
"31 248 OFFCURVE",
"30 238 CURVE SMOOTH",
"22 170 OFFCURVE",
"19 55 OFFCURVE",
"19 -57 CURVE",
"-88 -173 OFFCURVE",
"-129 -288 OFFCURVE",
"-129 -368 CURVE SMOOTH",
"-129 -441 OFFCURVE",
"-96 -483 OFFCURVE",
"-47 -483 CURVE SMOOTH",
"22 -483 OFFCURVE",
"58 -398 OFFCURVE",
"58 -219 CURVE SMOOTH",
"58 -174 OFFCURVE",
"56 -123 OFFCURVE",
"56 -71 CURVE",
"108 -13 OFFCURVE",
"188 69 OFFCURVE",
"218 136 CURVE SMOOTH",
"219 139 OFFCURVE",
"220 141 OFFCURVE",
"220 144 CURVE SMOOTH",
"220 153 OFFCURVE",
"212 162 OFFCURVE",
"201 162 CURVE SMOOTH",
"194 162 OFFCURVE",
"187 158 OFFCURVE",
"185 151 CURVE SMOOTH",
"162 101 OFFCURVE",
"104 35 OFFCURVE",
"56 -17 CURVE"
);
},
{
closed = 1;
nodes = (
"75 374 OFFCURVE",
"67 367 OFFCURVE",
"58 367 CURVE SMOOTH",
"49 367 OFFCURVE",
"41 374 OFFCURVE",
"41 383 CURVE SMOOTH",
"41 393 OFFCURVE",
"49 400 OFFCURVE",
"58 400 CURVE SMOOTH",
"67 400 OFFCURVE",
"75 393 OFFCURVE",
"75 383 CURVE SMOOTH"
);
},
{
closed = 1;
nodes = (
"21 -427 OFFCURVE",
"-25 -447 OFFCURVE",
"-47 -447 CURVE SMOOTH",
"-83 -447 OFFCURVE",
"-93 -404 OFFCURVE",
"-93 -368 CURVE SMOOTH",
"-93 -304 OFFCURVE",
"-61 -210 OFFCURVE",
"20 -112 CURVE",
"20 -151 OFFCURVE",
"21 -184 OFFCURVE",
"21 -216 CURVE SMOOTH"
);
}
);
width = 166;
}
);
leftKerningGroup = j;
unicode = 006A;
},
{
glyphname = k;
lastChange = "2017-06-09 11:17:31 +0000";
layers = (
{
layerId = UUID0;
paths = (
{
closed = 1;
nodes = (
"200 78 OFFCURVE",
"257 117 OFFCURVE",
"257 176 CURVE SMOOTH",
"257 213 OFFCURVE",
"228 243 OFFCURVE",
"190 243 CURVE SMOOTH",
"122 243 OFFCURVE",
"79 152 OFFCURVE",
"58 85 CURVE",
"60 258 OFFCURVE",
"66 661 OFFCURVE",
"66 666 CURVE SMOOTH",
"66 676 OFFCURVE",
"58 684 OFFCURVE",
"48 684 CURVE SMOOTH",
"39 684 OFFCURVE",
"29 676 OFFCURVE",
"29 666 CURVE SMOOTH",
"29 640 OFFCURVE",
"20 28 OFFCURVE",
"20 9 CURVE SMOOTH",
"20 -11 OFFCURVE",
"31 -18 OFFCURVE",
"41 -18 CURVE SMOOTH",
"61 -18 OFFCURVE",
"66 4 OFFCURVE",
"70 19 CURVE SMOOTH",
"87 89 OFFCURVE",
"137 206 OFFCURVE",
"190 206 CURVE SMOOTH",
"207 206 OFFCURVE",
"220 194 OFFCURVE",
"220 176 CURVE SMOOTH",
"220 136 OFFCURVE",
"182 106 OFFCURVE",
"128 91 CURVE SMOOTH",
"109 85 OFFCURVE",
"107 69 OFFCURVE",
"107 64 CURVE SMOOTH",
"107 23 OFFCURVE",
"153 -17 OFFCURVE",
"212 -17 CURVE SMOOTH",
"286 -17 OFFCURVE",
"356 41 OFFCURVE",
"401 136 CURVE SMOOTH",
"402 138 OFFCURVE",
"403 141 OFFCURVE",
"403 144 CURVE SMOOTH",
"403 153 OFFCURVE",
"395 162 OFFCURVE",
"384 162 CURVE SMOOTH",
"377 162 OFFCURVE",
"371 158 OFFCURVE",
"368 151 CURVE SMOOTH",
"307 21 OFFCURVE",
"231 20 OFFCURVE",
"212 20 CURVE SMOOTH",
"180 20 OFFCURVE",
"152 35 OFFCURVE",
"142 60 CURVE"
);
}
);
width = 349;
}
);
leftKerningGroup = k;
unicode = 006B;
},
{
glyphname = l;
lastChange = "2017-06-09 11:17:31 +0000";
layers = (
{
layerId = UUID0;
paths = (
{
closed = 1;
nodes = (
"297 138 OFFCURVE",
"298 141 OFFCURVE",
"298 143 CURVE SMOOTH",
"298 153 OFFCURVE",
"291 162 OFFCURVE",
"280 162 CURVE SMOOTH",
"273 162 OFFCURVE",
"266 158 OFFCURVE",
"263 152 CURVE SMOOTH",
"247 117 OFFCURVE",
"200 22 OFFCURVE",
"148 22 CURVE SMOOTH",
"110 22 OFFCURVE",
"82 73 OFFCURVE",
"66 155 CURVE",
"139 288 OFFCURVE",
"197 438 OFFCURVE",
"197 568 CURVE SMOOTH",
"197 673 OFFCURVE",
"170 712 OFFCURVE",
"127 712 CURVE SMOOTH",
"46 712 OFFCURVE",
"15 499 OFFCURVE",
"15 334 CURVE SMOOTH",
"15 221 OFFCURVE",
"30 -15 OFFCURVE",
"146 -15 CURVE SMOOTH",
"222 -15 OFFCURVE",
"274 91 OFFCURVE",
"296 135 CURVE SMOOTH"
);
},
{
closed = 1;
nodes = (
"52 496 OFFCURVE",
"84 675 OFFCURVE",
"126 675 CURVE SMOOTH",
"147 675 OFFCURVE",
"160 645 OFFCURVE",
"160 568 CURVE SMOOTH",
"160 458 OFFCURVE",
"111 322 OFFCURVE",
"57 216 CURVE",
"54 251 OFFCURVE",
"52 290 OFFCURVE",
"52 332 CURVE SMOOTH"
);
}
);
width = 245;
}
);
leftKerningGroup = l;
unicode = 006C;
},
{
glyphname = m;
lastChange = "2017-06-09 11:17:31 +0000";
layers = (
{
layerId = UUID0;
paths = (
{
closed = 1;
nodes = (
"134 92 OFFCURVE",
"138 138 OFFCURVE",
"138 196 CURVE SMOOTH",
"138 222 OFFCURVE",
"129 252 OFFCURVE",
"99 252 CURVE SMOOTH",
"74 252 OFFCURVE",
"47 220 OFFCURVE",
"18 151 CURVE SMOOTH",
"17 148 OFFCURVE",
"17 146 OFFCURVE",
"17 144 CURVE SMOOTH",
"17 134 OFFCURVE",
"24 125 OFFCURVE",
"35 125 CURVE SMOOTH",
"42 125 OFFCURVE",
"49 129 OFFCURVE",
"52 136 CURVE SMOOTH",
"76 193 OFFCURVE",
"91 212 OFFCURVE",
"97 214 CURVE",
"100 211 OFFCURVE",
"102 195 OFFCURVE",
"102 179 CURVE SMOOTH",
"99 119 OFFCURVE",
"95 28 OFFCURVE",
"95 23 CURVE SMOOTH",
"95 5 OFFCURVE",
"104 -8 OFFCURVE",
"123 -8 CURVE SMOOTH",
"135 -8 OFFCURVE",
"149 0 OFFCURVE",
"163 28 CURVE SMOOTH",
"186 74 OFFCURVE",
"228 148 OFFCURVE",
"246 171 CURVE SMOOTH",
"257 187 OFFCURVE",
"266 190 OFFCURVE",
"273 190 CURVE SMOOTH",
"281 190 OFFCURVE",
"288 184 OFFCURVE",
"288 167 CURVE SMOOTH",
"288 143 OFFCURVE",
"282 46 OFFCURVE",
"282 17 CURVE SMOOTH",
"282 -2 OFFCURVE",
"291 -15 OFFCURVE",
"308 -15 CURVE SMOOTH",
"324 -15 OFFCURVE",
"332 -3 OFFCURVE",
"353 38 CURVE SMOOTH",
"393 114 OFFCURVE",
"430 190 OFFCURVE",
"461 190 CURVE SMOOTH",
"465 190 OFFCURVE",
"479 191 OFFCURVE",
"479 159 CURVE SMOOTH",
"479 144 OFFCURVE",
"475 115 OFFCURVE",
"475 83 CURVE SMOOTH",
"475 36 OFFCURVE",
"488 -8 OFFCURVE",
"545 -8 CURVE SMOOTH",
"625 -8 OFFCURVE",
"684 120 OFFCURVE",
"691 136 CURVE SMOOTH",
"692 139 OFFCURVE",
"693 141 OFFCURVE",
"693 143 CURVE SMOOTH",
"693 152 OFFCURVE",
"686 162 OFFCURVE",
"674 162 CURVE SMOOTH",
"667 162 OFFCURVE",
"661 158 OFFCURVE",
"658 151 CURVE SMOOTH",
"642 116 OFFCURVE",
"596 28 OFFCURVE",
"545 28 CURVE SMOOTH",
"514 28 OFFCURVE",
"511 56 OFFCURVE",
"511 84 CURVE SMOOTH",
"511 117 OFFCURVE",
"516 140 OFFCURVE",
"516 162 CURVE SMOOTH",
"516 191 OFFCURVE",
"505 227 OFFCURVE",
"461 227 CURVE SMOOTH",
"442 227 OFFCURVE",
"417 217 OFFCURVE",
"389 179 CURVE SMOOTH",
"370 152 OFFCURVE",
"339 92 OFFCURVE",
"319 53 CURVE",
"320 89 OFFCURVE",
"324 140 OFFCURVE",
"324 160 CURVE SMOOTH",
"324 196 OFFCURVE",
"310 227 OFFCURVE",
"276 227 CURVE SMOOTH",
"259 227 OFFCURVE",
"238 218 OFFCURVE",
"219 195 CURVE SMOOTH",
"196 167 OFFCURVE",
"151 83 OFFCURVE",
"131 43 CURVE"
);
}
);
width = 639;
}
);
leftKerningGroup = m;
unicode = 006D;
},
{
glyphname = n;
lastChange = "2017-06-09 11:17:31 +0000";
layers = (
{
anchors = (
{
name = top;
position = "{204, 299}";
}
);
layerId = UUID0;
paths = (
{
closed = 1;
nodes = (
"130 82 OFFCURVE",
"138 165 OFFCURVE",
"138 188 CURVE SMOOTH",
"138 219 OFFCURVE",
"128 252 OFFCURVE",
"98 252 CURVE SMOOTH",
"72 252 OFFCURVE",
"47 220 OFFCURVE",
"18 151 CURVE SMOOTH",
"17 148 OFFCURVE",
"17 146 OFFCURVE",
"17 144 CURVE SMOOTH",
"17 134 OFFCURVE",
"24 125 OFFCURVE",
"35 125 CURVE SMOOTH",
"42 125 OFFCURVE",
"49 129 OFFCURVE",
"52 136 CURVE SMOOTH",
"76 193 OFFCURVE",
"91 212 OFFCURVE",
"97 214 CURVE",
"101 211 OFFCURVE",
"102 193 OFFCURVE",
"102 177 CURVE SMOOTH",
"102 141 OFFCURVE",
"89 39 OFFCURVE",
"89 25 CURVE SMOOTH",
"89 4 OFFCURVE",
"102 -8 OFFCURVE",
"120 -8 CURVE SMOOTH",
"134 -8 OFFCURVE",
"146 0 OFFCURVE",
"160 27 CURVE SMOOTH",
"180 70 OFFCURVE",
"244 190 OFFCURVE",
"274 190 CURVE SMOOTH",
"279 190 OFFCURVE",
"288 185 OFFCURVE",
"288 164 CURVE SMOOTH",
"288 139 OFFCURVE",
"283 107 OFFCURVE",
"283 87 CURVE SMOOTH",
"283 42 OFFCURVE",
"294 -8 OFFCURVE",
"353 -8 CURVE SMOOTH",
"432 -8 OFFCURVE",
"490 121 OFFCURVE",
"497 136 CURVE SMOOTH",
"498 139 OFFCURVE",
"499 141 OFFCURVE",
"499 143 CURVE SMOOTH",
"499 152 OFFCURVE",
"491 162 OFFCURVE",
"480 162 CURVE SMOOTH",
"473 162 OFFCURVE",
"466 158 OFFCURVE",
"463 151 CURVE SMOOTH",
"448 117 OFFCURVE",
"402 29 OFFCURVE",
"352 29 CURVE SMOOTH",
"325 29 OFFCURVE",
"320 56 OFFCURVE",
"320 87 CURVE SMOOTH",
"320 112 OFFCURVE",
"324 146 OFFCURVE",
"324 163 CURVE SMOOTH",
"324 199 OFFCURVE",
"308 227 OFFCURVE",
"274 227 CURVE SMOOTH",
"257 227 OFFCURVE",
"237 218 OFFCURVE",
"219 195 CURVE SMOOTH",
"182 148 OFFCURVE",
"148 87 OFFCURVE",
"127 44 CURVE"
);
}
);
width = 445;
}
);
leftKerningGroup = n;
unicode = 006E;
},
{
glyphname = o;
lastChange = "2017-06-09 11:17:31 +0000";
layers = (
{
anchors = (
{
name = top;
position = "{147, 283}";
}
);
layerId = UUID0;
paths = (
{
closed = 1;
nodes = (
"305 53 OFFCURVE",
"342 87 OFFCURVE",
"364 126 CURVE SMOOTH",
"366 131 OFFCURVE",
"370 139 OFFCURVE",
"370 144 CURVE SMOOTH",
"370 154 OFFCURVE",
"360 162 OFFCURVE",
"352 162 CURVE SMOOTH",
"346 162 OFFCURVE",
"338 158 OFFCURVE",
"336 154 CURVE SMOOTH",
"315 110 OFFCURVE",
"291 90 OFFCURVE",
"247 90 CURVE SMOOTH",
"242 90 OFFCURVE",
"238 90 OFFCURVE",
"234 90 CURVE",
"237 101 OFFCURVE",
"238 112 OFFCURVE",
"238 123 CURVE SMOOTH",
"238 203 OFFCURVE",
"208 236 OFFCURVE",
"173 236 CURVE SMOOTH",
"144 236 OFFCURVE",
"124 209 OFFCURVE",
"124 173 CURVE SMOOTH",
"124 127 OFFCURVE",
"152 87 OFFCURVE",
"190 67 CURVE",
"177 41 OFFCURVE",
"153 21 OFFCURVE",
"116 21 CURVE SMOOTH",
"74 21 OFFCURVE",
"46 53 OFFCURVE",
"46 97 CURVE SMOOTH",
"46 146 OFFCURVE",
"76 174 OFFCURVE",
"97 184 CURVE SMOOTH",
"107 188 OFFCURVE",
"115 193 OFFCURVE",
"115 204 CURVE SMOOTH",
"115 214 OFFCURVE",
"109 220 OFFCURVE",
"98 220 CURVE SMOOTH",
"79 220 OFFCURVE",
"10 180 OFFCURVE",
"10 97 CURVE SMOOTH",
"10 32 OFFCURVE",
"54 -13 OFFCURVE",
"115 -13 CURVE SMOOTH",
"167 -13 OFFCURVE",
"203 17 OFFCURVE",
"222 56 CURVE",
"229 54 OFFCURVE",
"236 54 OFFCURVE",
"244 54 CURVE SMOOTH"
);
},
{
closed = 1;
nodes = (
"160 196 OFFCURVE",
"169 200 OFFCURVE",
"173 200 CURVE SMOOTH",
"192 200 OFFCURVE",
"202 158 OFFCURVE",
"202 123 CURVE SMOOTH",
"202 116 OFFCURVE",
"202 109 OFFCURVE",
"201 103 CURVE",
"173 120 OFFCURVE",
"160 152 OFFCURVE",
"160 177 CURVE SMOOTH"
);
}
);
width = 316;
}
);
leftKerningGroup = o;
unicode = 006F;
},
{
glyphname = p;
lastChange = "2017-06-09 11:17:31 +0000";
layers = (
{
layerId = UUID0;
paths = (
{
closed = 1;
nodes = (
"269 194 OFFCURVE",
"240 238 OFFCURVE",
"195 238 CURVE SMOOTH",
"148 238 OFFCURVE",
"121 186 OFFCURVE",
"90 135 CURVE",
"90 285 LINE SMOOTH",
"90 295 OFFCURVE",
"82 303 OFFCURVE",
"72 303 CURVE SMOOTH",
"62 303 OFFCURVE",
"54 294 OFFCURVE",
"54 285 CURVE SMOOTH",
"54 284 OFFCURVE",
"53 223 OFFCURVE",
"22 151 CURVE SMOOTH",
"21 148 OFFCURVE",
"21 146 OFFCURVE",
"21 144 CURVE SMOOTH",
"21 135 OFFCURVE",
"28 125 OFFCURVE",
"39 125 CURVE SMOOTH",
"44 125 OFFCURVE",
"50 128 OFFCURVE",
"54 132 CURVE",
"54 111 OFFCURVE",
"53 89 OFFCURVE",
"53 66 CURVE",
"-30 -97 OFFCURVE",
"-88 -286 OFFCURVE",
"-88 -397 CURVE SMOOTH",
"-88 -484 OFFCURVE",
"-49 -497 OFFCURVE",
"-27 -497 CURVE SMOOTH",
"80 -497 OFFCURVE",
"85 -258 OFFCURVE",
"90 58 CURVE",
"125 121 OFFCURVE",
"160 202 OFFCURVE",
"195 202 CURVE SMOOTH",
"210 202 OFFCURVE",
"232 184 OFFCURVE",
"232 136 CURVE SMOOTH",
"232 72 OFFCURVE",
"197 31 OFFCURVE",
"164 31 CURVE SMOOTH",
"146 31 OFFCURVE",
"135 52 OFFCURVE",
"135 52 CURVE",
"133 55 OFFCURVE",
"130 58 OFFCURVE",
"127 60 CURVE",
"127 60 OFFCURVE",
"127 60 OFFCURVE",
"126 60 CURVE SMOOTH",
"125 61 OFFCURVE",
"125 61 OFFCURVE",
"123 61 CURVE SMOOTH",
"123 61 OFFCURVE",
"122 62 OFFCURVE",
"122 62 CURVE SMOOTH",
"121 62 OFFCURVE",
"119 62 OFFCURVE",
"118 62 CURVE SMOOTH",
"117 62 LINE SMOOTH",
"112 62 OFFCURVE",
"109 60 OFFCURVE",
"106 57 CURVE SMOOTH",
"105 57 OFFCURVE",
"104 56 OFFCURVE",
"104 55 CURVE SMOOTH",
"101 52 OFFCURVE",
"100 48 OFFCURVE",
"100 43 CURVE SMOOTH",
"100 41 OFFCURVE",
"101 37 OFFCURVE",
"103 34 CURVE",
"103 34 OFFCURVE",
"103 33 OFFCURVE",
"104 32 CURVE SMOOTH",
"107 25 OFFCURVE",
"114 16 OFFCURVE",
"123 9 CURVE",
"148 -13 OFFCURVE",
"182 -24 OFFCURVE",
"216 -24 CURVE SMOOTH",
"312 -24 OFFCURVE",
"372 61 OFFCURVE",
"405 136 CURVE SMOOTH",
"406 139 OFFCURVE",
"407 141 OFFCURVE",
"407 144 CURVE SMOOTH",
"407 153 OFFCURVE",
"399 162 OFFCURVE",
"389 162 CURVE SMOOTH",
"382 162 OFFCURVE",
"375 158 OFFCURVE",
"372 151 CURVE SMOOTH",
"340 88 OFFCURVE",
"292 11 OFFCURVE",
"215 11 CURVE SMOOTH",
"213 11 LINE",
"245 33 OFFCURVE",
"269 77 OFFCURVE",
"269 136 CURVE SMOOTH"
);
},
{
closed = 1;
nodes = (
"48 -196 OFFCURVE",
"40 -460 OFFCURVE",
"-24 -460 CURVE SMOOTH",
"-48 -460 OFFCURVE",
"-52 -427 OFFCURVE",
"-52 -404 CURVE SMOOTH",
"-52 -315 OFFCURVE",
"-12 -164 OFFCURVE",
"52 -21 CURVE"
);
}
);
width = 353;
}
);
leftKerningGroup = p;
unicode = 0070;
},
{
glyphname = q;
lastChange = "2017-06-09 11:17:31 +0000";
layers = (
{
layerId = UUID0;
paths = (
{
closed = 1;
nodes = (
"201 51 OFFCURVE",
"208 139 OFFCURVE",
"208 142 CURVE SMOOTH",
"208 151 OFFCURVE",
"201 160 OFFCURVE",
"190 160 CURVE SMOOTH",
"181 160 OFFCURVE",
"173 153 OFFCURVE",
"172 144 CURVE SMOOTH",
"161 70 OFFCURVE",
"118 32 OFFCURVE",
"88 32 CURVE SMOOTH",
"60 32 OFFCURVE",
"46 54 OFFCURVE",
"46 84 CURVE SMOOTH",
"46 167 OFFCURVE",
"108 201 OFFCURVE",
"147 201 CURVE SMOOTH",
"172 201 OFFCURVE",
"183 189 OFFCURVE",
"189 185 CURVE SMOOTH",
"193 182 OFFCURVE",
"196 179 OFFCURVE",
"202 179 CURVE SMOOTH",
"213 179 OFFCURVE",
"221 188 OFFCURVE",
"221 198 CURVE SMOOTH",
"221 203 OFFCURVE",
"219 208 OFFCURVE",
"215 211 CURVE SMOOTH",
"214 212 OFFCURVE",
"187 238 OFFCURVE",
"146 238 CURVE SMOOTH",
"86 238 OFFCURVE",
"10 185 OFFCURVE",
"10 83 CURVE SMOOTH",
"10 33 OFFCURVE",
"40 -5 OFFCURVE",
"87 -5 CURVE SMOOTH",
"118 -5 OFFCURVE",
"144 13 OFFCURVE",
"165 43 CURVE",
"159 -41 OFFCURVE",
"154 -160 OFFCURVE",
"154 -269 CURVE SMOOTH",
"154 -435 OFFCURVE",
"161 -526 OFFCURVE",
"232 -526 CURVE SMOOTH",
"256 -526 OFFCURVE",
"307 -510 OFFCURVE",
"307 -397 CURVE SMOOTH",
"307 -296 OFFCURVE",
"264 -159 OFFCURVE",
"208 -94 CURVE",
"271 -14 OFFCURVE",
"328 73 OFFCURVE",
"356 136 CURVE SMOOTH",
"357 139 OFFCURVE",
"358 141 OFFCURVE",
"358 143 CURVE SMOOTH",
"358 153 OFFCURVE",
"350 162 OFFCURVE",
"339 162 CURVE SMOOTH",
"332 162 OFFCURVE",
"326 158 OFFCURVE",
"323 151 CURVE SMOOTH",
"298 96 OFFCURVE",
"250 21 OFFCURVE",
"195 -50 CURVE"
);
},
{
closed = 1;
nodes = (
"235 -191 OFFCURVE",
"270 -308 OFFCURVE",
"270 -395 CURVE SMOOTH",
"270 -421 OFFCURVE",
"266 -489 OFFCURVE",
"232 -489 CURVE SMOOTH",
"190 -489 OFFCURVE",
"191 -357 OFFCURVE",
"191 -190 CURVE SMOOTH",
"191 -172 OFFCURVE",
"191 -153 OFFCURVE",
"192 -133 CURVE"
);
}
);
width = 304;
}
);
unicode = 0071;
},
{
glyphname = r;
lastChange = "2017-06-09 11:17:31 +0000";
layers = (
{
layerId = UUID0;
paths = (
{
closed = 1;
nodes = (
"82 201 OFFCURVE",
"93 201 OFFCURVE",
"102 201 CURVE SMOOTH",
"121 201 OFFCURVE",
"125 195 OFFCURVE",
"125 183 CURVE SMOOTH",
"125 154 OFFCURVE",
"115 120 OFFCURVE",
"115 88 CURVE SMOOTH",
"115 26 OFFCURVE",
"153 -10 OFFCURVE",
"200 -10 CURVE SMOOTH",
"276 -10 OFFCURVE",
"326 81 OFFCURVE",
"355 135 CURVE SMOOTH",
"356 138 OFFCURVE",
"357 141 OFFCURVE",
"357 144 CURVE SMOOTH",
"357 152 OFFCURVE",
"350 162 OFFCURVE",
"338 162 CURVE SMOOTH",
"332 162 OFFCURVE",
"325 158 OFFCURVE",
"322 152 CURVE SMOOTH",
"300 110 OFFCURVE",
"256 27 OFFCURVE",
"200 27 CURVE SMOOTH",
"181 27 OFFCURVE",
"152 40 OFFCURVE",
"152 87 CURVE SMOOTH",
"152 119 OFFCURVE",
"162 157 OFFCURVE",
"162 186 CURVE SMOOTH",
"162 223 OFFCURVE",
"142 238 OFFCURVE",
"104 238 CURVE SMOOTH",
"95 238 OFFCURVE",
"84 238 OFFCURVE",
"73 238 CURVE",
"72 264 OFFCURVE",
"66 314 OFFCURVE",
"36 314 CURVE SMOOTH",
"10 314 OFFCURVE",
"-18 252 OFFCURVE",
"-18 230 CURVE SMOOTH",
"-18 200 OFFCURVE",
"11 200 OFFCURVE",
"33 200 CURVE",
"21 143 OFFCURVE",
"17 151 OFFCURVE",
"17 143 CURVE SMOOTH",
"17 133 OFFCURVE",
"26 125 OFFCURVE",
"35 125 CURVE SMOOTH",
"42 125 OFFCURVE",
"49 129 OFFCURVE",
"52 136 CURVE SMOOTH",
"53 138 OFFCURVE",
"64 166 OFFCURVE",
"70 201 CURVE"
);
},
{
closed = 1;
nodes = (
"32 237 OFFCURVE",
"21 237 OFFCURVE",
"16 237 CURVE",
"18 248 OFFCURVE",
"27 270 OFFCURVE",
"31 270 CURVE SMOOTH",
"36 270 OFFCURVE",
"37 246 OFFCURVE",
"37 237 CURVE"
);
}
);
width = 303;
}
);
leftKerningGroup = r;
unicode = 0072;
},
{
glyphname = s;
lastChange = "2017-06-09 11:17:31 +0000";
layers = (
{
anchors = (
{
name = top;
position = "{67, 347}";
}
);
layerId = UUID0;
paths = (
{
closed = 1;
nodes = (
"89 143 OFFCURVE",
"113 113 OFFCURVE",
"113 80 CURVE SMOOTH",
"113 63 OFFCURVE",
"102 34 OFFCURVE",
"71 34 CURVE SMOOTH",
"55 34 OFFCURVE",
"41 46 OFFCURVE",
"39 48 CURVE SMOOTH",
"36 52 OFFCURVE",
"31 54 OFFCURVE",
"26 54 CURVE SMOOTH",
"16 54 OFFCURVE",
"7 45 OFFCURVE",
"7 35 CURVE SMOOTH",
"7 32 OFFCURVE",
"8 29 OFFCURVE",
"10 26 CURVE SMOOTH",
"34 -9 OFFCURVE",
"73 -23 OFFCURVE",
"117 -23 CURVE SMOOTH",
"226 -23 OFFCURVE",
"285 83 OFFCURVE",
"306 136 CURVE SMOOTH",
"307 139 OFFCURVE",
"308 141 OFFCURVE",
"308 144 CURVE SMOOTH",
"308 152 OFFCURVE",
"301 162 OFFCURVE",
"290 162 CURVE SMOOTH",
"284 162 OFFCURVE",
"279 158 OFFCURVE",
"276 151 CURVE SMOOTH",
"248 86 OFFCURVE",
"199 11 OFFCURVE",
"124 11 CURVE SMOOTH",
"121 11 OFFCURVE",
"118 11 OFFCURVE",
"114 12 CURVE",
"140 29 OFFCURVE",
"150 55 OFFCURVE",
"150 82 CURVE SMOOTH",
"150 124 OFFCURVE",
"117 162 OFFCURVE",
"87 235 CURVE",
"91 251 OFFCURVE",
"93 260 OFFCURVE",
"93 271 CURVE SMOOTH",
"93 289 OFFCURVE",
"83 304 OFFCURVE",
"68 304 CURVE SMOOTH",
"52 304 OFFCURVE",
"42 290 OFFCURVE",
"42 268 CURVE SMOOTH",
"42 257 OFFCURVE",
"44 248 OFFCURVE",
"49 233 CURVE",
"44 207 OFFCURVE",
"37 184 OFFCURVE",
"20 152 CURVE SMOOTH",
"18 147 OFFCURVE",
"17 146 OFFCURVE",
"17 142 CURVE SMOOTH",
"17 133 OFFCURVE",
"24 125 OFFCURVE",
"35 125 CURVE SMOOTH",
"45 125 OFFCURVE",
"50 132 OFFCURVE",
"56 143 CURVE SMOOTH",
"63 157 OFFCURVE",
"69 170 OFFCURVE",
"73 181 CURVE"
);
}
);
width = 254;
}
);
leftKerningGroup = s;
unicode = 0073;
},
{
glyphname = t;
lastChange = "2017-06-09 11:17:31 +0000";
layers = (
{
layerId = UUID0;
paths = (
{
closed = 1;
nodes = (
"414 499 OFFCURVE",
"406 506 OFFCURVE",
"396 506 CURVE SMOOTH",
"146 506 LINE",
"141 552 OFFCURVE",
"126 586 OFFCURVE",
"94 586 CURVE SMOOTH",
"60 586 OFFCURVE",
"39 552 OFFCURVE",
"25 506 CURVE",
"-159 506 LINE SMOOTH",
"-169 506 OFFCURVE",
"-177 499 OFFCURVE",
"-177 489 CURVE SMOOTH",
"-177 479 OFFCURVE",
"-169 472 OFFCURVE",
"-159 472 CURVE SMOOTH",
"17 472 LINE",
"3 407 OFFCURVE",
"2 331 OFFCURVE",
"2 288 CURVE SMOOTH",
"2 116 OFFCURVE",
"56 -8 OFFCURVE",
"146 -8 CURVE SMOOTH",
"223 -8 OFFCURVE",
"278 122 OFFCURVE",
"284 137 CURVE SMOOTH",
"285 139 OFFCURVE",
"286 141 OFFCURVE",
"286 144 CURVE SMOOTH",
"286 153 OFFCURVE",
"278 162 OFFCURVE",
"267 162 CURVE SMOOTH",
"260 162 OFFCURVE",
"253 158 OFFCURVE",
"250 150 CURVE SMOOTH",
"237 118 OFFCURVE",
"189 29 OFFCURVE",
"144 29 CURVE SMOOTH",
"105 29 OFFCURVE",
"75 76 OFFCURVE",
"58 136 CURVE",
"89 174 OFFCURVE",
"148 346 OFFCURVE",
"148 466 CURVE SMOOTH",
"148 472 LINE",
"396 472 LINE SMOOTH",
"406 472 OFFCURVE",
"414 479 OFFCURVE",
"414 489 CURVE SMOOTH"
);
},
{
closed = 1;
nodes = (
"41 210 OFFCURVE",
"39 241 OFFCURVE",
"39 288 CURVE SMOOTH",
"39 373 OFFCURVE",
"45 432 OFFCURVE",
"54 472 CURVE",
"111 472 LINE",
"111 389 OFFCURVE",
"86 271 OFFCURVE",
"46 185 CURVE"
);
},
{
closed = 1;
nodes = (
"100 550 OFFCURVE",
"106 533 OFFCURVE",
"109 506 CURVE",
"62 506 LINE",
"74 539 OFFCURVE",
"86 550 OFFCURVE",
"92 550 CURVE SMOOTH"
);
}
);
width = 233;
}
);
leftKerningGroup = t;
rightKerningGroup = t;
unicode = 0074;
},
{
glyphname = u;
lastChange = "2017-06-09 11:17:31 +0000";
layers = (
{
anchors = (
{
name = top;
position = "{145, 285}";
}
);
layerId = UUID0;
paths = (
{
closed = 1;
nodes = (
"193 15 OFFCURVE",
"219 -8 OFFCURVE",
"257 -8 CURVE SMOOTH",
"340 -8 OFFCURVE",
"396 120 OFFCURVE",
"402 136 CURVE SMOOTH",
"403 139 OFFCURVE",
"404 141 OFFCURVE",
"404 144 CURVE SMOOTH",
"404 152 OFFCURVE",
"397 162 OFFCURVE",
"385 162 CURVE SMOOTH",
"378 162 OFFCURVE",
"372 158 OFFCURVE",
"369 151 CURVE SMOOTH",
"354 116 OFFCURVE",
"310 28 OFFCURVE",
"258 28 CURVE SMOOTH",
"211 28 OFFCURVE",
"204 100 OFFCURVE",
"206 127 CURVE SMOOTH",
"212 208 LINE",
"212 218 OFFCURVE",
"206 228 OFFCURVE",
"194 228 CURVE SMOOTH",
"185 228 OFFCURVE",
"176 221 OFFCURVE",
"175 211 CURVE SMOOTH",
"168 127 LINE SMOOTH",
"162 62 OFFCURVE",
"118 32 OFFCURVE",
"95 32 CURVE SMOOTH",
"67 32 OFFCURVE",
"51 52 OFFCURVE",
"51 90 CURVE SMOOTH",
"51 158 OFFCURVE",
"79 196 OFFCURVE",
"85 207 CURVE SMOOTH",
"87 211 OFFCURVE",
"89 215 OFFCURVE",
"89 219 CURVE SMOOTH",
"89 229 OFFCURVE",
"81 237 OFFCURVE",
"71 237 CURVE SMOOTH",
"66 237 OFFCURVE",
"61 235 OFFCURVE",
"57 231 CURVE SMOOTH",
"57 231 OFFCURVE",
"15 182 OFFCURVE",
"15 90 CURVE SMOOTH",
"15 32 OFFCURVE",
"46 -5 OFFCURVE",
"95 -5 CURVE SMOOTH",
"125 -5 OFFCURVE",
"158 18 OFFCURVE",
"181 55 CURVE"
);
}
);
width = 350;
}
);
leftKerningGroup = u;
unicode = 0075;
},
{
glyphname = v;
lastChange = "2017-06-09 11:17:31 +0000";
layers = (
{
layerId = UUID0;
paths = (
{
closed = 1;
nodes = (
"235 122 OFFCURVE",
"268 86 OFFCURVE",
"313 86 CURVE SMOOTH",
"353 86 OFFCURVE",
"376 118 OFFCURVE",
"383 137 CURVE SMOOTH",
"384 139 OFFCURVE",
"385 141 OFFCURVE",
"385 144 CURVE SMOOTH",
"385 153 OFFCURVE",
"376 162 OFFCURVE",
"366 162 CURVE SMOOTH",
"358 162 OFFCURVE",
"352 157 OFFCURVE",
"349 150 CURVE SMOOTH",
"349 149 OFFCURVE",
"338 124 OFFCURVE",
"313 124 CURVE SMOOTH",
"246 124 OFFCURVE",
"222 242 OFFCURVE",
"222 239 CURVE",
"220 248 OFFCURVE",
"212 254 OFFCURVE",
"204 254 CURVE SMOOTH",
"193 254 OFFCURVE",
"186 245 OFFCURVE",
"186 234 CURVE SMOOTH",
"186 228 OFFCURVE",
"186 222 OFFCURVE",
"186 215 CURVE SMOOTH",
"186 120 OFFCURVE",
"124 28 OFFCURVE",
"107 28 CURVE",
"91 28 OFFCURVE",
"55 84 OFFCURVE",
"55 161 CURVE SMOOTH",
"55 193 OFFCURVE",
"63 210 OFFCURVE",
"63 211 CURVE SMOOTH",
"65 213 OFFCURVE",
"65 216 OFFCURVE",
"65 219 CURVE SMOOTH",
"65 229 OFFCURVE",
"58 237 OFFCURVE",
"47 237 CURVE SMOOTH",
"41 237 OFFCURVE",
"34 234 OFFCURVE",
"31 228 CURVE SMOOTH",
"29 225 OFFCURVE",
"19 203 OFFCURVE",
"19 160 CURVE SMOOTH",
"19 62 OFFCURVE",
"75 -10 OFFCURVE",
"108 -10 CURVE",
"139 -7 OFFCURVE",
"196 62 OFFCURVE",
"216 154 CURVE"
);
}
);
width = 331;
}
);
leftKerningGroup = v;
unicode = 0076;
},
{
glyphname = w;
lastChange = "2017-06-09 11:17:31 +0000";
layers = (
{
anchors = (
{
name = top;
position = "{201, 276}";
}
);
layerId = UUID0;
paths = (
{
closed = 1;
nodes = (
"380 110 OFFCURVE",
"408 86 OFFCURVE",
"445 86 CURVE SMOOTH",
"489 86 OFFCURVE",
"517 127 OFFCURVE",
"517 143 CURVE SMOOTH",
"517 152 OFFCURVE",
"510 162 OFFCURVE",
"499 162 CURVE SMOOTH",
"491 162 OFFCURVE",
"484 157 OFFCURVE",
"481 150 CURVE SMOOTH",
"480 147 OFFCURVE",
"470 124 OFFCURVE",
"445 124 CURVE SMOOTH",
"379 124 OFFCURVE",
"356 231 OFFCURVE",
"354 239 CURVE SMOOTH",
"353 248 OFFCURVE",
"345 254 OFFCURVE",
"336 254 CURVE SMOOTH",
"326 254 OFFCURVE",
"318 246 OFFCURVE",
"318 236 CURVE SMOOTH",
"318 227 OFFCURVE",
"325 198 OFFCURVE",
"325 157 CURVE SMOOTH",
"325 89 OFFCURVE",
"309 29 OFFCURVE",
"262 29 CURVE SMOOTH",
"227 29 OFFCURVE",
"203 59 OFFCURVE",
"208 127 CURVE SMOOTH",
"213 208 LINE",
"213 218 OFFCURVE",
"206 228 OFFCURVE",
"195 228 CURVE SMOOTH",
"185 228 OFFCURVE",
"176 221 OFFCURVE",
"176 211 CURVE SMOOTH",
"169 127 LINE SMOOTH",
"165 62 OFFCURVE",
"124 32 OFFCURVE",
"96 32 CURVE SMOOTH",
"68 32 OFFCURVE",
"51 52 OFFCURVE",
"51 90 CURVE SMOOTH",
"51 164 OFFCURVE",
"80 199 OFFCURVE",
"85 207 CURVE SMOOTH",
"88 211 OFFCURVE",
"89 215 OFFCURVE",
"89 219 CURVE SMOOTH",
"89 229 OFFCURVE",
"82 237 OFFCURVE",
"71 237 CURVE SMOOTH",
"66 237 OFFCURVE",
"61 235 OFFCURVE",
"58 231 CURVE SMOOTH",
"57 231 OFFCURVE",
"15 188 OFFCURVE",
"15 90 CURVE SMOOTH",
"15 32 OFFCURVE",
"47 -5 OFFCURVE",
"96 -5 CURVE SMOOTH",
"126 -5 OFFCURVE",
"159 16 OFFCURVE",
"182 54 CURVE",
"193 21 OFFCURVE",
"216 -8 OFFCURVE",
"261 -8 CURVE SMOOTH",
"334 -8 OFFCURVE",
"357 68 OFFCURVE",
"361 136 CURVE"
);
}
);
width = 463;
}
);
leftKerningGroup = w;
unicode = 0077;
},
{
glyphname = x;
lastChange = "2017-06-09 11:17:31 +0000";
layers = (
{
layerId = UUID0;
paths = (
{
closed = 1;
nodes = (
"312 280 OFFCURVE",
"314 284 OFFCURVE",
"314 288 CURVE SMOOTH",
"314 298 OFFCURVE",
"306 306 OFFCURVE",
"295 306 CURVE SMOOTH",
"290 306 OFFCURVE",
"285 304 OFFCURVE",
"281 300 CURVE SMOOTH",
"234 242 OFFCURVE",
"191 181 OFFCURVE",
"152 118 CURVE",
"125 173 OFFCURVE",
"110 237 OFFCURVE",
"108 255 CURVE SMOOTH",
"107 265 OFFCURVE",
"100 273 OFFCURVE",
"90 273 CURVE SMOOTH",
"83 273 OFFCURVE",
"76 269 OFFCURVE",
"73 263 CURVE SMOOTH",
"20 151 LINE SMOOTH",
"19 149 OFFCURVE",
"18 146 OFFCURVE",
"18 144 CURVE SMOOTH",
"18 134 OFFCURVE",
"26 125 OFFCURVE",
"37 125 CURVE SMOOTH",
"43 125 OFFCURVE",
"50 129 OFFCURVE",
"53 136 CURVE SMOOTH",
"82 195 LINE",
"91 161 OFFCURVE",
"107 118 OFFCURVE",
"129 80 CURVE",
"114 55 OFFCURVE",
"101 30 OFFCURVE",
"87 4 CURVE SMOOTH",
"86 1 OFFCURVE",
"85 -1 OFFCURVE",
"85 -4 CURVE SMOOTH",
"85 -14 OFFCURVE",
"93 -23 OFFCURVE",
"104 -23 CURVE SMOOTH",
"110 -23 OFFCURVE",
"117 -19 OFFCURVE",
"120 -13 CURVE SMOOTH",
"130 7 OFFCURVE",
"141 26 OFFCURVE",
"152 46 CURVE",
"179 11 OFFCURVE",
"213 -15 OFFCURVE",
"256 -15 CURVE SMOOTH",
"359 -15 OFFCURVE",
"422 142 OFFCURVE",
"420 137 CURVE SMOOTH",
"421 139 OFFCURVE",
"421 142 OFFCURVE",
"421 144 CURVE SMOOTH",
"421 153 OFFCURVE",
"414 162 OFFCURVE",
"403 162 CURVE SMOOTH",
"396 162 OFFCURVE",
"389 157 OFFCURVE",
"386 150 CURVE SMOOTH",
"367 102 OFFCURVE",
"318 22 OFFCURVE",
"256 22 CURVE SMOOTH",
"222 22 OFFCURVE",
"195 47 OFFCURVE",
"172 81 CURVE",
"213 149 OFFCURVE",
"259 214 OFFCURVE",
"310 276 CURVE SMOOTH"
);
}
);
width = 368;
}
);
leftKerningGroup = x;
unicode = 0078;
},
{
glyphname = y;
lastChange = "2017-06-09 11:17:31 +0000";
layers = (
{
anchors = (
{
name = top;
position = "{148, 279}";
}
);
layerId = UUID0;
paths = (
{
closed = 1;
nodes = (
"206 99 OFFCURVE",
"217 185 OFFCURVE",
"217 188 CURVE SMOOTH",
"217 199 OFFCURVE",
"209 207 OFFCURVE",
"199 207 CURVE SMOOTH",
"190 207 OFFCURVE",
"183 201 OFFCURVE",
"181 192 CURVE SMOOTH",
"160 88 OFFCURVE",
"129 31 OFFCURVE",
"93 31 CURVE SMOOTH",
"63 31 OFFCURVE",
"51 53 OFFCURVE",
"51 88 CURVE SMOOTH",
"51 160 OFFCURVE",
"84 210 OFFCURVE",
"83 209 CURVE SMOOTH",
"85 212 OFFCURVE",
"86 215 OFFCURVE",
"86 219 CURVE SMOOTH",
"86 229 OFFCURVE",
"79 237 OFFCURVE",
"68 237 CURVE SMOOTH",
"62 237 OFFCURVE",
"56 234 OFFCURVE",
"53 229 CURVE SMOOTH",
"53 230 OFFCURVE",
"15 173 OFFCURVE",
"15 88 CURVE SMOOTH",
"15 30 OFFCURVE",
"44 -5 OFFCURVE",
"94 -5 CURVE SMOOTH",
"124 -5 OFFCURVE",
"149 15 OFFCURVE",
"167 44 CURVE",
"165 16 OFFCURVE",
"163 -20 OFFCURVE",
"162 -51 CURVE",
"91 -133 OFFCURVE",
"25 -277 OFFCURVE",
"25 -370 CURVE SMOOTH",
"25 -427 OFFCURVE",
"51 -461 OFFCURVE",
"97 -461 CURVE SMOOTH",
"180 -461 OFFCURVE",
"200 -327 OFFCURVE",
"200 -203 CURVE SMOOTH",
"200 -152 OFFCURVE",
"196 -108 OFFCURVE",
"198 -63 CURVE",
"251 -2 OFFCURVE",
"319 51 OFFCURVE",
"359 136 CURVE SMOOTH",
"360 138 OFFCURVE",
"361 141 OFFCURVE",
"361 143 CURVE SMOOTH",
"361 153 OFFCURVE",
"353 162 OFFCURVE",
"342 162 CURVE SMOOTH",
"335 162 OFFCURVE",
"329 158 OFFCURVE",
"326 151 CURVE SMOOTH",
"296 87 OFFCURVE",
"246 39 OFFCURVE",
"200 -7 CURVE"
);
},
{
closed = 1;
nodes = (
"162 -143 OFFCURVE",
"163 -171 OFFCURVE",
"163 -199 CURVE SMOOTH",
"163 -337 OFFCURVE",
"139 -424 OFFCURVE",
"96 -424 CURVE SMOOTH",
"72 -424 OFFCURVE",
"62 -404 OFFCURVE",
"62 -370 CURVE SMOOTH",
"62 -304 OFFCURVE",
"103 -195 OFFCURVE",
"161 -110 CURVE"
);
}
);
width = 307;
}
);
leftKerningGroup = y;
unicode = 0079;
},
{
glyphname = z;
lastChange = "2017-06-09 11:17:31 +0000";
layers = (
{
anchors = (
{
name = top;
position = "{169, 323}";
}
);
layerId = UUID0;
paths = (
{
closed = 1;
nodes = (
"301 -19 OFFCURVE",
"382 71 OFFCURVE",
"411 136 CURVE SMOOTH",
"412 139 OFFCURVE",
"413 141 OFFCURVE",
"413 144 CURVE SMOOTH",
"413 153 OFFCURVE",
"405 162 OFFCURVE",
"394 162 CURVE SMOOTH",
"387 162 OFFCURVE",
"380 158 OFFCURVE",
"377 151 CURVE SMOOTH",
"354 99 OFFCURVE",
"292 29 OFFCURVE",
"242 -24 CURVE",
"237 11 OFFCURVE",
"228 55 OFFCURVE",
"193 71 CURVE",
"222 105 OFFCURVE",
"249 145 OFFCURVE",
"249 190 CURVE SMOOTH",
"249 244 OFFCURVE",
"209 276 OFFCURVE",
"165 276 CURVE SMOOTH",
"110 276 OFFCURVE",
"58 229 OFFCURVE",
"20 151 CURVE SMOOTH",
"18 149 OFFCURVE",
"18 146 OFFCURVE",
"18 144 CURVE SMOOTH",
"18 134 OFFCURVE",
"25 125 OFFCURVE",
"36 125 CURVE SMOOTH",
"43 125 OFFCURVE",
"49 129 OFFCURVE",
"53 136 CURVE SMOOTH",
"83 200 OFFCURVE",
"125 239 OFFCURVE",
"164 239 CURVE SMOOTH",
"192 239 OFFCURVE",
"212 220 OFFCURVE",
"212 190 CURVE SMOOTH",
"212 157 OFFCURVE",
"187 118 OFFCURVE",
"144 72 CURVE",
"98 63 OFFCURVE",
"82 34 OFFCURVE",
"82 22 CURVE SMOOTH",
"82 6 OFFCURVE",
"95 0 OFFCURVE",
"105 0 CURVE SMOOTH",
"112 0 OFFCURVE",
"133 3 OFFCURVE",
"162 38 CURVE",
"164 39 OFFCURVE",
"167 39 OFFCURVE",
"169 39 CURVE SMOOTH",
"193 39 OFFCURVE",
"204 -2 OFFCURVE",
"209 -59 CURVE",
"106 -173 OFFCURVE",
"72 -269 OFFCURVE",
"72 -349 CURVE SMOOTH",
"72 -401 OFFCURVE",
"102 -437 OFFCURVE",
"138 -437 CURVE SMOOTH",
"211 -437 OFFCURVE",
"250 -324 OFFCURVE",
"250 -167 CURVE SMOOTH",
"250 -130 OFFCURVE",
"250 -99 OFFCURVE",
"248 -72 CURVE"
);
},
{
closed = 1;
nodes = (
"213 -135 OFFCURVE",
"214 -156 OFFCURVE",
"214 -173 CURVE SMOOTH",
"214 -301 OFFCURVE",
"184 -400 OFFCURVE",
"139 -400 CURVE SMOOTH",
"122 -400 OFFCURVE",
"108 -378 OFFCURVE",
"108 -345 CURVE SMOOTH",
"108 -289 OFFCURVE",
"131 -211 OFFCURVE",
"213 -111 CURVE"
);
}
);
width = 359;
}
);
leftKerningGroup = z;
unicode = 007A;
},
{
glyphname = fi;
lastChange = "2017-06-09 11:17:31 +0000";
layers = (
{
layerId = UUID0;
paths = (
{
closed = 1;
nodes = (
"57 18 OFFCURVE",
"57 94 OFFCURVE",
"57 147 CURVE",
"129 276 OFFCURVE",
"187 411 OFFCURVE",
"187 570 CURVE SMOOTH",
"187 646 OFFCURVE",
"168 712 OFFCURVE",
"113 712 CURVE SMOOTH",
"43 712 OFFCURVE",
"27 582 OFFCURVE",
"23 358 CURVE SMOOTH",
"20 183 OFFCURVE",
"20 -69 OFFCURVE",
"20 -190 CURVE SMOOTH",
"20 -352 OFFCURVE",
"20 -475 OFFCURVE",
"99 -475 CURVE SMOOTH",
"152 -475 OFFCURVE",
"183 -410 OFFCURVE",
"183 -327 CURVE SMOOTH",
"183 -237 OFFCURVE",
"148 -126 OFFCURVE",
"79 -53 CURVE",
"156 -17 OFFCURVE",
"208 31 OFFCURVE",
"242 79 CURVE",
"248 23 OFFCURVE",
"277 -20 OFFCURVE",
"331 -20 CURVE SMOOTH",
"399 -20 OFFCURVE",
"461 89 OFFCURVE",
"484 135 CURVE SMOOTH",
"485 138 OFFCURVE",
"486 141 OFFCURVE",
"486 144 CURVE SMOOTH",
"486 152 OFFCURVE",
"478 162 OFFCURVE",
"468 162 CURVE SMOOTH",
"461 162 OFFCURVE",
"454 158 OFFCURVE",
"451 152 CURVE SMOOTH",
"411 71 OFFCURVE",
"367 18 OFFCURVE",
"331 18 CURVE SMOOTH",
"310 18 OFFCURVE",
"278 30 OFFCURVE",
"278 99 CURVE SMOOTH",
"278 149 OFFCURVE",
"287 229 OFFCURVE",
"287 236 CURVE SMOOTH",
"287 246 OFFCURVE",
"279 254 OFFCURVE",
"270 254 CURVE SMOOTH",
"258 254 OFFCURVE",
"251 247 OFFCURVE",
"250 237 CURVE SMOOTH",
"247 209 OFFCURVE",
"244 182 OFFCURVE",
"243 154 CURVE",
"242 153 OFFCURVE",
"241 152 OFFCURVE",
"241 151 CURVE SMOOTH",
"215 92 OFFCURVE",
"153 19 OFFCURVE",
"57 -24 CURVE"
);
},
{
closed = 1;
nodes = (
"59 283 OFFCURVE",
"60 305 OFFCURVE",
"61 357 CURVE SMOOTH",
"62 406 OFFCURVE",
"62 675 OFFCURVE",
"113 675 CURVE SMOOTH",
"138 675 OFFCURVE",
"150 634 OFFCURVE",
"150 572 CURVE SMOOTH",
"150 447 OFFCURVE",
"111 322 OFFCURVE",
"58 222 CURVE"
);
},
{
closed = 1;
nodes = (
"115 -148 OFFCURVE",
"146 -247 OFFCURVE",
"146 -327 CURVE SMOOTH",
"146 -357 OFFCURVE",
"138 -438 OFFCURVE",
"99 -438 CURVE SMOOTH",
"56 -438 OFFCURVE",
"56 -311 OFFCURVE",
"56 -190 CURVE SMOOTH",
"56 -161 OFFCURVE",
"57 -125 OFFCURVE",
"57 -84 CURVE"
);
},
{
closed = 1;
nodes = (
"320 408 OFFCURVE",
"300 428 OFFCURVE",
"276 428 CURVE SMOOTH",
"251 428 OFFCURVE",
"231 408 OFFCURVE",
"231 383 CURVE SMOOTH",
"231 359 OFFCURVE",
"251 339 OFFCURVE",
"276 339 CURVE SMOOTH",
"300 339 OFFCURVE",
"320 359 OFFCURVE",
"320 383 CURVE SMOOTH"
);
},
{
closed = 1;
nodes = (
"293 374 OFFCURVE",
"285 367 OFFCURVE",
"276 367 CURVE SMOOTH",
"267 367 OFFCURVE",
"259 374 OFFCURVE",
"259 383 CURVE SMOOTH",
"259 393 OFFCURVE",
"267 400 OFFCURVE",
"276 400 CURVE SMOOTH",
"285 400 OFFCURVE",
"293 393 OFFCURVE",
"293 383 CURVE SMOOTH"
);
}
);
width = 432;
}
);
leftKerningGroup = f;
unicode = FB01;
},
{
glyphname = fl;
lastChange = "2017-06-09 11:17:31 +0000";
layers = (
{
layerId = UUID0;
paths = (
{
closed = 1;
nodes = (
"520 138 OFFCURVE",
"521 141 OFFCURVE",
"521 143 CURVE SMOOTH",
"521 153 OFFCURVE",
"513 162 OFFCURVE",
"502 162 CURVE SMOOTH",
"495 162 OFFCURVE",
"488 158 OFFCURVE",
"485 152 CURVE SMOOTH",
"469 117 OFFCURVE",
"422 22 OFFCURVE",
"370 22 CURVE SMOOTH",
"332 22 OFFCURVE",
"304 73 OFFCURVE",
"288 155 CURVE",
"361 288 OFFCURVE",
"419 438 OFFCURVE",
"419 568 CURVE SMOOTH",
"419 673 OFFCURVE",
"393 712 OFFCURVE",
"350 712 CURVE SMOOTH",
"269 712 OFFCURVE",
"237 499 OFFCURVE",
"237 334 CURVE SMOOTH",
"237 288 OFFCURVE",
"239 222 OFFCURVE",
"250 160 CURVE",
"246 158 OFFCURVE",
"243 155 OFFCURVE",
"241 151 CURVE SMOOTH",
"215 92 OFFCURVE",
"153 19 OFFCURVE",
"57 -24 CURVE",
"57 18 OFFCURVE",
"57 94 OFFCURVE",
"57 147 CURVE",
"129 276 OFFCURVE",
"187 411 OFFCURVE",
"187 570 CURVE SMOOTH",
"187 646 OFFCURVE",
"168 712 OFFCURVE",
"113 712 CURVE SMOOTH",
"43 712 OFFCURVE",
"27 582 OFFCURVE",
"23 358 CURVE SMOOTH",
"20 183 OFFCURVE",
"20 -69 OFFCURVE",
"20 -190 CURVE SMOOTH",
"20 -352 OFFCURVE",
"20 -475 OFFCURVE",
"99 -475 CURVE SMOOTH",
"152 -475 OFFCURVE",
"183 -410 OFFCURVE",
"183 -327 CURVE SMOOTH",
"183 -237 OFFCURVE",
"148 -126 OFFCURVE",
"79 -53 CURVE",
"173 -10 OFFCURVE",
"229 52 OFFCURVE",
"261 109 CURVE",
"280 40 OFFCURVE",
"312 -15 OFFCURVE",
"369 -15 CURVE SMOOTH",
"444 -15 OFFCURVE",
"497 91 OFFCURVE",
"519 135 CURVE SMOOTH"
);
},
{
closed = 1;
nodes = (
"274 496 OFFCURVE",
"307 675 OFFCURVE",
"348 675 CURVE SMOOTH",
"369 675 OFFCURVE",
"382 645 OFFCURVE",
"382 568 CURVE SMOOTH",
"382 458 OFFCURVE",
"333 322 OFFCURVE",
"279 216 CURVE",
"276 251 OFFCURVE",
"274 290 OFFCURVE",
"274 332 CURVE SMOOTH"
);
},
{
closed = 1;
nodes = (
"59 283 OFFCURVE",
"60 305 OFFCURVE",
"61 357 CURVE SMOOTH",
"62 406 OFFCURVE",
"62 675 OFFCURVE",
"113 675 CURVE SMOOTH",
"138 675 OFFCURVE",
"150 634 OFFCURVE",
"150 572 CURVE SMOOTH",
"150 447 OFFCURVE",
"111 322 OFFCURVE",
"58 222 CURVE"
);
},
{
closed = 1;
nodes = (
"115 -148 OFFCURVE",
"146 -247 OFFCURVE",
"146 -327 CURVE SMOOTH",
"146 -357 OFFCURVE",
"138 -438 OFFCURVE",
"99 -438 CURVE SMOOTH",
"56 -438 OFFCURVE",
"56 -311 OFFCURVE",
"56 -190 CURVE SMOOTH",
"56 -161 OFFCURVE",
"57 -125 OFFCURVE",
"57 -84 CURVE"
);
}
);
width = 467;
}
);
leftKerningGroup = f;
unicode = FB02;
},
{
glyphname = germandbls;
lastChange = "2017-06-09 11:17:31 +0000";
layers = (
{
layerId = UUID0;
paths = (
{
closed = 1;
nodes = (
"384 139 OFFCURVE",
"385 141 OFFCURVE",
"385 143 CURVE SMOOTH",
"385 153 OFFCURVE",
"377 162 OFFCURVE",
"366 162 CURVE SMOOTH",
"359 162 OFFCURVE",
"353 158 OFFCURVE",
"350 151 CURVE SMOOTH",
"318 87 OFFCURVE",
"277 12 OFFCURVE",
"193 12 CURVE",
"212 27 OFFCURVE",
"227 52 OFFCURVE",
"227 83 CURVE SMOOTH",
"227 165 OFFCURVE",
"130 224 OFFCURVE",
"130 280 CURVE SMOOTH",
"130 320 OFFCURVE",
"149 377 OFFCURVE",
"157 407 CURVE SMOOTH",
"179 486 OFFCURVE",
"189 550 OFFCURVE",
"189 598 CURVE SMOOTH",
"189 673 OFFCURVE",
"166 712 OFFCURVE",
"118 712 CURVE SMOOTH",
"40 712 OFFCURVE",
"28 582 OFFCURVE",
"23 358 CURVE SMOOTH",
"20 189 OFFCURVE",
"20 -321 OFFCURVE",
"20 -450 CURVE SMOOTH",
"20 -460 OFFCURVE",
"28 -468 OFFCURVE",
"38 -468 CURVE SMOOTH",
"48 -468 OFFCURVE",
"56 -460 OFFCURVE",
"56 -450 CURVE SMOOTH",
"56 -321 OFFCURVE",
"57 188 OFFCURVE",
"61 357 CURVE SMOOTH",
"62 434 OFFCURVE",
"64 521 OFFCURVE",
"75 584 CURVE SMOOTH",
"85 651 OFFCURVE",
"98 675 OFFCURVE",
"118 675 CURVE SMOOTH",
"136 675 OFFCURVE",
"152 667 OFFCURVE",
"152 598 CURVE SMOOTH",
"152 559 OFFCURVE",
"144 492 OFFCURVE",
"115 395 CURVE SMOOTH",
"104 358 OFFCURVE",
"93 316 OFFCURVE",
"93 280 CURVE SMOOTH",
"93 203 OFFCURVE",
"190 150 OFFCURVE",
"190 83 CURVE SMOOTH",
"190 56 OFFCURVE",
"173 32 OFFCURVE",
"148 32 CURVE SMOOTH",
"131 32 OFFCURVE",
"118 45 OFFCURVE",
"116 47 CURVE SMOOTH",
"113 50 OFFCURVE",
"108 52 OFFCURVE",
"103 52 CURVE SMOOTH",
"93 52 OFFCURVE",
"84 45 OFFCURVE",
"84 35 CURVE SMOOTH",
"84 32 OFFCURVE",
"85 29 OFFCURVE",
"87 26 CURVE SMOOTH",
"110 -9 OFFCURVE",
"150 -23 OFFCURVE",
"193 -23 CURVE SMOOTH",
"287 -23 OFFCURVE",
"349 60 OFFCURVE",
"383 136 CURVE SMOOTH"
);
}
);
width = 331;
}
);
unicode = 00DF;
},
{
glyphname = AE;
lastChange = "2017-06-09 11:17:31 +0000";
layers = (
{
anchors = (
{
name = top;
position = "{1062, 766}";
}
);
layerId = UUID0;
paths = (
{
closed = 1;
nodes = (
"946 19 OFFCURVE",
"939 43 OFFCURVE",
"934 73 CURVE",
"998 4 OFFCURVE",
"1114 -26 OFFCURVE",
"1225 -26 CURVE SMOOTH",
"1257 -26 OFFCURVE",
"1289 -24 OFFCURVE",
"1319 -19 CURVE SMOOTH",
"1587 23 OFFCURVE",
"1651 200 OFFCURVE",
"1653 208 CURVE SMOOTH",
"1654 209 OFFCURVE",
"1654 211 OFFCURVE",
"1654 213 CURVE SMOOTH",
"1654 223 OFFCURVE",
"1646 231 OFFCURVE",
"1636 231 CURVE SMOOTH",
"1628 231 OFFCURVE",
"1621 227 OFFCURVE",
"1619 219 CURVE SMOOTH",
"1618 218 OFFCURVE",
"1560 57 OFFCURVE",
"1313 18 CURVE SMOOTH",
"1286 13 OFFCURVE",
"1256 11 OFFCURVE",
"1225 11 CURVE SMOOTH",
"1081 11 OFFCURVE",
"920 64 OFFCURVE",
"920 205 CURVE SMOOTH",
"920 291 OFFCURVE",
"975 351 OFFCURVE",
"1078 381 CURVE",
"1124 354 OFFCURVE",
"1191 338 OFFCURVE",
"1254 338 CURVE SMOOTH",
"1311 338 OFFCURVE",
"1352 358 OFFCURVE",
"1352 391 CURVE SMOOTH",
"1352 424 OFFCURVE",
"1312 441 OFFCURVE",
"1254 441 CURVE",
"1222 440 OFFCURVE",
"1153 438 OFFCURVE",
"1083 420 CURVE",
"1044 448 OFFCURVE",
"1023 488 OFFCURVE",
"1023 530 CURVE SMOOTH",
"1023 603 OFFCURVE",
"1092 687 OFFCURVE",
"1244 687 CURVE SMOOTH",
"1441 687 OFFCURVE",
"1479 568 OFFCURVE",
"1480 564 CURVE SMOOTH",
"1482 556 OFFCURVE",
"1489 550 OFFCURVE",
"1497 550 CURVE SMOOTH",
"1508 550 OFFCURVE",
"1516 559 OFFCURVE",
"1516 568 CURVE SMOOTH",
"1516 570 OFFCURVE",
"1516 572 OFFCURVE",
"1515 574 CURVE SMOOTH",
"1514 579 OFFCURVE",
"1471 723 OFFCURVE",
"1244 723 CURVE SMOOTH",
"1094 723 OFFCURVE",
"986 642 OFFCURVE",
"986 529 CURVE SMOOTH",
"986 484 OFFCURVE",
"1005 441 OFFCURVE",
"1042 407 CURVE",
"983 386 OFFCURVE",
"941 354 OFFCURVE",
"915 314 CURVE",
"915 363 LINE SMOOTH",
"915 506 OFFCURVE",
"929 654 OFFCURVE",
"933 679 CURVE",
"939 686 OFFCURVE",
"947 697 OFFCURVE",
"947 707 CURVE SMOOTH",
"947 719 OFFCURVE",
"936 728 OFFCURVE",
"926 728 CURVE SMOOTH",
"909 728 OFFCURVE",
"902 710 OFFCURVE",
"898 693 CURVE",
"859 629 OFFCURVE",
"749 452 OFFCURVE",
"665 333 CURVE SMOOTH",
"647 309 OFFCURVE",
"623 277 OFFCURVE",
"592 243 CURVE",
"527 237 OFFCURVE",
"469 233 OFFCURVE",
"416 233 CURVE SMOOTH",
"232 233 OFFCURVE",
"127 273 OFFCURVE",
"127 347 CURVE SMOOTH",
"127 391 OFFCURVE",
"171 422 OFFCURVE",
"173 424 CURVE SMOOTH",
"179 427 OFFCURVE",
"181 433 OFFCURVE",
"181 439 CURVE SMOOTH",
"181 450 OFFCURVE",
"172 457 OFFCURVE",
"163 457 CURVE SMOOTH",
"140 457 OFFCURVE",
"91 398 OFFCURVE",
"91 347 CURVE SMOOTH",
"91 232 OFFCURVE",
"243 197 OFFCURVE",
"417 197 CURVE SMOOTH",
"461 197 OFFCURVE",
"508 199 OFFCURVE",
"554 203 CURVE",
"459 109 OFFCURVE",
"322 13 OFFCURVE",
"158 13 CURVE SMOOTH",
"38 13 OFFCURVE",
"-14 66 OFFCURVE",
"-17 69 CURVE SMOOTH",
"-21 73 OFFCURVE",
"-25 75 OFFCURVE",
"-31 75 CURVE SMOOTH",
"-41 75 OFFCURVE",
"-49 66 OFFCURVE",
"-49 56 CURVE SMOOTH",
"-49 52 OFFCURVE",
"-47 47 OFFCURVE",
"-44 43 CURVE SMOOTH",
"-41 41 OFFCURVE",
"21 -24 OFFCURVE",
"159 -24 CURVE SMOOTH",
"312 -24 OFFCURVE",
"472 57 OFFCURVE",
"610 208 CURVE",
"639 210 OFFCURVE",
"667 214 OFFCURVE",
"694 218 CURVE SMOOTH",
"771 228 OFFCURVE",
"832 236 OFFCURVE",
"880 242 CURVE",
"885 133 OFFCURVE",
"897 34 OFFCURVE",
"922 -14 CURVE SMOOTH",
"925 -21 OFFCURVE",
"932 -24 OFFCURVE",
"938 -24 CURVE SMOOTH",
"949 -24 OFFCURVE",
"957 -16 OFFCURVE",
"957 -6 CURVE SMOOTH",
"957 -3 OFFCURVE",
"957 0 OFFCURVE",
"955 2 CURVE SMOOTH"
);
},
{
closed = 1;
nodes = (
"674 252 OFFCURVE",
"660 250 OFFCURVE",
"646 249 CURVE",
"662 269 OFFCURVE",
"679 290 OFFCURVE",
"694 312 CURVE SMOOTH",
"757 400 OFFCURVE",
"835 522 OFFCURVE",
"887 604 CURVE",
"881 543 OFFCURVE",
"878 455 OFFCURVE",
"878 364 CURVE SMOOTH",
"878 335 OFFCURVE",
"878 308 OFFCURVE",
"879 279 CURVE",
"828 273 OFFCURVE",
"766 265 OFFCURVE",
"689 254 CURVE SMOOTH"
);
},
{
closed = 1;
nodes = (
"1315 383 OFFCURVE",
"1295 375 OFFCURVE",
"1255 375 CURVE SMOOTH",
"1210 375 OFFCURVE",
"1164 383 OFFCURVE",
"1130 396 CURVE",
"1174 404 OFFCURVE",
"1205 405 OFFCURVE",
"1244 405 CURVE SMOOTH",
"1278 405 OFFCURVE",
"1315 401 OFFCURVE",
"1315 391 CURVE SMOOTH"
);
}
);
width = 1684;
}
);
leftKerningGroup = A;
rightKerningGroup = E;
unicode = 00C6;
},
{
glyphname = ae;
lastChange = "2017-06-09 11:17:31 +0000";
layers = (
{
anchors = (
{
name = top;
position = "{205, 288}";
}
);
layerId = UUID0;
paths = (
{
closed = 1;
nodes = (
"226 54 LINE",
"277 79 OFFCURVE",
"315 121 OFFCURVE",
"315 174 CURVE SMOOTH",
"315 215 OFFCURVE",
"284 240 OFFCURVE",
"254 240 CURVE SMOOTH",
"234 240 OFFCURVE",
"217 232 OFFCURVE",
"204 220 CURVE",
"192 228 OFFCURVE",
"172 238 OFFCURVE",
"146 238 CURVE SMOOTH",
"86 238 OFFCURVE",
"10 185 OFFCURVE",
"10 83 CURVE SMOOTH",
"10 32 OFFCURVE",
"41 -5 OFFCURVE",
"89 -5 CURVE SMOOTH",
"131 -5 OFFCURVE",
"161 31 OFFCURVE",
"180 73 CURVE",
"193 25 OFFCURVE",
"228 -15 OFFCURVE",
"292 -15 CURVE",
"353 -14 OFFCURVE",
"408 37 OFFCURVE",
"456 136 CURVE SMOOTH",
"457 138 OFFCURVE",
"458 141 OFFCURVE",
"458 144 CURVE SMOOTH",
"458 152 OFFCURVE",
"450 162 OFFCURVE",
"439 162 CURVE SMOOTH",
"432 162 OFFCURVE",
"425 158 OFFCURVE",
"422 151 CURVE SMOOTH",
"394 93 OFFCURVE",
"354 22 OFFCURVE",
"296 22 CURVE SMOOTH",
"266 22 OFFCURVE",
"244 35 OFFCURVE",
"230 54 CURVE"
);
},
{
closed = 1;
nodes = (
"169 122 OFFCURVE",
"141 32 OFFCURVE",
"89 32 CURVE SMOOTH",
"57 32 OFFCURVE",
"47 61 OFFCURVE",
"47 85 CURVE SMOOTH",
"47 165 OFFCURVE",
"103 201 OFFCURVE",
"144 201 CURVE SMOOTH",
"159 201 OFFCURVE",
"171 197 OFFCURVE",
"179 192 CURVE",
"179 191 OFFCURVE",
"178 190 OFFCURVE",
"178 189 CURVE SMOOTH"
);
},
{
closed = 1;
nodes = (
"208 97 OFFCURVE",
"205 111 OFFCURVE",
"205 123 CURVE SMOOTH",
"205 161 OFFCURVE",
"219 204 OFFCURVE",
"254 204 CURVE SMOOTH",
"267 204 OFFCURVE",
"278 193 OFFCURVE",
"278 174 CURVE SMOOTH",
"278 139 OFFCURVE",
"252 103 OFFCURVE",
"211 85 CURVE"
);
}
);
width = 404;
}
);
leftKerningGroup = a;
unicode = 00E6;
},
{
glyphname = Aogonek;
lastChange = "2017-06-09 11:17:31 +0000";
layers = (
{
layerId = UUID0;
paths = (
{
closed = 1;
nodes = (
"988 -100 OFFCURVE",
"981 -93 OFFCURVE",
"973 -93 CURVE SMOOTH",
"966 -93 OFFCURVE",
"960 -96 OFFCURVE",
"957 -103 CURVE SMOOTH",
"953 -111 OFFCURVE",
"945 -124 OFFCURVE",
"929 -124 CURVE SMOOTH",
"916 -124 OFFCURVE",
"907 -117 OFFCURVE",
"907 -102 CURVE SMOOTH",
"907 -69 OFFCURVE",
"950 -21 OFFCURVE",
"950 -20 CURVE SMOOTH",
"953 -17 OFFCURVE",
"957 -13 OFFCURVE",
"957 -6 CURVE SMOOTH",
"957 -2 OFFCURVE",
"956 0 OFFCURVE",
"955 2 CURVE SMOOTH",
"933 46 OFFCURVE",
"921 140 OFFCURVE",
"917 247 CURVE",
"999 257 OFFCURVE",
"1037 261 OFFCURVE",
"1060 264 CURVE SMOOTH",
"1070 265 OFFCURVE",
"1077 272 OFFCURVE",
"1077 282 CURVE SMOOTH",
"1077 293 OFFCURVE",
"1066 300 OFFCURVE",
"1058 300 CURVE SMOOTH",
"1056 300 OFFCURVE",
"1013 296 OFFCURVE",
"916 284 CURVE",
"915 310 OFFCURVE",
"915 336 OFFCURVE",
"915 363 CURVE SMOOTH",
"915 506 OFFCURVE",
"929 654 OFFCURVE",
"933 679 CURVE",
"939 686 OFFCURVE",
"947 697 OFFCURVE",
"947 707 CURVE SMOOTH",
"947 719 OFFCURVE",
"936 728 OFFCURVE",
"926 728 CURVE SMOOTH",
"909 728 OFFCURVE",
"902 710 OFFCURVE",
"898 693 CURVE",
"859 629 OFFCURVE",
"749 452 OFFCURVE",
"665 333 CURVE SMOOTH",
"647 309 OFFCURVE",
"623 277 OFFCURVE",
"592 243 CURVE",
"527 237 OFFCURVE",
"469 233 OFFCURVE",
"416 233 CURVE SMOOTH",
"232 233 OFFCURVE",
"127 273 OFFCURVE",
"127 347 CURVE SMOOTH",
"127 391 OFFCURVE",
"171 422 OFFCURVE",
"173 424 CURVE SMOOTH",
"179 427 OFFCURVE",
"181 433 OFFCURVE",
"181 439 CURVE SMOOTH",
"181 450 OFFCURVE",
"172 457 OFFCURVE",
"163 457 CURVE SMOOTH",
"140 457 OFFCURVE",
"91 398 OFFCURVE",
"91 347 CURVE SMOOTH",
"91 232 OFFCURVE",
"243 197 OFFCURVE",
"417 197 CURVE SMOOTH",
"461 197 OFFCURVE",
"508 199 OFFCURVE",
"554 203 CURVE",
"459 109 OFFCURVE",
"322 13 OFFCURVE",
"158 13 CURVE SMOOTH",
"38 13 OFFCURVE",
"-14 66 OFFCURVE",
"-17 69 CURVE SMOOTH",
"-21 73 OFFCURVE",
"-25 75 OFFCURVE",
"-31 75 CURVE SMOOTH",
"-41 75 OFFCURVE",
"-49 66 OFFCURVE",
"-49 56 CURVE SMOOTH",
"-49 52 OFFCURVE",
"-47 47 OFFCURVE",
"-44 43 CURVE SMOOTH",
"-41 41 OFFCURVE",
"21 -24 OFFCURVE",
"159 -24 CURVE SMOOTH",
"312 -24 OFFCURVE",
"472 57 OFFCURVE",
"610 208 CURVE",
"639 210 OFFCURVE",
"667 214 OFFCURVE",
"694 218 CURVE SMOOTH",
"771 228 OFFCURVE",
"832 236 OFFCURVE",
"880 242 CURVE",
"885 140 OFFCURVE",
"896 46 OFFCURVE",
"918 -5 CURVE",
"902 -24 OFFCURVE",
"873 -63 OFFCURVE",
"873 -102 CURVE SMOOTH",
"873 -128 OFFCURVE",
"891 -156 OFFCURVE",
"930 -156 CURVE SMOOTH",
"964 -156 OFFCURVE",
"988 -129 OFFCURVE",
"988 -108 CURVE SMOOTH"
);
},
{
closed = 1;
nodes = (
"674 252 OFFCURVE",
"660 250 OFFCURVE",
"646 249 CURVE",
"662 269 OFFCURVE",
"679 290 OFFCURVE",
"694 312 CURVE SMOOTH",
"757 400 OFFCURVE",
"835 522 OFFCURVE",
"887 604 CURVE",
"881 543 OFFCURVE",
"878 455 OFFCURVE",
"878 364 CURVE SMOOTH",
"878 335 OFFCURVE",
"878 307 OFFCURVE",
"879 279 CURVE",
"828 273 OFFCURVE",
"766 265 OFFCURVE",
"689 254 CURVE SMOOTH"
);
}
);
width = 1057;
}
);
leftKerningGroup = A;
rightKerningGroup = A;
unicode = 0104;
},
{
glyphname = aogonek;
lastChange = "2017-06-09 11:17:31 +0000";
layers = (
{
layerId = UUID0;
paths = (
{
closed = 1;
nodes = (
"280 -87 OFFCURVE",
"274 -80 OFFCURVE",
"265 -80 CURVE SMOOTH",
"259 -80 OFFCURVE",
"253 -83 OFFCURVE",
"250 -89 CURVE SMOOTH",
"245 -98 OFFCURVE",
"238 -111 OFFCURVE",
"221 -111 CURVE SMOOTH",
"208 -111 OFFCURVE",
"199 -104 OFFCURVE",
"199 -89 CURVE SMOOTH",
"199 -57 OFFCURVE",
"237 -13 OFFCURVE",
"242 -8 CURVE",
"244 -8 OFFCURVE",
"247 -8 OFFCURVE",
"250 -8 CURVE SMOOTH",
"330 -8 OFFCURVE",
"388 120 OFFCURVE",
"396 136 CURVE SMOOTH",
"397 139 OFFCURVE",
"397 141 OFFCURVE",
"397 143 CURVE SMOOTH",
"397 152 OFFCURVE",
"390 162 OFFCURVE",
"379 162 CURVE SMOOTH",
"372 162 OFFCURVE",
"365 158 OFFCURVE",
"362 151 CURVE SMOOTH",
"345 113 OFFCURVE",
"298 28 OFFCURVE",
"251 28 CURVE SMOOTH",
"204 28 OFFCURVE",
"201 104 OFFCURVE",
"199 129 CURVE SMOOTH",
"199 138 OFFCURVE",
"191 146 OFFCURVE",
"182 146 CURVE SMOOTH",
"172 146 OFFCURVE",
"164 140 OFFCURVE",
"163 130 CURVE SMOOTH",
"154 63 OFFCURVE",
"113 32 OFFCURVE",
"89 32 CURVE SMOOTH",
"57 32 OFFCURVE",
"47 61 OFFCURVE",
"47 85 CURVE SMOOTH",
"47 165 OFFCURVE",
"103 201 OFFCURVE",
"144 201 CURVE SMOOTH",
"171 201 OFFCURVE",
"187 187 OFFCURVE",
"189 185 CURVE SMOOTH",
"193 181 OFFCURVE",
"198 179 OFFCURVE",
"203 179 CURVE SMOOTH",
"212 179 OFFCURVE",
"221 188 OFFCURVE",
"221 198 CURVE SMOOTH",
"221 203 OFFCURVE",
"219 207 OFFCURVE",
"215 211 CURVE SMOOTH",
"214 212 OFFCURVE",
"187 238 OFFCURVE",
"146 238 CURVE SMOOTH",
"86 238 OFFCURVE",
"10 185 OFFCURVE",
"10 83 CURVE SMOOTH",
"10 32 OFFCURVE",
"41 -5 OFFCURVE",
"89 -5 CURVE SMOOTH",
"119 -5 OFFCURVE",
"152 18 OFFCURVE",
"174 55 CURVE",
"181 34 OFFCURVE",
"192 17 OFFCURVE",
"208 5 CURVE",
"192 -14 OFFCURVE",
"166 -52 OFFCURVE",
"166 -89 CURVE SMOOTH",
"166 -115 OFFCURVE",
"183 -143 OFFCURVE",
"222 -143 CURVE SMOOTH",
"256 -143 OFFCURVE",
"280 -116 OFFCURVE",
"280 -95 CURVE SMOOTH"
);
}
);
width = 344;
}
);
leftKerningGroup = a;
unicode = 0105;
},
{
glyphname = Ccedilla;
lastChange = "2017-06-09 11:17:31 +0000";
layers = (
{
layerId = UUID0;
paths = (
{
closed = 1;
nodes = (
"490 -76 OFFCURVE",
"458 -56 OFFCURVE",
"428 -56 CURVE",
"435 -37 LINE SMOOTH",
"436 -34 OFFCURVE",
"438 -27 OFFCURVE",
"438 -23 CURVE",
"438 -22 LINE",
"605 -21 OFFCURVE",
"757 83 OFFCURVE",
"817 181 CURVE SMOOTH",
"819 184 OFFCURVE",
"820 188 OFFCURVE",
"820 191 CURVE SMOOTH",
"820 200 OFFCURVE",
"812 209 OFFCURVE",
"802 209 CURVE SMOOTH",
"795 209 OFFCURVE",
"789 206 OFFCURVE",
"786 200 CURVE SMOOTH",
"730 110 OFFCURVE",
"590 14 OFFCURVE",
"434 14 CURVE SMOOTH",
"258 14 OFFCURVE",
"66 104 OFFCURVE",
"66 316 CURVE SMOOTH",
"66 551 OFFCURVE",
"303 672 OFFCURVE",
"470 672 CURVE SMOOTH",
"618 672 OFFCURVE",
"740 604 OFFCURVE",
"740 502 CURVE SMOOTH",
"740 410 OFFCURVE",
"643 326 OFFCURVE",
"521 326 CURVE SMOOTH",
"457 326 OFFCURVE",
"383 352 OFFCURVE",
"383 426 CURVE SMOOTH",
"383 474 OFFCURVE",
"419 505 OFFCURVE",
"421 507 CURVE SMOOTH",
"425 511 OFFCURVE",
"427 516 OFFCURVE",
"427 521 CURVE SMOOTH",
"427 532 OFFCURVE",
"419 539 OFFCURVE",
"409 539 CURVE SMOOTH",
"405 539 OFFCURVE",
"400 538 OFFCURVE",
"397 535 CURVE SMOOTH",
"395 533 OFFCURVE",
"347 491 OFFCURVE",
"347 426 CURVE SMOOTH",
"347 350 OFFCURVE",
"407 290 OFFCURVE",
"521 290 CURVE SMOOTH",
"662 290 OFFCURVE",
"777 388 OFFCURVE",
"777 503 CURVE SMOOTH",
"777 626 OFFCURVE",
"639 709 OFFCURVE",
"472 709 CURVE SMOOTH",
"244 709 OFFCURVE",
"29 544 OFFCURVE",
"29 316 CURVE SMOOTH",
"29 93 OFFCURVE",
"218 -12 OFFCURVE",
"406 -21 CURVE",
"391 -62 LINE SMOOTH",
"389 -65 OFFCURVE",
"388 -70 OFFCURVE",
"388 -75 CURVE SMOOTH",
"388 -83 OFFCURVE",
"394 -89 OFFCURVE",
"402 -89 CURVE SMOOTH",
"407 -89 OFFCURVE",
"414 -86 OFFCURVE",
"425 -86 CURVE SMOOTH",
"438 -86 OFFCURVE",
"457 -93 OFFCURVE",
"457 -117 CURVE SMOOTH",
"457 -138 OFFCURVE",
"440 -147 OFFCURVE",
"421 -147 CURVE SMOOTH",
"395 -147 OFFCURVE",
"385 -130 OFFCURVE",
"375 -130 CURVE SMOOTH",
"367 -130 OFFCURVE",
"358 -136 OFFCURVE",
"358 -146 CURVE SMOOTH",
"358 -167 OFFCURVE",
"395 -179 OFFCURVE",
"421 -179 CURVE SMOOTH",
"466 -179 OFFCURVE",
"490 -148 OFFCURVE",
"490 -117 CURVE SMOOTH"
);
}
);
width = 849;
}
);
rightKerningGroup = C;
unicode = 00C7;
},
{
glyphname = ccedilla;
lastChange = "2017-06-09 11:17:31 +0000";
layers = (
{
layerId = UUID0;
paths = (
{
closed = 1;
nodes = (
"209 -71 OFFCURVE",
"177 -51 OFFCURVE",
"146 -51 CURVE",
"153 -32 LINE SMOOTH",
"154 -30 OFFCURVE",
"155 -26 OFFCURVE",
"156 -23 CURVE",
"269 -10 OFFCURVE",
"328 114 OFFCURVE",
"338 135 CURVE SMOOTH",
"339 138 OFFCURVE",
"340 141 OFFCURVE",
"340 143 CURVE SMOOTH",
"340 153 OFFCURVE",
"332 162 OFFCURVE",
"321 162 CURVE SMOOTH",
"314 162 OFFCURVE",
"307 158 OFFCURVE",
"305 152 CURVE SMOOTH",
"300 141 OFFCURVE",
"242 12 OFFCURVE",
"136 12 CURVE SMOOTH",
"82 12 OFFCURVE",
"56 60 OFFCURVE",
"56 113 CURVE SMOOTH",
"56 169 OFFCURVE",
"88 216 OFFCURVE",
"125 216 CURVE SMOOTH",
"144 216 OFFCURVE",
"158 203 OFFCURVE",
"158 189 CURVE SMOOTH",
"158 169 OFFCURVE",
"147 167 OFFCURVE",
"147 156 CURVE SMOOTH",
"147 146 OFFCURVE",
"155 138 OFFCURVE",
"166 138 CURVE SMOOTH",
"180 138 OFFCURVE",
"195 161 OFFCURVE",
"195 189 CURVE SMOOTH",
"195 219 OFFCURVE",
"167 253 OFFCURVE",
"125 253 CURVE SMOOTH",
"67 253 OFFCURVE",
"20 190 OFFCURVE",
"20 112 CURVE SMOOTH",
"20 38 OFFCURVE",
"57 -17 OFFCURVE",
"122 -23 CURVE",
"109 -57 LINE SMOOTH",
"108 -61 OFFCURVE",
"106 -65 OFFCURVE",
"106 -70 CURVE SMOOTH",
"106 -79 OFFCURVE",
"113 -84 OFFCURVE",
"121 -84 CURVE SMOOTH",
"125 -84 OFFCURVE",
"133 -81 OFFCURVE",
"144 -81 CURVE SMOOTH",
"157 -81 OFFCURVE",
"176 -88 OFFCURVE",
"176 -112 CURVE SMOOTH",
"176 -133 OFFCURVE",
"159 -143 OFFCURVE",
"140 -143 CURVE SMOOTH",
"113 -143 OFFCURVE",
"104 -125 OFFCURVE",
"94 -125 CURVE SMOOTH",
"85 -125 OFFCURVE",
"77 -131 OFFCURVE",
"77 -141 CURVE SMOOTH",
"77 -162 OFFCURVE",
"114 -174 OFFCURVE",
"140 -174 CURVE SMOOTH",
"185 -174 OFFCURVE",
"209 -143 OFFCURVE",
"209 -112 CURVE SMOOTH"
);
}
);
width = 286;
}
);
leftKerningGroup = c;
unicode = 00E7;
},
{
glyphname = Eth;
lastChange = "2017-06-09 11:17:31 +0000";
layers = (
{
layerId = UUID0;
paths = (
{
closed = 1;
nodes = (
"225 718 OFFCURVE",
"68 627 OFFCURVE",
"68 480 CURVE SMOOTH",
"68 358 OFFCURVE",
"176 304 OFFCURVE",
"215 304 CURVE SMOOTH",
"224 304 OFFCURVE",
"233 310 OFFCURVE",
"233 321 CURVE SMOOTH",
"233 329 OFFCURVE",
"228 337 OFFCURVE",
"220 339 CURVE SMOOTH",
"214 340 OFFCURVE",
"104 371 OFFCURVE",
"104 480 CURVE SMOOTH",
"104 608 OFFCURVE",
"251 682 OFFCURVE",
"465 682 CURVE SMOOTH",
"704 682 OFFCURVE",
"951 543 OFFCURVE",
"951 308 CURVE SMOOTH",
"951 154 OFFCURVE",
"841 23 OFFCURVE",
"656 23 CURVE SMOOTH",
"571 23 OFFCURVE",
"478 49 OFFCURVE",
"396 99 CURVE SMOOTH",
"395 99 OFFCURVE",
"395 100 OFFCURVE",
"394 100 CURVE",
"438 158 OFFCURVE",
"456 235 OFFCURVE",
"468 306 CURVE",
"505 306 OFFCURVE",
"559 306 OFFCURVE",
"645 307 CURVE SMOOTH",
"656 307 OFFCURVE",
"663 315 OFFCURVE",
"663 326 CURVE SMOOTH",
"662 336 OFFCURVE",
"653 342 OFFCURVE",
"643 342 CURVE SMOOTH",
"474 340 LINE",
"474 341 OFFCURVE",
"474 341 OFFCURVE",
"474 342 CURVE SMOOTH",
"490 437 OFFCURVE",
"504 520 OFFCURVE",
"573 560 CURVE SMOOTH",
"579 563 OFFCURVE",
"582 569 OFFCURVE",
"582 576 CURVE SMOOTH",
"582 587 OFFCURVE",
"572 594 OFFCURVE",
"563 594 CURVE SMOOTH",
"560 594 OFFCURVE",
"557 593 OFFCURVE",
"554 592 CURVE SMOOTH",
"468 541 OFFCURVE",
"453 443 OFFCURVE",
"436 340 CURVE",
"340 339 LINE SMOOTH",
"330 339 OFFCURVE",
"323 331 OFFCURVE",
"323 321 CURVE SMOOTH",
"323 311 OFFCURVE",
"332 304 OFFCURVE",
"341 304 CURVE SMOOTH",
"378 305 OFFCURVE",
"395 305 OFFCURVE",
"430 305 CURVE",
"422 263 OFFCURVE",
"413 220 OFFCURVE",
"396 179 CURVE SMOOTH",
"388 157 OFFCURVE",
"376 137 OFFCURVE",
"361 119 CURVE",
"284 160 OFFCURVE",
"216 181 OFFCURVE",
"160 181 CURVE SMOOTH",
"83 181 OFFCURVE",
"29 139 OFFCURVE",
"29 89 CURVE SMOOTH",
"29 30 OFFCURVE",
"92 -8 OFFCURVE",
"173 -8 CURVE SMOOTH",
"247 -8 OFFCURVE",
"317 21 OFFCURVE",
"369 72 CURVE",
"456 14 OFFCURVE",
"564 -13 OFFCURVE",
"656 -13 CURVE SMOOTH",
"852 -13 OFFCURVE",
"988 124 OFFCURVE",
"988 309 CURVE SMOOTH",
"988 586 OFFCURVE",
"697 718 OFFCURVE",
"457 718 CURVE SMOOTH"
);
},
{
closed = 1;
nodes = (
"292 52 OFFCURVE",
"233 29 OFFCURVE",
"173 29 CURVE SMOOTH",
"101 29 OFFCURVE",
"66 60 OFFCURVE",
"66 88 CURVE SMOOTH",
"66 119 OFFCURVE",
"107 145 OFFCURVE",
"161 145 CURVE SMOOTH",
"209 145 OFFCURVE",
"268 126 OFFCURVE",
"335 91 CURVE"
);
}
);
width = 1022;
}
);
rightKerningGroup = D;
unicode = 00D0;
},
{
glyphname = eth;
lastChange = "2017-06-09 11:17:31 +0000";
layers = (
{
layerId = UUID0;
paths = (
{
closed = 1;
nodes = (
"272 487 OFFCURVE",
"270 486 OFFCURVE",
"268 486 CURVE",
"189 447 LINE",
"156 492 OFFCURVE",
"112 519 OFFCURVE",
"65 519 CURVE SMOOTH",
"25 519 OFFCURVE",
"8 506 OFFCURVE",
"7 506 CURVE SMOOTH",
"-1 501 OFFCURVE",
"-2 496 OFFCURVE",
"-2 491 CURVE SMOOTH",
"-2 481 OFFCURVE",
"5 474 OFFCURVE",
"15 474 CURVE SMOOTH",
"26 474 OFFCURVE",
"32 482 OFFCURVE",
"67 482 CURVE SMOOTH",
"98 482 OFFCURVE",
"129 463 OFFCURVE",
"155 430 CURVE",
"82 394 LINE",
"75 391 OFFCURVE",
"71 383 OFFCURVE",
"72 375 CURVE SMOOTH",
"73 367 OFFCURVE",
"81 360 OFFCURVE",
"90 361 CURVE SMOOTH",
"95 362 OFFCURVE",
"101 365 OFFCURVE",
"103 366 CURVE SMOOTH",
"175 401 LINE",
"204 352 OFFCURVE",
"223 284 OFFCURVE",
"223 206 CURVE SMOOTH",
"223 132 OFFCURVE",
"191 21 OFFCURVE",
"113 21 CURVE SMOOTH",
"72 21 OFFCURVE",
"46 53 OFFCURVE",
"46 97 CURVE SMOOTH",
"46 146 OFFCURVE",
"92 200 OFFCURVE",
"180 209 CURVE SMOOTH",
"191 210 OFFCURVE",
"198 219 OFFCURVE",
"198 230 CURVE SMOOTH",
"198 240 OFFCURVE",
"192 248 OFFCURVE",
"182 246 CURVE SMOOTH",
"90 235 OFFCURVE",
"10 180 OFFCURVE",
"10 97 CURVE SMOOTH",
"10 32 OFFCURVE",
"52 -13 OFFCURVE",
"112 -13 CURVE SMOOTH",
"228 -13 OFFCURVE",
"259 125 OFFCURVE",
"259 210 CURVE SMOOTH",
"259 292 OFFCURVE",
"240 364 OFFCURVE",
"208 418 CURVE",
"283 455 LINE SMOOTH",
"290 458 OFFCURVE",
"293 466 OFFCURVE",
"292 473 CURVE SMOOTH",
"292 482 OFFCURVE",
"284 489 OFFCURVE",
"274 487 CURVE SMOOTH"
);
}
);
width = 293;
}
);
leftKerningGroup = o;
unicode = 00F0;
},
{
glyphname = dcroat;
lastChange = "2017-06-09 11:17:31 +0000";
layers = (
{
layerId = UUID0;
paths = (
{
closed = 1;
nodes = (
"386 458 OFFCURVE",
"377 464 OFFCURVE",
"367 464 CURVE SMOOTH",
"298 463 LINE",
"300 487 OFFCURVE",
"302 511 OFFCURVE",
"302 535 CURVE SMOOTH",
"302 605 OFFCURVE",
"285 654 OFFCURVE",
"242 654 CURVE SMOOTH",
"187 654 OFFCURVE",
"161 561 OFFCURVE",
"151 462 CURVE",
"64 461 LINE SMOOTH",
"54 461 OFFCURVE",
"47 453 OFFCURVE",
"47 443 CURVE SMOOTH",
"47 433 OFFCURVE",
"56 426 OFFCURVE",
"65 426 CURVE SMOOTH",
"100 427 OFFCURVE",
"117 427 OFFCURVE",
"149 427 CURVE",
"148 408 OFFCURVE",
"147 389 OFFCURVE",
"147 371 CURVE SMOOTH",
"147 279 OFFCURVE",
"158 203 OFFCURVE",
"169 146 CURVE",
"131 48 OFFCURVE",
"106 32 OFFCURVE",
"85 32 CURVE SMOOTH",
"60 32 OFFCURVE",
"46 51 OFFCURVE",
"46 83 CURVE SMOOTH",
"46 163 OFFCURVE",
"101 196 OFFCURVE",
"140 201 CURVE SMOOTH",
"150 202 OFFCURVE",
"156 210 OFFCURVE",
"156 219 CURVE SMOOTH",
"156 229 OFFCURVE",
"148 237 OFFCURVE",
"138 237 CURVE SMOOTH",
"79 237 OFFCURVE",
"10 174 OFFCURVE",
"10 84 CURVE SMOOTH",
"10 19 OFFCURVE",
"46 -5 OFFCURVE",
"85 -5 CURVE SMOOTH",
"122 -5 OFFCURVE",
"153 23 OFFCURVE",
"184 90 CURVE",
"207 21 OFFCURVE",
"237 -8 OFFCURVE",
"281 -8 CURVE SMOOTH",
"351 -8 OFFCURVE",
"403 104 OFFCURVE",
"417 137 CURVE SMOOTH",
"418 139 OFFCURVE",
"419 141 OFFCURVE",
"419 144 CURVE SMOOTH",
"419 153 OFFCURVE",
"411 162 OFFCURVE",
"400 162 CURVE SMOOTH",
"393 162 OFFCURVE",
"386 158 OFFCURVE",
"383 150 CURVE SMOOTH",
"365 108 OFFCURVE",
"324 29 OFFCURVE",
"277 29 CURVE SMOOTH",
"248 29 OFFCURVE",
"224 67 OFFCURVE",
"208 142 CURVE",
"234 207 OFFCURVE",
"275 314 OFFCURVE",
"293 429 CURVE",
"315 429 OFFCURVE",
"340 429 OFFCURVE",
"369 429 CURVE SMOOTH",
"380 429 OFFCURVE",
"387 437 OFFCURVE",
"387 448 CURVE SMOOTH"
);
},
{
closed = 1;
nodes = (
"189 253 OFFCURVE",
"184 314 OFFCURVE",
"184 372 CURVE SMOOTH",
"184 390 OFFCURVE",
"185 409 OFFCURVE",
"186 428 CURVE",
"204 428 OFFCURVE",
"227 428 OFFCURVE",
"256 428 CURVE",
"244 352 OFFCURVE",
"221 277 OFFCURVE",
"195 209 CURVE"
);
},
{
closed = 1;
nodes = (
"265 511 OFFCURVE",
"264 487 OFFCURVE",
"261 463 CURVE",
"188 462 LINE",
"197 548 OFFCURVE",
"218 618 OFFCURVE",
"242 618 CURVE SMOOTH",
"262 618 OFFCURVE",
"265 568 OFFCURVE",
"265 536 CURVE SMOOTH"
);
}
);
width = 365;
}
);
leftKerningGroup = d;
unicode = 0111;
},
{
glyphname = Eogonek;
lastChange = "2017-06-09 11:17:31 +0000";
layers = (
{
layerId = UUID0;
paths = (
{
closed = 1;
nodes = (
"706 -26 OFFCURVE",
"700 -19 OFFCURVE",
"691 -19 CURVE SMOOTH",
"685 -19 OFFCURVE",
"679 -22 OFFCURVE",
"675 -28 CURVE SMOOTH",
"671 -37 OFFCURVE",
"664 -50 OFFCURVE",
"647 -50 CURVE SMOOTH",
"634 -50 OFFCURVE",
"625 -42 OFFCURVE",
"625 -28 CURVE SMOOTH",
"625 23 OFFCURVE",
"758 105 OFFCURVE",
"799 208 CURVE SMOOTH",
"800 209 OFFCURVE",
"800 211 OFFCURVE",
"800 213 CURVE SMOOTH",
"800 223 OFFCURVE",
"792 231 OFFCURVE",
"781 231 CURVE SMOOTH",
"773 231 OFFCURVE",
"767 227 OFFCURVE",
"764 219 CURVE SMOOTH",
"764 218 OFFCURVE",
"706 57 OFFCURVE",
"458 18 CURVE SMOOTH",
"432 13 OFFCURVE",
"402 11 OFFCURVE",
"371 11 CURVE SMOOTH",
"227 11 OFFCURVE",
"66 64 OFFCURVE",
"66 205 CURVE SMOOTH",
"66 291 OFFCURVE",
"121 351 OFFCURVE",
"224 381 CURVE",
"270 354 OFFCURVE",
"337 338 OFFCURVE",
"399 338 CURVE SMOOTH",
"457 338 OFFCURVE",
"498 358 OFFCURVE",
"498 391 CURVE SMOOTH",
"498 424 OFFCURVE",
"457 441 OFFCURVE",
"399 441 CURVE",
"368 440 OFFCURVE",
"299 438 OFFCURVE",
"229 420 CURVE",
"190 448 OFFCURVE",
"168 488 OFFCURVE",
"168 530 CURVE SMOOTH",
"168 603 OFFCURVE",
"238 687 OFFCURVE",
"389 687 CURVE SMOOTH",
"587 687 OFFCURVE",
"625 568 OFFCURVE",
"625 564 CURVE SMOOTH",
"628 556 OFFCURVE",
"635 550 OFFCURVE",
"643 550 CURVE SMOOTH",
"653 550 OFFCURVE",
"661 559 OFFCURVE",
"661 568 CURVE SMOOTH",
"661 570 OFFCURVE",
"661 572 OFFCURVE",
"661 574 CURVE SMOOTH",
"659 579 OFFCURVE",
"617 723 OFFCURVE",
"389 723 CURVE SMOOTH",
"240 723 OFFCURVE",
"132 642 OFFCURVE",
"132 529 CURVE SMOOTH",
"132 484 OFFCURVE",
"150 441 OFFCURVE",
"187 407 CURVE",
"83 369 OFFCURVE",
"29 298 OFFCURVE",
"29 203 CURVE SMOOTH",
"29 41 OFFCURVE",
"206 -26 OFFCURVE",
"370 -26 CURVE SMOOTH",
"403 -26 OFFCURVE",
"435 -24 OFFCURVE",
"464 -19 CURVE SMOOTH",
"519 -10 OFFCURVE",
"580 11 OFFCURVE",
"625 31 CURVE",
"604 10 OFFCURVE",
"591 -9 OFFCURVE",
"591 -31 CURVE SMOOTH",
"591 -56 OFFCURVE",
"609 -82 OFFCURVE",
"648 -82 CURVE SMOOTH",
"682 -82 OFFCURVE",
"706 -55 OFFCURVE",
"706 -34 CURVE SMOOTH"
);
},
{
closed = 1;
nodes = (
"460 383 OFFCURVE",
"441 375 OFFCURVE",
"400 375 CURVE SMOOTH",
"355 375 OFFCURVE",
"309 383 OFFCURVE",
"275 396 CURVE",
"320 404 OFFCURVE",
"351 405 OFFCURVE",
"389 405 CURVE SMOOTH",
"424 405 OFFCURVE",
"460 401 OFFCURVE",
"460 391 CURVE SMOOTH"
);
}
);
width = 829;
}
);
rightKerningGroup = E;
unicode = 0118;
},
{
glyphname = eogonek;
lastChange = "2017-06-09 11:17:31 +0000";
layers = (
{
layerId = UUID0;
paths = (
{
closed = 1;
nodes = (
"194 -91 OFFCURVE",
"187 -83 OFFCURVE",
"179 -83 CURVE SMOOTH",
"172 -83 OFFCURVE",
"167 -87 OFFCURVE",
"163 -93 CURVE SMOOTH",
"159 -102 OFFCURVE",
"151 -115 OFFCURVE",
"135 -115 CURVE SMOOTH",
"122 -115 OFFCURVE",
"113 -107 OFFCURVE",
"113 -93 CURVE SMOOTH",
"113 -64 OFFCURVE",
"144 -25 OFFCURVE",
"153 -14 CURVE",
"215 -8 OFFCURVE",
"265 42 OFFCURVE",
"307 136 CURVE SMOOTH",
"308 138 OFFCURVE",
"309 141 OFFCURVE",
"309 144 CURVE SMOOTH",
"309 152 OFFCURVE",
"301 162 OFFCURVE",
"291 162 CURVE SMOOTH",
"284 162 OFFCURVE",
"277 158 OFFCURVE",
"274 151 CURVE SMOOTH",
"247 90 OFFCURVE",
"207 22 OFFCURVE",
"143 22 CURVE SMOOTH",
"112 22 OFFCURVE",
"91 35 OFFCURVE",
"77 54 CURVE",
"128 79 OFFCURVE",
"167 121 OFFCURVE",
"167 174 CURVE SMOOTH",
"167 215 OFFCURVE",
"136 240 OFFCURVE",
"105 240 CURVE SMOOTH",
"54 240 OFFCURVE",
"20 190 OFFCURVE",
"20 125 CURVE SMOOTH",
"20 67 OFFCURVE",
"48 4 OFFCURVE",
"112 -11 CURVE",
"97 -32 OFFCURVE",
"79 -63 OFFCURVE",
"79 -93 CURVE SMOOTH",
"79 -119 OFFCURVE",
"97 -147 OFFCURVE",
"136 -147 CURVE SMOOTH",
"170 -147 OFFCURVE",
"194 -120 OFFCURVE",
"194 -99 CURVE SMOOTH"
);
},
{
closed = 1;
nodes = (
"59 97 OFFCURVE",
"57 111 OFFCURVE",
"57 123 CURVE SMOOTH",
"57 161 OFFCURVE",
"71 204 OFFCURVE",
"105 204 CURVE SMOOTH",
"118 204 OFFCURVE",
"130 193 OFFCURVE",
"130 174 CURVE SMOOTH",
"130 139 OFFCURVE",
"104 103 OFFCURVE",
"62 85 CURVE"
);
}
);
width = 255;
}
);
leftKerningGroup = e;
unicode = 0119;
},
{
glyphname = gcommaaccent;
lastChange = "2017-06-09 11:17:31 +0000";
layers = (
{
layerId = UUID0;
paths = (
{
closed = 1;
nodes = (
"197 45 OFFCURVE",
"199 126 OFFCURVE",
"199 127 CURVE SMOOTH",
"199 137 OFFCURVE",
"192 146 OFFCURVE",
"182 146 CURVE SMOOTH",
"172 146 OFFCURVE",
"164 140 OFFCURVE",
"163 130 CURVE SMOOTH",
"154 63 OFFCURVE",
"115 32 OFFCURVE",
"88 32 CURVE SMOOTH",
"60 32 OFFCURVE",
"46 53 OFFCURVE",
"46 84 CURVE SMOOTH",
"46 167 OFFCURVE",
"108 201 OFFCURVE",
"147 201 CURVE SMOOTH",
"173 201 OFFCURVE",
"185 188 OFFCURVE",
"189 185 CURVE SMOOTH",
"193 181 OFFCURVE",
"198 179 OFFCURVE",
"203 179 CURVE SMOOTH",
"212 179 OFFCURVE",
"221 188 OFFCURVE",
"221 198 CURVE SMOOTH",
"221 203 OFFCURVE",
"219 207 OFFCURVE",
"215 211 CURVE SMOOTH",
"214 212 OFFCURVE",
"187 238 OFFCURVE",
"146 238 CURVE SMOOTH",
"86 238 OFFCURVE",
"10 185 OFFCURVE",
"10 83 CURVE SMOOTH",
"10 32 OFFCURVE",
"39 -5 OFFCURVE",
"85 -5 CURVE SMOOTH",
"111 -5 OFFCURVE",
"141 10 OFFCURVE",
"160 35 CURVE",
"159 -3 OFFCURVE",
"159 -50 OFFCURVE",
"158 -95 CURVE",
"79 -183 OFFCURVE",
"21 -335 OFFCURVE",
"21 -434 CURVE SMOOTH",
"21 -495 OFFCURVE",
"45 -529 OFFCURVE",
"88 -529 CURVE SMOOTH",
"180 -529 OFFCURVE",
"196 -384 OFFCURVE",
"196 -237 CURVE SMOOTH",
"196 -189 OFFCURVE",
"195 -149 OFFCURVE",
"195 -108 CURVE",
"276 -7 OFFCURVE",
"328 71 OFFCURVE",
"356 136 CURVE SMOOTH",
"357 139 OFFCURVE",
"358 141 OFFCURVE",
"358 143 CURVE SMOOTH",
"358 153 OFFCURVE",
"350 162 OFFCURVE",
"339 162 CURVE SMOOTH",
"332 162 OFFCURVE",
"326 158 OFFCURVE",
"323 151 CURVE SMOOTH",
"299 98 OFFCURVE",
"257 32 OFFCURVE",
"195 -48 CURVE"
);
},
{
closed = 1;
nodes = (
"159 -184 OFFCURVE",
"159 -212 OFFCURVE",
"159 -240 CURVE SMOOTH",
"159 -333 OFFCURVE",
"151 -493 OFFCURVE",
"89 -493 CURVE SMOOTH",
"77 -493 OFFCURVE",
"58 -485 OFFCURVE",
"58 -438 CURVE SMOOTH",
"58 -362 OFFCURVE",
"97 -239 OFFCURVE",
"158 -155 CURVE"
);
},
{
closed = 1;
nodes = (
"113 292 OFFCURVE",
"122 285 OFFCURVE",
"132 285 CURVE SMOOTH",
"143 285 OFFCURVE",
"149 294 OFFCURVE",
"149 304 CURVE SMOOTH",
"149 336 OFFCURVE",
"160 358 OFFCURVE",
"185 377 CURVE SMOOTH",
"191 382 OFFCURVE",
"193 387 OFFCURVE",
"193 393 CURVE SMOOTH",
"193 400 OFFCURVE",
"187 407 OFFCURVE",
"176 407 CURVE SMOOTH",
"170 407 OFFCURVE",
"164 405 OFFCURVE",
"160 402 CURVE SMOOTH",
"123 375 OFFCURVE",
"113 338 OFFCURVE",
"113 303 CURVE SMOOTH"
);
}
);
width = 304;
}
);
leftKerningGroup = g;
unicode = 0123;
},
{
glyphname = Hbar;
lastChange = "2017-06-09 11:17:31 +0000";
layers = (
{
layerId = UUID0;
paths = (
{
closed = 1;
nodes = (
"742 729 OFFCURVE",
"725 744 OFFCURVE",
"704 744 CURVE SMOOTH",
"671 744 OFFCURVE",
"630 708 OFFCURVE",
"607 626 CURVE",
"591 621 OFFCURVE",
"572 620 OFFCURVE",
"549 620 CURVE SMOOTH",
"432 620 OFFCURVE",
"324 665 OFFCURVE",
"210 665 CURVE SMOOTH",
"111 665 OFFCURVE",
"0 616 OFFCURVE",
"0 501 CURVE SMOOTH",
"0 442 OFFCURVE",
"40 402 OFFCURVE",
"69 384 CURVE SMOOTH",
"72 382 OFFCURVE",
"77 380 OFFCURVE",
"82 380 CURVE SMOOTH",
"91 380 OFFCURVE",
"99 388 OFFCURVE",
"99 398 CURVE SMOOTH",
"99 405 OFFCURVE",
"95 411 OFFCURVE",
"90 415 CURVE SMOOTH",
"83 419 OFFCURVE",
"37 446 OFFCURVE",
"37 501 CURVE SMOOTH",
"37 587 OFFCURVE",
"113 627 OFFCURVE",
"210 627 CURVE SMOOTH",
"327 627 OFFCURVE",
"434 584 OFFCURVE",
"548 584 CURVE SMOOTH",
"566 584 OFFCURVE",
"586 587 OFFCURVE",
"601 590 CURVE",
"596 564 OFFCURVE",
"592 532 OFFCURVE",
"590 500 CURVE SMOOTH",
"589 473 LINE",
"499 473 LINE SMOOTH",
"488 473 OFFCURVE",
"481 464 OFFCURVE",
"481 454 CURVE SMOOTH",
"481 444 OFFCURVE",
"490 437 OFFCURVE",
"500 437 CURVE SMOOTH",
"516 437 OFFCURVE",
"548 438 OFFCURVE",
"587 438 CURVE",
"585 407 OFFCURVE",
"583 376 OFFCURVE",
"580 346 CURVE",
"514 343 OFFCURVE",
"472 341 OFFCURVE",
"471 341 CURVE SMOOTH",
"460 340 OFFCURVE",
"454 332 OFFCURVE",
"454 321 CURVE SMOOTH",
"454 311 OFFCURVE",
"463 304 OFFCURVE",
"473 304 CURVE SMOOTH",
"474 304 OFFCURVE",
"514 306 OFFCURVE",
"576 309 CURVE",
"554 147 OFFCURVE",
"494 18 OFFCURVE",
"302 18 CURVE SMOOTH",
"200 18 OFFCURVE",
"107 61 OFFCURVE",
"67 125 CURVE SMOOTH",
"63 130 OFFCURVE",
"57 133 OFFCURVE",
"51 133 CURVE SMOOTH",
"40 133 OFFCURVE",
"33 124 OFFCURVE",
"33 114 CURVE SMOOTH",
"33 111 OFFCURVE",
"34 107 OFFCURVE",
"36 104 CURVE SMOOTH",
"83 31 OFFCURVE",
"187 -20 OFFCURVE",
"302 -20 CURVE SMOOTH",
"520 -20 OFFCURVE",
"590 130 OFFCURVE",
"614 311 CURVE",
"720 315 OFFCURVE",
"870 321 OFFCURVE",
"1015 321 CURVE",
"1015 289 LINE SMOOTH",
"1015 63 OFFCURVE",
"1076 -23 OFFCURVE",
"1078 -27 CURVE SMOOTH",
"1082 -32 OFFCURVE",
"1087 -35 OFFCURVE",
"1093 -35 CURVE SMOOTH",
"1103 -35 OFFCURVE",
"1111 -26 OFFCURVE",
"1111 -16 CURVE SMOOTH",
"1111 -12 OFFCURVE",
"1110 -9 OFFCURVE",
"1108 -5 CURVE SMOOTH",
"1107 -4 OFFCURVE",
"1052 75 OFFCURVE",
"1052 289 CURVE SMOOTH",
"1052 300 OFFCURVE",
"1052 311 OFFCURVE",
"1052 321 CURVE",
"1124 320 OFFCURVE",
"1152 318 OFFCURVE",
"1178 318 CURVE SMOOTH",
"1187 318 OFFCURVE",
"1196 326 OFFCURVE",
"1196 336 CURVE SMOOTH",
"1196 346 OFFCURVE",
"1189 355 OFFCURVE",
"1178 355 CURVE",
"1138 356 OFFCURVE",
"1096 357 OFFCURVE",
"1053 357 CURVE",
"1055 388 OFFCURVE",
"1057 415 OFFCURVE",
"1061 439 CURVE",
"1090 440 OFFCURVE",
"1120 440 OFFCURVE",
"1147 440 CURVE SMOOTH",
"1158 440 OFFCURVE",
"1165 449 OFFCURVE",
"1165 459 CURVE SMOOTH",
"1165 469 OFFCURVE",
"1156 476 OFFCURVE",
"1146 476 CURVE SMOOTH",
"1066 475 LINE",
"1095 631 OFFCURVE",
"1159 646 OFFCURVE",
"1183 646 CURVE SMOOTH",
"1206 646 OFFCURVE",
"1206 638 OFFCURVE",
"1216 638 CURVE SMOOTH",
"1222 638 OFFCURVE",
"1227 641 OFFCURVE",
"1230 647 CURVE SMOOTH",
"1232 650 OFFCURVE",
"1233 653 OFFCURVE",
"1233 656 CURVE SMOOTH",
"1233 679 OFFCURVE",
"1197 683 OFFCURVE",
"1182 683 CURVE SMOOTH",
"1107 683 OFFCURVE",
"1053 609 OFFCURVE",
"1029 475 CURVE",
"626 473 LINE",
"627 481 OFFCURVE",
"627 490 OFFCURVE",
"627 498 CURVE SMOOTH",
"628 539 OFFCURVE",
"633 572 OFFCURVE",
"639 600 CURVE",
"688 619 OFFCURVE",
"742 663 OFFCURVE",
"742 708 CURVE SMOOTH"
);
},
{
closed = 1;
nodes = (
"873 357 OFFCURVE",
"725 352 OFFCURVE",
"619 348 CURVE",
"622 377 OFFCURVE",
"624 408 OFFCURVE",
"625 438 CURVE",
"732 438 OFFCURVE",
"883 438 OFFCURVE",
"1023 439 CURVE",
"1020 414 OFFCURVE",
"1018 386 OFFCURVE",
"1016 357 CURVE"
);
},
{
closed = 1;
nodes = (
"714 709 OFFCURVE",
"689 659 OFFCURVE",
"647 639 CURVE",
"662 687 OFFCURVE",
"691 709 OFFCURVE",
"701 709 CURVE SMOOTH"
);
}
);
width = 1184;
}
);
leftKerningGroup = H;
rightKerningGroup = H;
unicode = 0126;
},
{
glyphname = hbar;
lastChange = "2017-06-09 11:17:31 +0000";
layers = (
{
layerId = UUID0;
paths = (
{
closed = 1;
nodes = (
"57 64 LINE SMOOTH",
"56 82 OFFCURVE",
"57 126 OFFCURVE",
"57 150 CURVE",
"104 236 OFFCURVE",
"146 329 OFFCURVE",
"169 428 CURVE",
"192 429 OFFCURVE",
"219 429 OFFCURVE",
"250 429 CURVE SMOOTH",
"261 429 OFFCURVE",
"268 437 OFFCURVE",
"268 448 CURVE SMOOTH",
"268 458 OFFCURVE",
"259 464 OFFCURVE",
"249 464 CURVE SMOOTH",
"176 463 LINE",
"182 499 OFFCURVE",
"186 535 OFFCURVE",
"186 571 CURVE SMOOTH",
"186 647 OFFCURVE",
"167 712 OFFCURVE",
"111 712 CURVE SMOOTH",
"55 712 OFFCURVE",
"34 616 OFFCURVE",
"25 462 CURVE",
"-54 461 LINE SMOOTH",
"-65 461 OFFCURVE",
"-71 453 OFFCURVE",
"-71 443 CURVE SMOOTH",
"-71 433 OFFCURVE",
"-63 426 OFFCURVE",
"-53 426 CURVE SMOOTH",
"-21 427 OFFCURVE",
"-4 427 OFFCURVE",
"23 427 CURVE",
"20 325 OFFCURVE",
"20 201 OFFCURVE",
"20 64 CURVE SMOOTH",
"20 33 LINE SMOOTH",
"20 11 OFFCURVE",
"31 -8 OFFCURVE",
"51 -8 CURVE SMOOTH",
"62 -8 OFFCURVE",
"77 0 OFFCURVE",
"91 27 CURVE SMOOTH",
"112 70 OFFCURVE",
"174 190 OFFCURVE",
"205 190 CURVE SMOOTH",
"212 190 OFFCURVE",
"219 185 OFFCURVE",
"219 165 CURVE SMOOTH",
"219 149 OFFCURVE",
"214 117 OFFCURVE",
"214 93 CURVE SMOOTH",
"214 48 OFFCURVE",
"225 -8 OFFCURVE",
"284 -8 CURVE SMOOTH",
"363 -8 OFFCURVE",
"421 121 OFFCURVE",
"428 136 CURVE SMOOTH",
"429 139 OFFCURVE",
"429 141 OFFCURVE",
"429 144 CURVE SMOOTH",
"429 152 OFFCURVE",
"422 162 OFFCURVE",
"411 162 CURVE SMOOTH",
"404 162 OFFCURVE",
"397 158 OFFCURVE",
"394 151 CURVE SMOOTH",
"379 117 OFFCURVE",
"330 29 OFFCURVE",
"283 29 CURVE SMOOTH",
"255 29 OFFCURVE",
"251 61 OFFCURVE",
"251 93 CURVE SMOOTH",
"251 120 OFFCURVE",
"255 147 OFFCURVE",
"255 162 CURVE SMOOTH",
"255 198 OFFCURVE",
"239 227 OFFCURVE",
"205 227 CURVE SMOOTH",
"188 227 OFFCURVE",
"168 218 OFFCURVE",
"149 195 CURVE SMOOTH",
"112 147 OFFCURVE",
"78 85 OFFCURVE",
"57 42 CURVE"
);
},
{
closed = 1;
nodes = (
"147 675 OFFCURVE",
"149 593 OFFCURVE",
"149 572 CURVE SMOOTH",
"149 534 OFFCURVE",
"146 498 OFFCURVE",
"139 463 CURVE",
"61 462 LINE",
"67 574 OFFCURVE",
"80 675 OFFCURVE",
"111 675 CURVE SMOOTH"
);
},
{
closed = 1;
nodes = (
"57 270 OFFCURVE",
"57 349 OFFCURVE",
"60 428 CURVE",
"78 428 OFFCURVE",
"101 428 OFFCURVE",
"132 428 CURVE",
"116 359 OFFCURVE",
"89 293 OFFCURVE",
"57 222 CURVE"
);
}
);
width = 375;
}
);
leftKerningGroup = h;
unicode = 0127;
},
{
glyphname = Iogonek;
lastChange = "2017-06-09 11:17:31 +0000";
layers = (
{
layerId = UUID0;
paths = (
{
closed = 1;
nodes = (
"322 -123 OFFCURVE",
"316 -116 OFFCURVE",
"307 -116 CURVE SMOOTH",
"301 -116 OFFCURVE",
"295 -119 OFFCURVE",
"292 -125 CURVE SMOOTH",
"287 -134 OFFCURVE",
"280 -147 OFFCURVE",
"263 -147 CURVE SMOOTH",
"250 -147 OFFCURVE",
"241 -140 OFFCURVE",
"241 -125 CURVE SMOOTH",
"241 -92 OFFCURVE",
"284 -44 OFFCURVE",
"284 -43 CURVE SMOOTH",
"288 -40 OFFCURVE",
"290 -36 OFFCURVE",
"291 -32 CURVE",
"536 -10 OFFCURVE",
"573 221 OFFCURVE",
"573 481 CURVE SMOOTH",
"573 540 OFFCURVE",
"579 587 OFFCURVE",
"586 623 CURVE",
"627 659 OFFCURVE",
"649 694 OFFCURVE",
"649 721 CURVE SMOOTH",
"649 741 OFFCURVE",
"636 757 OFFCURVE",
"620 757 CURVE SMOOTH",
"596 757 OFFCURVE",
"570 720 OFFCURVE",
"552 642 CURVE",
"488 588 OFFCURVE",
"292 560 OFFCURVE",
"292 440 CURVE SMOOTH",
"292 350 OFFCURVE",
"371 318 OFFCURVE",
"414 308 CURVE SMOOTH",
"416 308 OFFCURVE",
"421 307 OFFCURVE",
"422 307 CURVE SMOOTH",
"432 307 OFFCURVE",
"439 315 OFFCURVE",
"439 326 CURVE SMOOTH",
"439 333 OFFCURVE",
"436 339 OFFCURVE",
"425 342 CURVE SMOOTH",
"421 343 OFFCURVE",
"330 356 OFFCURVE",
"330 437 CURVE SMOOTH",
"330 525 OFFCURVE",
"466 556 OFFCURVE",
"544 598 CURVE",
"540 565 OFFCURVE",
"537 523 OFFCURVE",
"536 482 CURVE SMOOTH",
"534 222 OFFCURVE",
"503 1 OFFCURVE",
"255 1 CURVE SMOOTH",
"166 1 OFFCURVE",
"39 37 OFFCURVE",
"39 145 CURVE SMOOTH",
"39 226 OFFCURVE",
"114 286 OFFCURVE",
"203 286 CURVE SMOOTH",
"209 286 OFFCURVE",
"216 286 OFFCURVE",
"222 286 CURVE SMOOTH",
"232 286 OFFCURVE",
"241 293 OFFCURVE",
"241 304 CURVE SMOOTH",
"241 324 OFFCURVE",
"220 323 OFFCURVE",
"203 323 CURVE SMOOTH",
"94 323 OFFCURVE",
"2 246 OFFCURVE",
"2 145 CURVE SMOOTH",
"2 44 OFFCURVE",
"93 -33 OFFCURVE",
"248 -34 CURVE",
"231 -55 OFFCURVE",
"208 -90 OFFCURVE",
"208 -125 CURVE SMOOTH",
"208 -151 OFFCURVE",
"225 -179 OFFCURVE",
"264 -179 CURVE SMOOTH",
"298 -179 OFFCURVE",
"322 -152 OFFCURVE",
"322 -131 CURVE SMOOTH"
);
}
);
width = 635;
}
);
leftKerningGroup = I;
rightKerningGroup = I;
unicode = 012E;
},
{
glyphname = iogonek;
lastChange = "2017-06-09 11:17:31 +0000";
layers = (
{
layerId = UUID0;
paths = (
{
closed = 1;
nodes = (
"106 -94 OFFCURVE",
"100 -86 OFFCURVE",
"91 -86 CURVE SMOOTH",
"85 -86 OFFCURVE",
"79 -90 OFFCURVE",
"76 -96 CURVE SMOOTH",
"71 -104 OFFCURVE",
"64 -118 OFFCURVE",
"47 -118 CURVE SMOOTH",
"34 -118 OFFCURVE",
"25 -110 OFFCURVE",
"25 -96 CURVE SMOOTH",
"25 -63 OFFCURVE",
"68 -15 OFFCURVE",
"68 -14 CURVE SMOOTH",
"69 -13 OFFCURVE",
"70 -12 OFFCURVE",
"71 -11 CURVE",
"82 -16 OFFCURVE",
"94 -20 OFFCURVE",
"108 -20 CURVE SMOOTH",
"177 -20 OFFCURVE",
"239 89 OFFCURVE",
"262 135 CURVE SMOOTH",
"263 138 OFFCURVE",
"264 141 OFFCURVE",
"264 144 CURVE SMOOTH",
"264 152 OFFCURVE",
"256 162 OFFCURVE",
"246 162 CURVE SMOOTH",
"239 162 OFFCURVE",
"232 158 OFFCURVE",
"229 152 CURVE SMOOTH",
"189 71 OFFCURVE",
"145 18 OFFCURVE",
"109 18 CURVE SMOOTH",
"87 18 OFFCURVE",
"56 30 OFFCURVE",
"56 99 CURVE SMOOTH",
"56 149 OFFCURVE",
"64 229 OFFCURVE",
"64 236 CURVE SMOOTH",
"64 246 OFFCURVE",
"57 254 OFFCURVE",
"47 254 CURVE SMOOTH",
"36 254 OFFCURVE",
"29 247 OFFCURVE",
"28 237 CURVE SMOOTH",
"22 191 OFFCURVE",
"19 144 OFFCURVE",
"19 97 CURVE SMOOTH",
"19 62 OFFCURVE",
"28 32 OFFCURVE",
"45 10 CURVE",
"35 0 OFFCURVE",
"-8 -48 OFFCURVE",
"-8 -96 CURVE SMOOTH",
"-8 -122 OFFCURVE",
"9 -150 OFFCURVE",
"48 -150 CURVE SMOOTH",
"83 -150 OFFCURVE",
"106 -123 OFFCURVE",
"106 -102 CURVE SMOOTH"
);
},
{
closed = 1;
nodes = (
"98 408 OFFCURVE",
"78 428 OFFCURVE",
"54 428 CURVE SMOOTH",
"29 428 OFFCURVE",
"9 408 OFFCURVE",
"9 383 CURVE SMOOTH",
"9 359 OFFCURVE",
"29 339 OFFCURVE",
"54 339 CURVE SMOOTH",
"78 339 OFFCURVE",
"98 359 OFFCURVE",
"98 383 CURVE SMOOTH"
);
},
{
closed = 1;
nodes = (
"71 374 OFFCURVE",
"63 367 OFFCURVE",
"54 367 CURVE SMOOTH",
"44 367 OFFCURVE",
"37 374 OFFCURVE",
"37 383 CURVE SMOOTH",
"37 393 OFFCURVE",
"44 400 OFFCURVE",
"54 400 CURVE SMOOTH",
"63 400 OFFCURVE",
"71 393 OFFCURVE",
"71 383 CURVE SMOOTH"
);
}
);
width = 210;
}
);
leftKerningGroup = i;
unicode = 012F;
},
{
glyphname = dotlessi;
lastChange = "2017-06-09 11:17:31 +0000";
layers = (
{
anchors = (
{
name = top;
position = "{50, 301}";
}
);
layerId = UUID0;
paths = (
{
closed = 1;
nodes = (
"19 33 OFFCURVE",
"50 -20 OFFCURVE",
"108 -20 CURVE SMOOTH",
"177 -20 OFFCURVE",
"239 89 OFFCURVE",
"262 135 CURVE SMOOTH",
"263 138 OFFCURVE",
"264 141 OFFCURVE",
"264 144 CURVE SMOOTH",
"264 152 OFFCURVE",
"256 162 OFFCURVE",
"246 162 CURVE SMOOTH",
"239 162 OFFCURVE",
"232 158 OFFCURVE",
"229 152 CURVE SMOOTH",
"189 71 OFFCURVE",
"145 18 OFFCURVE",
"109 18 CURVE SMOOTH",
"87 18 OFFCURVE",
"56 30 OFFCURVE",
"56 99 CURVE SMOOTH",
"56 149 OFFCURVE",
"64 229 OFFCURVE",
"64 236 CURVE SMOOTH",
"64 246 OFFCURVE",
"57 254 OFFCURVE",
"47 254 CURVE SMOOTH",
"36 254 OFFCURVE",
"29 247 OFFCURVE",
"28 237 CURVE SMOOTH",
"22 191 OFFCURVE",
"19 144 OFFCURVE",
"19 97 CURVE SMOOTH"
);
}
);
width = 210;
}
);
leftKerningGroup = i;
unicode = 0131;
},
{
glyphname = ij;
lastChange = "2017-06-09 11:17:31 +0000";
layers = (
{
layerId = UUID0;
paths = (
{
closed = 1;
nodes = (
"266 150 OFFCURVE",
"276 229 OFFCURVE",
"276 236 CURVE SMOOTH",
"276 246 OFFCURVE",
"268 254 OFFCURVE",
"258 254 CURVE SMOOTH",
"249 254 OFFCURVE",
"241 248 OFFCURVE",
"240 238 CURVE SMOOTH",
"237 216 OFFCURVE",
"235 188 OFFCURVE",
"233 158 CURVE",
"231 156 OFFCURVE",
"230 154 OFFCURVE",
"229 152 CURVE SMOOTH",
"189 71 OFFCURVE",
"145 18 OFFCURVE",
"109 18 CURVE SMOOTH",
"87 18 OFFCURVE",
"56 30 OFFCURVE",
"56 99 CURVE SMOOTH",
"56 149 OFFCURVE",
"64 229 OFFCURVE",
"64 236 CURVE SMOOTH",
"64 246 OFFCURVE",
"57 254 OFFCURVE",
"47 254 CURVE SMOOTH",
"36 254 OFFCURVE",
"29 247 OFFCURVE",
"28 237 CURVE SMOOTH",
"22 191 OFFCURVE",
"19 144 OFFCURVE",
"19 97 CURVE SMOOTH",
"19 33 OFFCURVE",
"50 -20 OFFCURVE",
"108 -20 CURVE SMOOTH",
"156 -20 OFFCURVE",
"200 32 OFFCURVE",
"230 80 CURVE",
"229 36 OFFCURVE",
"229 -10 OFFCURVE",
"229 -57 CURVE",
"122 -173 OFFCURVE",
"81 -288 OFFCURVE",
"81 -368 CURVE SMOOTH",
"81 -441 OFFCURVE",
"114 -483 OFFCURVE",
"163 -483 CURVE SMOOTH",
"232 -483 OFFCURVE",
"268 -398 OFFCURVE",
"268 -219 CURVE SMOOTH",
"268 -174 OFFCURVE",
"266 -123 OFFCURVE",
"266 -71 CURVE",
"318 -13 OFFCURVE",
"398 69 OFFCURVE",
"428 136 CURVE SMOOTH",
"429 139 OFFCURVE",
"430 141 OFFCURVE",
"430 144 CURVE SMOOTH",
"430 153 OFFCURVE",
"422 162 OFFCURVE",
"411 162 CURVE SMOOTH",
"404 162 OFFCURVE",
"397 158 OFFCURVE",
"395 151 CURVE SMOOTH",
"372 101 OFFCURVE",
"313 35 OFFCURVE",
"266 -17 CURVE"
);
},
{
closed = 1;
nodes = (
"231 -427 OFFCURVE",
"185 -447 OFFCURVE",
"163 -447 CURVE SMOOTH",
"126 -447 OFFCURVE",
"117 -404 OFFCURVE",
"117 -368 CURVE SMOOTH",
"117 -304 OFFCURVE",
"149 -210 OFFCURVE",
"229 -112 CURVE",
"230 -151 OFFCURVE",
"231 -184 OFFCURVE",
"231 -216 CURVE SMOOTH"
);
},
{
closed = 1;
nodes = (
"98 408 OFFCURVE",
"78 428 OFFCURVE",
"54 428 CURVE SMOOTH",
"29 428 OFFCURVE",
"9 408 OFFCURVE",
"9 383 CURVE SMOOTH",
"9 359 OFFCURVE",
"29 339 OFFCURVE",
"54 339 CURVE SMOOTH",
"78 339 OFFCURVE",
"98 359 OFFCURVE",
"98 383 CURVE SMOOTH"
);
},
{
closed = 1;
nodes = (
"312 408 OFFCURVE",
"292 428 OFFCURVE",
"268 428 CURVE SMOOTH",
"244 428 OFFCURVE",
"224 408 OFFCURVE",
"224 383 CURVE SMOOTH",
"224 359 OFFCURVE",
"244 339 OFFCURVE",
"268 339 CURVE SMOOTH",
"292 339 OFFCURVE",
"312 359 OFFCURVE",
"312 383 CURVE SMOOTH"
);
},
{
closed = 1;
nodes = (
"71 374 OFFCURVE",
"63 367 OFFCURVE",
"54 367 CURVE SMOOTH",
"44 367 OFFCURVE",
"37 374 OFFCURVE",
"37 383 CURVE SMOOTH",
"37 393 OFFCURVE",
"44 400 OFFCURVE",
"54 400 CURVE SMOOTH",
"63 400 OFFCURVE",
"71 393 OFFCURVE",
"71 383 CURVE SMOOTH"
);
},
{
closed = 1;
nodes = (
"285 374 OFFCURVE",
"277 367 OFFCURVE",
"268 367 CURVE SMOOTH",
"259 367 OFFCURVE",
"251 374 OFFCURVE",
"251 383 CURVE SMOOTH",
"251 393 OFFCURVE",
"259 400 OFFCURVE",
"268 400 CURVE SMOOTH",
"277 400 OFFCURVE",
"285 393 OFFCURVE",
"285 383 CURVE SMOOTH"
);
}
);
width = 376;
}
);
unicode = 0133;
},
{
glyphname = dotlessj;
lastChange = "2017-06-09 11:17:31 +0000";
layers = (
{
anchors = (
{
name = top;
position = "{48, 302}";
}
);
layerId = UUID0;
paths = (
{
closed = 1;
nodes = (
"56 150 OFFCURVE",
"66 229 OFFCURVE",
"66 236 CURVE SMOOTH",
"66 246 OFFCURVE",
"58 254 OFFCURVE",
"48 254 CURVE SMOOTH",
"39 254 OFFCURVE",
"31 248 OFFCURVE",
"30 238 CURVE SMOOTH",
"22 170 OFFCURVE",
"19 55 OFFCURVE",
"19 -57 CURVE",
"-88 -173 OFFCURVE",
"-129 -288 OFFCURVE",
"-129 -368 CURVE SMOOTH",
"-129 -441 OFFCURVE",
"-96 -483 OFFCURVE",
"-47 -483 CURVE SMOOTH",
"22 -483 OFFCURVE",
"58 -398 OFFCURVE",
"58 -219 CURVE SMOOTH",
"58 -174 OFFCURVE",
"56 -123 OFFCURVE",
"56 -71 CURVE",
"108 -13 OFFCURVE",
"188 69 OFFCURVE",
"218 136 CURVE SMOOTH",
"219 139 OFFCURVE",
"220 141 OFFCURVE",
"220 144 CURVE SMOOTH",
"220 153 OFFCURVE",
"212 162 OFFCURVE",
"201 162 CURVE SMOOTH",
"194 162 OFFCURVE",
"187 158 OFFCURVE",
"185 151 CURVE SMOOTH",
"162 101 OFFCURVE",
"104 35 OFFCURVE",
"56 -17 CURVE"
);
},
{
closed = 1;
nodes = (
"21 -427 OFFCURVE",
"-25 -447 OFFCURVE",
"-47 -447 CURVE SMOOTH",
"-83 -447 OFFCURVE",
"-93 -404 OFFCURVE",
"-93 -368 CURVE SMOOTH",
"-93 -304 OFFCURVE",
"-61 -210 OFFCURVE",
"20 -112 CURVE",
"20 -151 OFFCURVE",
"21 -184 OFFCURVE",
"21 -216 CURVE SMOOTH"
);
}
);
width = 166;
}
);
leftKerningGroup = j;
unicode = 0237;
},
{
glyphname = kgreenlandic;
lastChange = "2017-06-09 11:17:31 +0000";
layers = (
{
layerId = UUID0;
paths = (
{
closed = 1;
nodes = (
"200 78 OFFCURVE",
"257 117 OFFCURVE",
"257 176 CURVE SMOOTH",
"257 213 OFFCURVE",
"228 243 OFFCURVE",
"190 243 CURVE SMOOTH",
"122 243 OFFCURVE",
"79 152 OFFCURVE",
"58 85 CURVE",
"60 160 OFFCURVE",
"61 219 OFFCURVE",
"61 224 CURVE SMOOTH",
"61 235 OFFCURVE",
"52 243 OFFCURVE",
"42 243 CURVE SMOOTH",
"33 243 OFFCURVE",
"23 235 OFFCURVE",
"23 225 CURVE SMOOTH",
"23 199 OFFCURVE",
"20 28 OFFCURVE",
"20 9 CURVE SMOOTH",
"20 -11 OFFCURVE",
"31 -18 OFFCURVE",
"41 -18 CURVE SMOOTH",
"61 -18 OFFCURVE",
"66 4 OFFCURVE",
"70 19 CURVE SMOOTH",
"87 89 OFFCURVE",
"137 206 OFFCURVE",
"190 206 CURVE SMOOTH",
"207 206 OFFCURVE",
"220 194 OFFCURVE",
"220 176 CURVE SMOOTH",
"220 136 OFFCURVE",
"182 106 OFFCURVE",
"128 91 CURVE SMOOTH",
"109 85 OFFCURVE",
"107 69 OFFCURVE",
"107 64 CURVE SMOOTH",
"107 23 OFFCURVE",
"153 -17 OFFCURVE",
"212 -17 CURVE SMOOTH",
"286 -17 OFFCURVE",
"356 41 OFFCURVE",
"401 136 CURVE SMOOTH",
"402 138 OFFCURVE",
"403 141 OFFCURVE",
"403 144 CURVE SMOOTH",
"403 153 OFFCURVE",
"395 162 OFFCURVE",
"384 162 CURVE SMOOTH",
"377 162 OFFCURVE",
"371 158 OFFCURVE",
"368 151 CURVE SMOOTH",
"307 21 OFFCURVE",
"231 20 OFFCURVE",
"212 20 CURVE SMOOTH",
"180 20 OFFCURVE",
"152 35 OFFCURVE",
"142 60 CURVE"
);
}
);
width = 349;
}
);
leftKerningGroup = k;
unicode = 0138;
},
{
glyphname = Lslash;
lastChange = "2017-06-09 11:17:31 +0000";
layers = (
{
layerId = UUID0;
paths = (
{
closed = 1;
nodes = (
"881 83 OFFCURVE",
"882 86 OFFCURVE",
"882 89 CURVE SMOOTH",
"882 99 OFFCURVE",
"874 108 OFFCURVE",
"863 108 CURVE SMOOTH",
"857 108 OFFCURVE",
"851 104 OFFCURVE",
"848 99 CURVE SMOOTH",
"847 98 OFFCURVE",
"799 22 OFFCURVE",
"695 22 CURVE SMOOTH",
"577 22 OFFCURVE",
"487 94 OFFCURVE",
"387 146 CURVE",
"398 173 OFFCURVE",
"403 212 OFFCURVE",
"403 239 CURVE SMOOTH",
"403 264 OFFCURVE",
"402 286 OFFCURVE",
"401 313 CURVE",
"546 365 LINE SMOOTH",
"553 368 OFFCURVE",
"557 375 OFFCURVE",
"557 382 CURVE SMOOTH",
"557 393 OFFCURVE",
"548 400 OFFCURVE",
"539 400 CURVE SMOOTH",
"537 400 OFFCURVE",
"534 400 OFFCURVE",
"532 399 CURVE SMOOTH",
"399 353 LINE",
"399 368 OFFCURVE",
"399 385 OFFCURVE",
"399 405 CURVE SMOOTH",
"399 573 OFFCURVE",
"455 684 OFFCURVE",
"577 684 CURVE SMOOTH",
"642 684 OFFCURVE",
"700 642 OFFCURVE",
"700 577 CURVE SMOOTH",
"700 544 OFFCURVE",
"686 519 OFFCURVE",
"667 502 CURVE SMOOTH",
"663 498 OFFCURVE",
"658 493 OFFCURVE",
"658 485 CURVE SMOOTH",
"658 474 OFFCURVE",
"667 469 OFFCURVE",
"676 469 CURVE SMOOTH",
"708 469 OFFCURVE",
"737 530 OFFCURVE",
"737 577 CURVE SMOOTH",
"737 663 OFFCURVE",
"662 720 OFFCURVE",
"576 720 CURVE SMOOTH",
"435 720 OFFCURVE",
"362 594 OFFCURVE",
"362 408 CURVE SMOOTH",
"362 380 OFFCURVE",
"362 358 OFFCURVE",
"363 339 CURVE",
"247 298 LINE SMOOTH",
"240 296 OFFCURVE",
"235 289 OFFCURVE",
"235 281 CURVE SMOOTH",
"235 271 OFFCURVE",
"244 263 OFFCURVE",
"253 263 CURVE SMOOTH",
"255 263 OFFCURVE",
"259 264 OFFCURVE",
"261 264 CURVE SMOOTH",
"365 301 LINE",
"366 285 OFFCURVE",
"366 271 OFFCURVE",
"366 254 CURVE SMOOTH",
"366 208 OFFCURVE",
"362 188 OFFCURVE",
"354 164 CURVE",
"295 193 OFFCURVE",
"220 222 OFFCURVE",
"146 222 CURVE SMOOTH",
"47 222 OFFCURVE",
"-29 173 OFFCURVE",
"-29 94 CURVE SMOOTH",
"-29 11 OFFCURVE",
"54 -16 OFFCURVE",
"125 -16 CURVE SMOOTH",
"200 -16 OFFCURVE",
"308 6 OFFCURVE",
"372 113 CURVE",
"477 56 OFFCURVE",
"568 -15 OFFCURVE",
"696 -15 CURVE SMOOTH",
"819 -15 OFFCURVE",
"876 76 OFFCURVE",
"879 80 CURVE SMOOTH"
);
},
{
closed = 1;
nodes = (
"291 41 OFFCURVE",
"202 20 OFFCURVE",
"126 20 CURVE SMOOTH",
"63 20 OFFCURVE",
"7 44 OFFCURVE",
"7 96 CURVE SMOOTH",
"7 152 OFFCURVE",
"70 186 OFFCURVE",
"147 186 CURVE SMOOTH",
"215 186 OFFCURVE",
"284 159 OFFCURVE",
"340 131 CURVE"
);
}
);
width = 901;
}
);
leftKerningGroup = L;
rightKerningGroup = L;
unicode = 0141;
},
{
glyphname = lslash;
lastChange = "2017-06-09 11:17:31 +0000";
layers = (
{
layerId = UUID0;
paths = (
{
closed = 1;
nodes = (
"297 138 OFFCURVE",
"298 141 OFFCURVE",
"298 143 CURVE SMOOTH",
"298 153 OFFCURVE",
"291 162 OFFCURVE",
"280 162 CURVE SMOOTH",
"273 162 OFFCURVE",
"266 158 OFFCURVE",
"263 152 CURVE SMOOTH",
"247 117 OFFCURVE",
"200 22 OFFCURVE",
"148 22 CURVE SMOOTH",
"110 22 OFFCURVE",
"82 73 OFFCURVE",
"66 155 CURVE",
"91 201 OFFCURVE",
"114 248 OFFCURVE",
"134 296 CURVE",
"232 331 LINE SMOOTH",
"239 333 OFFCURVE",
"243 341 OFFCURVE",
"243 348 CURVE SMOOTH",
"243 359 OFFCURVE",
"234 366 OFFCURVE",
"225 366 CURVE SMOOTH",
"223 366 OFFCURVE",
"220 366 OFFCURVE",
"218 365 CURVE SMOOTH",
"151 341 LINE",
"179 419 OFFCURVE",
"197 497 OFFCURVE",
"197 568 CURVE SMOOTH",
"197 673 OFFCURVE",
"170 712 OFFCURVE",
"127 712 CURVE SMOOTH",
"46 712 OFFCURVE",
"15 499 OFFCURVE",
"15 334 CURVE SMOOTH",
"15 322 OFFCURVE",
"15 308 OFFCURVE",
"15 293 CURVE",
"-67 264 LINE SMOOTH",
"-74 262 OFFCURVE",
"-79 254 OFFCURVE",
"-79 247 CURVE SMOOTH",
"-79 237 OFFCURVE",
"-70 229 OFFCURVE",
"-61 229 CURVE SMOOTH",
"-59 229 OFFCURVE",
"-55 229 OFFCURVE",
"-53 230 CURVE",
"17 255 LINE",
"24 137 OFFCURVE",
"53 -15 OFFCURVE",
"146 -15 CURVE SMOOTH",
"222 -15 OFFCURVE",
"274 91 OFFCURVE",
"296 135 CURVE SMOOTH"
);
},
{
closed = 1;
nodes = (
"52 332 LINE",
"52 496 OFFCURVE",
"84 675 OFFCURVE",
"126 675 CURVE SMOOTH",
"147 675 OFFCURVE",
"160 645 OFFCURVE",
"160 568 CURVE SMOOTH",
"160 494 OFFCURVE",
"137 407 OFFCURVE",
"106 325 CURVE",
"52 306 LINE"
);
},
{
closed = 1;
nodes = (
"87 280 LINE",
"78 258 OFFCURVE",
"67 236 OFFCURVE",
"57 216 CURVE",
"56 232 OFFCURVE",
"54 250 OFFCURVE",
"53 268 CURVE"
);
}
);
width = 245;
}
);
leftKerningGroup = l;
unicode = 0142;
},
{
glyphname = Eng;
lastChange = "2017-06-09 11:17:31 +0000";
layers = (
{
layerId = UUID0;
paths = (
{
closed = 1;
nodes = (
"1299 737 LINE SMOOTH",
"1299 751 OFFCURVE",
"1290 756 OFFCURVE",
"1267 756 CURVE SMOOTH",
"1147 756 OFFCURVE",
"1069 666 OFFCURVE",
"1040 551 CURVE SMOOTH",
"1021 479 OFFCURVE",
"983 252 OFFCURVE",
"963 96 CURVE",
"899 289 OFFCURVE",
"757 671 OFFCURVE",
"750 689 CURVE SMOOTH",
"747 697 OFFCURVE",
"741 702 OFFCURVE",
"733 702 CURVE SMOOTH",
"722 702 OFFCURVE",
"714 693 OFFCURVE",
"714 683 CURVE SMOOTH",
"714 673 LINE SMOOTH",
"714 634 OFFCURVE",
"710 482 OFFCURVE",
"640 303 CURVE SMOOTH",
"539 41 OFFCURVE",
"326 26 OFFCURVE",
"260 26 CURVE SMOOTH",
"146 26 OFFCURVE",
"51 90 OFFCURVE",
"51 186 CURVE SMOOTH",
"51 273 OFFCURVE",
"141 339 OFFCURVE",
"233 339 CURVE SMOOTH",
"346 339 OFFCURVE",
"390 263 OFFCURVE",
"392 259 CURVE SMOOTH",
"395 253 OFFCURVE",
"401 250 OFFCURVE",
"408 250 CURVE SMOOTH",
"419 250 OFFCURVE",
"426 259 OFFCURVE",
"426 268 CURVE SMOOTH",
"426 271 OFFCURVE",
"426 274 OFFCURVE",
"424 277 CURVE SMOOTH",
"421 283 OFFCURVE",
"369 375 OFFCURVE",
"230 375 CURVE SMOOTH",
"118 375 OFFCURVE",
"15 292 OFFCURVE",
"15 187 CURVE SMOOTH",
"15 69 OFFCURVE",
"118 -11 OFFCURVE",
"261 -11 CURVE SMOOTH",
"324 -11 OFFCURVE",
"565 7 OFFCURVE",
"674 289 CURVE SMOOTH",
"722 411 OFFCURVE",
"740 519 OFFCURVE",
"747 591 CURVE",
"794 464 OFFCURVE",
"881 225 OFFCURVE",
"927 86 CURVE",
"775 39 OFFCURVE",
"634 -60 OFFCURVE",
"634 -185 CURVE SMOOTH",
"634 -262 OFFCURVE",
"684 -330 OFFCURVE",
"768 -330 CURVE SMOOTH",
"961 -330 OFFCURVE",
"988 -18 OFFCURVE",
"989 7 CURVE",
"991 24 OFFCURVE",
"994 44 OFFCURVE",
"996 66 CURVE",
"1026 73 OFFCURVE",
"1057 77 OFFCURVE",
"1086 79 CURVE SMOOTH",
"1096 79 OFFCURVE",
"1104 87 OFFCURVE",
"1104 96 CURVE SMOOTH",
"1104 108 OFFCURVE",
"1094 116 OFFCURVE",
"1084 116 CURVE SMOOTH",
"1057 114 OFFCURVE",
"1029 110 OFFCURVE",
"1001 105 CURVE",
"1022 258 OFFCURVE",
"1057 474 OFFCURVE",
"1076 541 CURVE SMOOTH",
"1122 704 OFFCURVE",
"1229 719 OFFCURVE",
"1266 719 CURVE SMOOTH",
"1277 719 OFFCURVE",
"1279 718 OFFCURVE",
"1280 718 CURVE SMOOTH",
"1289 718 OFFCURVE",
"1297 725 OFFCURVE",
"1299 734 CURVE"
);
},
{
closed = 1;
nodes = (
"715 -294 OFFCURVE",
"671 -250 OFFCURVE",
"671 -185 CURVE SMOOTH",
"671 -78 OFFCURVE",
"796 9 OFFCURVE",
"938 52 CURVE",
"945 33 OFFCURVE",
"950 17 OFFCURVE",
"953 5 CURVE",
"948 -36 OFFCURVE",
"921 -294 OFFCURVE",
"767 -294 CURVE SMOOTH"
);
}
);
width = 1149;
}
);
leftKerningGroup = N;
rightKerningGroup = N;
unicode = 014A;
},
{
glyphname = eng;
lastChange = "2017-06-09 11:17:31 +0000";
layers = (
{
layerId = UUID0;
paths = (
{
closed = 1;
nodes = (
"176 -173 OFFCURVE",
"135 -288 OFFCURVE",
"135 -368 CURVE SMOOTH",
"135 -441 OFFCURVE",
"168 -483 OFFCURVE",
"217 -483 CURVE SMOOTH",
"287 -483 OFFCURVE",
"322 -398 OFFCURVE",
"322 -219 CURVE SMOOTH",
"322 -174 OFFCURVE",
"320 -123 OFFCURVE",
"320 -71 CURVE",
"372 -13 OFFCURVE",
"453 69 OFFCURVE",
"482 136 CURVE SMOOTH",
"483 139 OFFCURVE",
"484 141 OFFCURVE",
"484 144 CURVE SMOOTH",
"484 153 OFFCURVE",
"477 162 OFFCURVE",
"465 162 CURVE SMOOTH",
"458 162 OFFCURVE",
"452 158 OFFCURVE",
"449 151 CURVE SMOOTH",
"426 101 OFFCURVE",
"368 35 OFFCURVE",
"320 -17 CURVE",
"320 52 OFFCURVE",
"324 133 OFFCURVE",
"324 163 CURVE SMOOTH",
"324 199 OFFCURVE",
"308 227 OFFCURVE",
"274 227 CURVE SMOOTH",
"257 227 OFFCURVE",
"237 218 OFFCURVE",
"219 195 CURVE SMOOTH",
"182 148 OFFCURVE",
"148 87 OFFCURVE",
"127 44 CURVE",
"130 82 OFFCURVE",
"138 165 OFFCURVE",
"138 188 CURVE SMOOTH",
"138 219 OFFCURVE",
"128 252 OFFCURVE",
"98 252 CURVE SMOOTH",
"72 252 OFFCURVE",
"47 220 OFFCURVE",
"18 151 CURVE SMOOTH",
"17 148 OFFCURVE",
"17 146 OFFCURVE",
"17 144 CURVE SMOOTH",
"17 134 OFFCURVE",
"24 125 OFFCURVE",
"35 125 CURVE SMOOTH",
"42 125 OFFCURVE",
"49 129 OFFCURVE",
"52 136 CURVE SMOOTH",
"76 193 OFFCURVE",
"91 212 OFFCURVE",
"97 214 CURVE",
"101 211 OFFCURVE",
"102 193 OFFCURVE",
"102 177 CURVE SMOOTH",
"102 141 OFFCURVE",
"89 39 OFFCURVE",
"89 25 CURVE SMOOTH",
"89 4 OFFCURVE",
"102 -8 OFFCURVE",
"120 -8 CURVE SMOOTH",
"134 -8 OFFCURVE",
"146 0 OFFCURVE",
"160 27 CURVE SMOOTH",
"180 70 OFFCURVE",
"244 190 OFFCURVE",
"274 190 CURVE SMOOTH",
"279 190 OFFCURVE",
"288 185 OFFCURVE",
"288 164 CURVE SMOOTH",
"288 134 OFFCURVE",
"281 22 OFFCURVE",
"283 -57 CURVE SMOOTH"
);
},
{
closed = 1;
nodes = (
"285 -427 OFFCURVE",
"239 -447 OFFCURVE",
"217 -447 CURVE SMOOTH",
"181 -447 OFFCURVE",
"171 -404 OFFCURVE",
"171 -368 CURVE SMOOTH",
"171 -304 OFFCURVE",
"203 -210 OFFCURVE",
"284 -112 CURVE",
"284 -151 OFFCURVE",
"285 -184 OFFCURVE",
"285 -216 CURVE SMOOTH"
);
}
);
width = 430;
}
);
unicode = 014B;
},
{
glyphname = Oslash;
lastChange = "2017-06-09 11:17:31 +0000";
layers = (
{
anchors = (
{
name = top;
position = "{469, 757}";
}
);
layerId = UUID0;
paths = (
{
closed = 1;
nodes = (
"732 425 LINE SMOOTH",
"732 547 OFFCURVE",
"685 627 OFFCURVE",
"620 672 CURVE",
"648 721 LINE SMOOTH",
"649 724 OFFCURVE",
"650 727 OFFCURVE",
"650 729 CURVE SMOOTH",
"650 739 OFFCURVE",
"643 749 OFFCURVE",
"632 749 CURVE SMOOTH",
"625 749 OFFCURVE",
"620 745 OFFCURVE",
"616 739 CURVE SMOOTH",
"588 691 LINE",
"551 709 OFFCURVE",
"510 718 OFFCURVE",
"471 718 CURVE SMOOTH",
"369 718 OFFCURVE",
"280 646 OFFCURVE",
"280 529 CURVE SMOOTH",
"280 445 OFFCURVE",
"324 386 OFFCURVE",
"389 351 CURVE",
"214 52 LINE",
"140 88 OFFCURVE",
"66 162 OFFCURVE",
"66 312 CURVE SMOOTH",
"66 547 OFFCURVE",
"246 622 OFFCURVE",
"258 628 CURVE SMOOTH",
"265 631 OFFCURVE",
"270 638 OFFCURVE",
"270 645 CURVE SMOOTH",
"270 656 OFFCURVE",
"260 663 OFFCURVE",
"251 663 CURVE SMOOTH",
"249 663 OFFCURVE",
"244 662 OFFCURVE",
"242 661 CURVE SMOOTH",
"104 592 OFFCURVE",
"29 467 OFFCURVE",
"29 312 CURVE SMOOTH",
"29 161 OFFCURVE",
"101 67 OFFCURVE",
"195 19 CURVE",
"166 -30 LINE SMOOTH",
"164 -33 OFFCURVE",
"164 -36 OFFCURVE",
"164 -39 CURVE SMOOTH",
"164 -48 OFFCURVE",
"171 -58 OFFCURVE",
"182 -58 CURVE SMOOTH",
"188 -58 OFFCURVE",
"194 -54 OFFCURVE",
"198 -48 CURVE SMOOTH",
"229 4 LINE",
"270 -12 OFFCURVE",
"315 -19 OFFCURVE",
"358 -19 CURVE SMOOTH",
"550 -19 OFFCURVE",
"707 107 OFFCURVE",
"729 363 CURVE",
"770 387 OFFCURVE",
"805 417 OFFCURVE",
"820 438 CURVE SMOOTH",
"822 441 OFFCURVE",
"822 444 OFFCURVE",
"822 447 CURVE SMOOTH",
"822 456 OFFCURVE",
"815 466 OFFCURVE",
"804 466 CURVE SMOOTH",
"800 466 OFFCURVE",
"798 465 OFFCURVE",
"796 462 CURVE SMOOTH",
"786 449 OFFCURVE",
"756 421 OFFCURVE",
"732 408 CURVE"
);
},
{
closed = 1;
nodes = (
"600 312 OFFCURVE",
"646 324 OFFCURVE",
"688 343 CURVE",
"660 116 OFFCURVE",
"521 17 OFFCURVE",
"359 17 CURVE SMOOTH",
"349 17 OFFCURVE",
"301 19 OFFCURVE",
"248 38 CURVE",
"422 335 LINE",
"461 320 OFFCURVE",
"505 312 OFFCURVE",
"550 312 CURVE SMOOTH"
);
},
{
closed = 1;
nodes = (
"652 363 OFFCURVE",
"604 349 OFFCURVE",
"551 349 CURVE SMOOTH",
"508 349 OFFCURVE",
"472 355 OFFCURVE",
"440 367 CURVE",
"601 640 LINE",
"655 600 OFFCURVE",
"696 530 OFFCURVE",
"696 423 CURVE SMOOTH",
"696 411 OFFCURVE",
"695 397 OFFCURVE",
"694 385 CURVE"
);
},
{
closed = 1;
nodes = (
"317 627 OFFCURVE",
"385 682 OFFCURVE",
"469 682 CURVE SMOOTH",
"502 682 OFFCURVE",
"537 675 OFFCURVE",
"569 659 CURVE",
"407 382 LINE",
"347 416 OFFCURVE",
"317 471 OFFCURVE",
"317 529 CURVE SMOOTH"
);
}
);
width = 773;
}
);
leftKerningGroup = O;
rightKerningGroup = O;
unicode = 00D8;
},
{
glyphname = oslash;
lastChange = "2017-06-09 11:17:31 +0000";
layers = (
{
anchors = (
{
name = top;
position = "{156, 283}";
}
);
layerId = UUID0;
paths = (
{
closed = 1;
nodes = (
"305 53 OFFCURVE",
"342 87 OFFCURVE",
"364 126 CURVE SMOOTH",
"366 131 OFFCURVE",
"370 139 OFFCURVE",
"370 144 CURVE SMOOTH",
"370 154 OFFCURVE",
"360 162 OFFCURVE",
"352 162 CURVE SMOOTH",
"346 162 OFFCURVE",
"338 158 OFFCURVE",
"336 154 CURVE SMOOTH",
"315 110 OFFCURVE",
"291 90 OFFCURVE",
"247 90 CURVE SMOOTH",
"242 90 OFFCURVE",
"238 90 OFFCURVE",
"234 90 CURVE",
"237 101 OFFCURVE",
"238 112 OFFCURVE",
"238 123 CURVE SMOOTH",
"238 164 OFFCURVE",
"230 192 OFFCURVE",
"218 210 CURVE",
"241 245 LINE SMOOTH",
"244 249 OFFCURVE",
"245 252 OFFCURVE",
"245 256 CURVE SMOOTH",
"245 264 OFFCURVE",
"238 271 OFFCURVE",
"229 271 CURVE SMOOTH",
"224 271 OFFCURVE",
"219 270 OFFCURVE",
"216 265 CURVE SMOOTH",
"194 231 LINE",
"187 234 OFFCURVE",
"180 236 OFFCURVE",
"173 236 CURVE SMOOTH",
"144 236 OFFCURVE",
"124 209 OFFCURVE",
"124 173 CURVE SMOOTH",
"124 159 OFFCURVE",
"126 146 OFFCURVE",
"131 134 CURVE",
"69 40 LINE",
"55 53 OFFCURVE",
"46 73 OFFCURVE",
"46 97 CURVE SMOOTH",
"46 146 OFFCURVE",
"76 174 OFFCURVE",
"97 184 CURVE SMOOTH",
"107 188 OFFCURVE",
"115 193 OFFCURVE",
"115 204 CURVE SMOOTH",
"115 214 OFFCURVE",
"109 220 OFFCURVE",
"98 220 CURVE SMOOTH",
"79 220 OFFCURVE",
"10 180 OFFCURVE",
"10 97 CURVE SMOOTH",
"10 59 OFFCURVE",
"24 28 OFFCURVE",
"49 9 CURVE",
"22 -32 LINE SMOOTH",
"20 -36 OFFCURVE",
"18 -39 OFFCURVE",
"18 -42 CURVE SMOOTH",
"18 -51 OFFCURVE",
"24 -58 OFFCURVE",
"34 -59 CURVE SMOOTH",
"39 -59 OFFCURVE",
"44 -57 OFFCURVE",
"47 -52 CURVE SMOOTH",
"77 -6 LINE",
"88 -11 OFFCURVE",
"101 -13 OFFCURVE",
"115 -13 CURVE SMOOTH",
"167 -13 OFFCURVE",
"203 17 OFFCURVE",
"222 56 CURVE",
"229 54 OFFCURVE",
"236 54 OFFCURVE",
"244 54 CURVE SMOOTH"
);
},
{
closed = 1;
nodes = (
"109 21 OFFCURVE",
"103 22 OFFCURVE",
"97 24 CURVE",
"148 103 LINE",
"159 88 OFFCURVE",
"174 76 OFFCURVE",
"190 67 CURVE",
"177 41 OFFCURVE",
"153 21 OFFCURVE",
"116 21 CURVE SMOOTH"
);
},
{
closed = 1;
nodes = (
"195 174 LINE",
"200 159 OFFCURVE",
"202 140 OFFCURVE",
"202 123 CURVE SMOOTH",
"202 116 OFFCURVE",
"202 109 OFFCURVE",
"201 103 CURVE",
"187 111 OFFCURVE",
"177 124 OFFCURVE",
"170 137 CURVE"
);
},
{
closed = 1;
nodes = (
"174 200 LINE",
"160 179 LINE",
"161 197 OFFCURVE",
"169 200 OFFCURVE",
"173 200 CURVE"
);
}
);
width = 316;
}
);
leftKerningGroup = o;
unicode = 00F8;
},
{
glyphname = OE;
lastChange = "2017-06-09 11:17:31 +0000";
layers = (
{
layerId = UUID0;
paths = (
{
closed = 1;
nodes = (
"1436 209 OFFCURVE",
"1437 211 OFFCURVE",
"1437 213 CURVE SMOOTH",
"1437 223 OFFCURVE",
"1428 231 OFFCURVE",
"1418 231 CURVE SMOOTH",
"1410 231 OFFCURVE",
"1403 227 OFFCURVE",
"1401 219 CURVE SMOOTH",
"1400 218 OFFCURVE",
"1342 57 OFFCURVE",
"1095 18 CURVE SMOOTH",
"1068 13 OFFCURVE",
"1039 11 OFFCURVE",
"1007 11 CURVE SMOOTH",
"863 11 OFFCURVE",
"703 64 OFFCURVE",
"703 205 CURVE SMOOTH",
"703 291 OFFCURVE",
"757 351 OFFCURVE",
"860 381 CURVE",
"906 354 OFFCURVE",
"974 338 OFFCURVE",
"1036 338 CURVE SMOOTH",
"1093 338 OFFCURVE",
"1134 358 OFFCURVE",
"1134 391 CURVE SMOOTH",
"1134 424 OFFCURVE",
"1094 441 OFFCURVE",
"1036 441 CURVE",
"1004 440 OFFCURVE",
"936 438 OFFCURVE",
"866 420 CURVE",
"827 448 OFFCURVE",
"805 488 OFFCURVE",
"805 530 CURVE SMOOTH",
"805 603 OFFCURVE",
"875 687 OFFCURVE",
"1026 687 CURVE SMOOTH",
"1224 687 OFFCURVE",
"1261 568 OFFCURVE",
"1262 564 CURVE SMOOTH",
"1265 556 OFFCURVE",
"1271 550 OFFCURVE",
"1279 550 CURVE SMOOTH",
"1290 550 OFFCURVE",
"1298 559 OFFCURVE",
"1298 568 CURVE SMOOTH",
"1298 570 OFFCURVE",
"1298 572 OFFCURVE",
"1297 574 CURVE SMOOTH",
"1296 579 OFFCURVE",
"1253 723 OFFCURVE",
"1026 723 CURVE SMOOTH",
"876 723 OFFCURVE",
"769 642 OFFCURVE",
"769 529 CURVE SMOOTH",
"769 484 OFFCURVE",
"787 441 OFFCURVE",
"824 407 CURVE",
"785 393 OFFCURVE",
"753 374 OFFCURVE",
"728 351 CURVE",
"731 375 OFFCURVE",
"732 399 OFFCURVE",
"732 425 CURVE SMOOTH",
"732 632 OFFCURVE",
"595 718 OFFCURVE",
"471 718 CURVE SMOOTH",
"369 718 OFFCURVE",
"280 646 OFFCURVE",
"280 529 CURVE SMOOTH",
"280 385 OFFCURVE",
"412 312 OFFCURVE",
"550 312 CURVE SMOOTH",
"600 312 OFFCURVE",
"646 324 OFFCURVE",
"688 343 CURVE",
"660 116 OFFCURVE",
"521 17 OFFCURVE",
"359 17 CURVE SMOOTH",
"333 17 OFFCURVE",
"66 27 OFFCURVE",
"66 312 CURVE SMOOTH",
"66 547 OFFCURVE",
"246 622 OFFCURVE",
"258 628 CURVE SMOOTH",
"265 631 OFFCURVE",
"270 638 OFFCURVE",
"270 645 CURVE SMOOTH",
"270 656 OFFCURVE",
"260 663 OFFCURVE",
"251 663 CURVE SMOOTH",
"249 663 OFFCURVE",
"244 662 OFFCURVE",
"242 661 CURVE SMOOTH",
"104 592 OFFCURVE",
"29 467 OFFCURVE",
"29 312 CURVE SMOOTH",
"29 79 OFFCURVE",
"201 -19 OFFCURVE",
"358 -19 CURVE SMOOTH",
"493 -19 OFFCURVE",
"605 46 OFFCURVE",
"670 162 CURVE",
"697 29 OFFCURVE",
"857 -26 OFFCURVE",
"1007 -26 CURVE SMOOTH",
"1040 -26 OFFCURVE",
"1071 -24 OFFCURVE",
"1101 -19 CURVE SMOOTH",
"1370 23 OFFCURVE",
"1433 200 OFFCURVE",
"1436 208 CURVE SMOOTH"
);
},
{
closed = 1;
nodes = (
"652 363 OFFCURVE",
"604 349 OFFCURVE",
"551 349 CURVE SMOOTH",
"396 349 OFFCURVE",
"317 435 OFFCURVE",
"317 529 CURVE SMOOTH",
"317 627 OFFCURVE",
"385 682 OFFCURVE",
"469 682 CURVE SMOOTH",
"577 682 OFFCURVE",
"696 608 OFFCURVE",
"696 423 CURVE SMOOTH",
"696 411 OFFCURVE",
"695 397 OFFCURVE",
"694 385 CURVE"
);
},
{
closed = 1;
nodes = (
"1097 383 OFFCURVE",
"1078 375 OFFCURVE",
"1037 375 CURVE SMOOTH",
"992 375 OFFCURVE",
"946 383 OFFCURVE",
"912 396 CURVE",
"957 404 OFFCURVE",
"987 405 OFFCURVE",
"1026 405 CURVE SMOOTH",
"1061 405 OFFCURVE",
"1097 401 OFFCURVE",
"1097 391 CURVE SMOOTH"
);
}
);
width = 1466;
}
);
leftKerningGroup = O;
rightKerningGroup = E;
unicode = 0152;
},
{
glyphname = oe;
lastChange = "2017-06-09 11:17:31 +0000";
layers = (
{
layerId = UUID0;
paths = (
{
closed = 1;
nodes = (
"311 79 OFFCURVE",
"350 121 OFFCURVE",
"350 174 CURVE SMOOTH",
"350 215 OFFCURVE",
"318 240 OFFCURVE",
"288 240 CURVE SMOOTH",
"257 240 OFFCURVE",
"232 222 OFFCURVE",
"217 193 CURVE",
"200 219 OFFCURVE",
"173 236 OFFCURVE",
"141 236 CURVE SMOOTH",
"87 236 OFFCURVE",
"54 190 OFFCURVE",
"53 149 CURVE",
"51 156 OFFCURVE",
"44 162 OFFCURVE",
"35 162 CURVE SMOOTH",
"14 162 OFFCURVE",
"10 122 OFFCURVE",
"10 102 CURVE SMOOTH",
"10 37 OFFCURVE",
"55 -14 OFFCURVE",
"115 -14 CURVE SMOOTH",
"163 -14 OFFCURVE",
"199 14 OFFCURVE",
"219 50 CURVE",
"238 13 OFFCURVE",
"272 -15 OFFCURVE",
"326 -15 CURVE",
"393 -14 OFFCURVE",
"445 38 OFFCURVE",
"490 136 CURVE SMOOTH",
"491 138 OFFCURVE",
"492 141 OFFCURVE",
"492 144 CURVE SMOOTH",
"492 152 OFFCURVE",
"484 162 OFFCURVE",
"473 162 CURVE SMOOTH",
"466 162 OFFCURVE",
"459 158 OFFCURVE",
"457 151 CURVE SMOOTH",
"430 90 OFFCURVE",
"389 22 OFFCURVE",
"326 22 CURVE SMOOTH",
"295 22 OFFCURVE",
"273 35 OFFCURVE",
"260 54 CURVE"
);
},
{
closed = 1;
nodes = (
"71 23 OFFCURVE",
"46 58 OFFCURVE",
"46 102 CURVE SMOOTH",
"46 119 OFFCURVE",
"53 133 OFFCURVE",
"53 139 CURVE",
"57 105 OFFCURVE",
"83 71 OFFCURVE",
"126 71 CURVE SMOOTH",
"145 71 OFFCURVE",
"166 78 OFFCURVE",
"187 98 CURVE SMOOTH",
"191 102 OFFCURVE",
"193 107 OFFCURVE",
"193 112 CURVE SMOOTH",
"193 123 OFFCURVE",
"185 130 OFFCURVE",
"175 130 CURVE SMOOTH",
"170 130 OFFCURVE",
"166 128 OFFCURVE",
"162 125 CURVE SMOOTH",
"150 113 OFFCURVE",
"137 107 OFFCURVE",
"125 107 CURVE SMOOTH",
"107 107 OFFCURVE",
"90 125 OFFCURVE",
"90 149 CURVE SMOOTH",
"90 161 OFFCURVE",
"98 199 OFFCURVE",
"140 199 CURVE SMOOTH",
"191 199 OFFCURVE",
"201 148 OFFCURVE",
"201 123 CURVE SMOOTH",
"201 74 OFFCURVE",
"169 23 OFFCURVE",
"115 23 CURVE SMOOTH"
);
},
{
closed = 1;
nodes = (
"242 97 OFFCURVE",
"239 111 OFFCURVE",
"239 123 CURVE SMOOTH",
"239 161 OFFCURVE",
"253 204 OFFCURVE",
"288 204 CURVE SMOOTH",
"301 204 OFFCURVE",
"312 193 OFFCURVE",
"312 174 CURVE SMOOTH",
"312 139 OFFCURVE",
"286 103 OFFCURVE",
"245 85 CURVE"
);
}
);
width = 438;
}
);
leftKerningGroup = o;
unicode = 0153;
},
{
glyphname = Thorn;
lastChange = "2017-06-09 11:17:31 +0000";
layers = (
{
layerId = UUID0;
paths = (
{
closed = 1;
nodes = (
"915 547 OFFCURVE",
"775 643 OFFCURVE",
"574 646 CURVE",
"586 677 OFFCURVE",
"605 704 OFFCURVE",
"634 720 CURVE SMOOTH",
"640 724 OFFCURVE",
"643 729 OFFCURVE",
"643 736 CURVE SMOOTH",
"643 739 OFFCURVE",
"643 742 OFFCURVE",
"641 745 CURVE SMOOTH",
"638 751 OFFCURVE",
"632 754 OFFCURVE",
"625 754 CURVE SMOOTH",
"622 754 OFFCURVE",
"619 754 OFFCURVE",
"616 752 CURVE SMOOTH",
"613 751 OFFCURVE",
"562 723 OFFCURVE",
"534 646 CURVE",
"264 636 OFFCURVE",
"44 490 OFFCURVE",
"44 314 CURVE SMOOTH",
"44 204 OFFCURVE",
"129 136 OFFCURVE",
"228 136 CURVE SMOOTH",
"335 136 OFFCURVE",
"395 193 OFFCURVE",
"397 195 CURVE SMOOTH",
"401 199 OFFCURVE",
"403 204 OFFCURVE",
"403 208 CURVE SMOOTH",
"403 218 OFFCURVE",
"395 227 OFFCURVE",
"385 227 CURVE SMOOTH",
"380 227 OFFCURVE",
"375 225 OFFCURVE",
"372 222 CURVE SMOOTH",
"370 220 OFFCURVE",
"319 173 OFFCURVE",
"228 173 CURVE SMOOTH",
"151 173 OFFCURVE",
"81 221 OFFCURVE",
"81 314 CURVE SMOOTH",
"81 466 OFFCURVE",
"278 596 OFFCURVE",
"523 609 CURVE",
"520 595 OFFCURVE",
"518 579 OFFCURVE",
"517 562 CURVE SMOOTH",
"514 529 OFFCURVE",
"514 451 OFFCURVE",
"514 370 CURVE SMOOTH",
"514 76 OFFCURVE",
"446 16 OFFCURVE",
"328 11 CURVE SMOOTH",
"262 8 OFFCURVE",
"192 49 OFFCURVE",
"167 97 CURVE SMOOTH",
"164 103 OFFCURVE",
"158 106 OFFCURVE",
"151 106 CURVE SMOOTH",
"140 106 OFFCURVE",
"132 97 OFFCURVE",
"132 88 CURVE SMOOTH",
"132 85 OFFCURVE",
"133 82 OFFCURVE",
"135 80 CURVE SMOOTH",
"167 20 OFFCURVE",
"247 -26 OFFCURVE",
"328 -26 CURVE SMOOTH",
"540 -26 OFFCURVE",
"551 191 OFFCURVE",
"551 390 CURVE SMOOTH",
"551 421 OFFCURVE",
"551 452 OFFCURVE",
"551 480 CURVE SMOOTH",
"551 521 OFFCURVE",
"552 567 OFFCURVE",
"562 610 CURVE",
"563 610 LINE",
"748 610 OFFCURVE",
"878 530 OFFCURVE",
"878 389 CURVE SMOOTH",
"878 251 OFFCURVE",
"767 174 OFFCURVE",
"603 174 CURVE SMOOTH",
"592 174 OFFCURVE",
"584 166 OFFCURVE",
"584 156 CURVE SMOOTH",
"584 144 OFFCURVE",
"594 137 OFFCURVE",
"604 137 CURVE SMOOTH",
"789 137 OFFCURVE",
"915 232 OFFCURVE",
"915 389 CURVE SMOOTH"
);
}
);
width = 934;
}
);
unicode = 00DE;
},
{
glyphname = thorn;
lastChange = "2017-06-09 11:17:31 +0000";
layers = (
{
layerId = UUID0;
paths = (
{
closed = 1;
nodes = (
"382 162 OFFCURVE",
"375 158 OFFCURVE",
"372 151 CURVE SMOOTH",
"340 88 OFFCURVE",
"292 11 OFFCURVE",
"215 11 CURVE SMOOTH",
"213 11 LINE",
"245 33 OFFCURVE",
"269 77 OFFCURVE",
"269 136 CURVE SMOOTH",
"269 194 OFFCURVE",
"240 238 OFFCURVE",
"195 238 CURVE SMOOTH",
"148 238 OFFCURVE",
"121 186 OFFCURVE",
"90 135 CURVE",
"90 683 LINE SMOOTH",
"90 693 OFFCURVE",
"82 702 OFFCURVE",
"72 702 CURVE SMOOTH",
"62 702 OFFCURVE",
"54 693 OFFCURVE",
"54 683 CURVE SMOOTH",
"54 285 LINE SMOOTH",
"54 284 OFFCURVE",
"53 223 OFFCURVE",
"22 151 CURVE SMOOTH",
"21 148 OFFCURVE",
"21 146 OFFCURVE",
"21 144 CURVE SMOOTH",
"21 135 OFFCURVE",
"28 125 OFFCURVE",
"39 125 CURVE SMOOTH",
"44 125 OFFCURVE",
"50 128 OFFCURVE",
"54 132 CURVE",
"54 111 OFFCURVE",
"53 89 OFFCURVE",
"53 66 CURVE",
"-30 -97 OFFCURVE",
"-88 -286 OFFCURVE",
"-88 -397 CURVE SMOOTH",
"-88 -484 OFFCURVE",
"-49 -497 OFFCURVE",
"-27 -497 CURVE SMOOTH",
"80 -497 OFFCURVE",
"85 -258 OFFCURVE",
"90 58 CURVE",
"125 121 OFFCURVE",
"160 202 OFFCURVE",
"195 202 CURVE SMOOTH",
"210 202 OFFCURVE",
"232 184 OFFCURVE",
"232 136 CURVE SMOOTH",
"232 72 OFFCURVE",
"197 31 OFFCURVE",
"164 31 CURVE SMOOTH",
"146 31 OFFCURVE",
"135 52 OFFCURVE",
"135 52 CURVE SMOOTH",
"130 59 OFFCURVE",
"124 62 OFFCURVE",
"117 62 CURVE SMOOTH",
"106 62 OFFCURVE",
"100 53 OFFCURVE",
"100 43 CURVE SMOOTH",
"100 30 OFFCURVE",
"115 17 OFFCURVE",
"123 9 CURVE SMOOTH",
"149 -12 OFFCURVE",
"182 -24 OFFCURVE",
"216 -24 CURVE SMOOTH",
"312 -24 OFFCURVE",
"372 61 OFFCURVE",
"405 136 CURVE SMOOTH",
"406 139 OFFCURVE",
"407 141 OFFCURVE",
"407 144 CURVE SMOOTH",
"407 153 OFFCURVE",
"399 162 OFFCURVE",
"389 162 CURVE SMOOTH"
);
},
{
closed = 1;
nodes = (
"48 -196 OFFCURVE",
"40 -460 OFFCURVE",
"-24 -460 CURVE SMOOTH",
"-48 -460 OFFCURVE",
"-52 -427 OFFCURVE",
"-52 -404 CURVE SMOOTH",
"-52 -315 OFFCURVE",
"-12 -164 OFFCURVE",
"52 -21 CURVE"
);
}
);
width = 353;
}
);
leftKerningGroup = p;
unicode = 00FE;
},
{
glyphname = Scedilla;
lastChange = "2017-06-09 11:17:31 +0000";
layers = (
{
layerId = UUID0;
paths = (
{
closed = 1;
nodes = (
"536 -66 OFFCURVE",
"504 -46 OFFCURVE",
"474 -46 CURVE",
"480 -27 LINE SMOOTH",
"481 -25 OFFCURVE",
"482 -22 OFFCURVE",
"483 -19 CURVE",
"643 -16 OFFCURVE",
"770 44 OFFCURVE",
"770 154 CURVE SMOOTH",
"770 213 OFFCURVE",
"734 246 OFFCURVE",
"660 265 CURVE SMOOTH",
"615 276 OFFCURVE",
"556 283 OFFCURVE",
"481 289 CURVE SMOOTH",
"406 295 LINE SMOOTH",
"250 309 OFFCURVE",
"86 339 OFFCURVE",
"86 458 CURVE SMOOTH",
"86 612 OFFCURVE",
"324 696 OFFCURVE",
"542 696 CURVE SMOOTH",
"731 696 OFFCURVE",
"852 641 OFFCURVE",
"852 545 CURVE SMOOTH",
"852 536 OFFCURVE",
"849 526 OFFCURVE",
"849 517 CURVE SMOOTH",
"849 507 OFFCURVE",
"857 498 OFFCURVE",
"869 498 CURVE SMOOTH",
"876 498 OFFCURVE",
"884 504 OFFCURVE",
"886 513 CURVE SMOOTH",
"888 524 OFFCURVE",
"889 535 OFFCURVE",
"889 545 CURVE SMOOTH",
"889 580 OFFCURVE",
"877 611 OFFCURVE",
"854 638 CURVE SMOOTH",
"816 683 OFFCURVE",
"731 732 OFFCURVE",
"542 732 CURVE SMOOTH",
"314 732 OFFCURVE",
"49 642 OFFCURVE",
"49 458 CURVE SMOOTH",
"49 338 OFFCURVE",
"165 279 OFFCURVE",
"402 259 CURVE SMOOTH",
"477 252 LINE SMOOTH",
"535 248 OFFCURVE",
"601 243 OFFCURVE",
"650 230 CURVE SMOOTH",
"698 218 OFFCURVE",
"731 198 OFFCURVE",
"731 153 CURVE SMOOTH",
"731 76 OFFCURVE",
"640 18 OFFCURVE",
"472 18 CURVE SMOOTH",
"303 18 OFFCURVE",
"216 71 OFFCURVE",
"215 72 CURVE SMOOTH",
"212 74 OFFCURVE",
"208 75 OFFCURVE",
"205 75 CURVE SMOOTH",
"196 75 OFFCURVE",
"187 67 OFFCURVE",
"187 56 CURVE SMOOTH",
"187 50 OFFCURVE",
"189 44 OFFCURVE",
"195 41 CURVE SMOOTH",
"199 38 OFFCURVE",
"284 -14 OFFCURVE",
"449 -19 CURVE",
"437 -52 LINE SMOOTH",
"435 -56 OFFCURVE",
"434 -60 OFFCURVE",
"434 -65 CURVE SMOOTH",
"434 -74 OFFCURVE",
"440 -79 OFFCURVE",
"448 -79 CURVE SMOOTH",
"453 -79 OFFCURVE",
"460 -76 OFFCURVE",
"471 -76 CURVE SMOOTH",
"484 -76 OFFCURVE",
"503 -83 OFFCURVE",
"503 -107 CURVE SMOOTH",
"503 -128 OFFCURVE",
"486 -138 OFFCURVE",
"467 -138 CURVE SMOOTH",
"440 -138 OFFCURVE",
"431 -121 OFFCURVE",
"421 -121 CURVE SMOOTH",
"413 -121 OFFCURVE",
"404 -126 OFFCURVE",
"404 -136 CURVE SMOOTH",
"404 -157 OFFCURVE",
"441 -169 OFFCURVE",
"467 -169 CURVE SMOOTH",
"512 -169 OFFCURVE",
"536 -138 OFFCURVE",
"536 -107 CURVE SMOOTH"
);
}
);
width = 821;
}
);
leftKerningGroup = S;
rightKerningGroup = S;
unicode = 015E;
},
{
glyphname = scedilla;
lastChange = "2017-06-09 11:17:31 +0000";
layers = (
{
layerId = UUID0;
paths = (
{
closed = 1;
nodes = (
"139 -65 OFFCURVE",
"107 -45 OFFCURVE",
"77 -45 CURVE",
"83 -26 LINE SMOOTH",
"84 -25 OFFCURVE",
"84 -23 OFFCURVE",
"85 -21 CURVE",
"95 -22 OFFCURVE",
"106 -23 OFFCURVE",
"117 -23 CURVE SMOOTH",
"226 -23 OFFCURVE",
"285 83 OFFCURVE",
"306 136 CURVE SMOOTH",
"307 139 OFFCURVE",
"308 141 OFFCURVE",
"308 144 CURVE SMOOTH",
"308 152 OFFCURVE",
"301 162 OFFCURVE",
"290 162 CURVE SMOOTH",
"284 162 OFFCURVE",
"279 158 OFFCURVE",
"276 151 CURVE SMOOTH",
"248 86 OFFCURVE",
"199 11 OFFCURVE",
"124 11 CURVE SMOOTH",
"121 11 OFFCURVE",
"118 11 OFFCURVE",
"114 12 CURVE",
"140 29 OFFCURVE",
"150 55 OFFCURVE",
"150 82 CURVE SMOOTH",
"150 124 OFFCURVE",
"117 162 OFFCURVE",
"87 235 CURVE",
"91 251 OFFCURVE",
"93 260 OFFCURVE",
"93 271 CURVE SMOOTH",
"93 289 OFFCURVE",
"83 304 OFFCURVE",
"68 304 CURVE SMOOTH",
"52 304 OFFCURVE",
"42 290 OFFCURVE",
"42 268 CURVE SMOOTH",
"42 257 OFFCURVE",
"44 248 OFFCURVE",
"49 233 CURVE",
"44 207 OFFCURVE",
"37 184 OFFCURVE",
"20 152 CURVE SMOOTH",
"18 147 OFFCURVE",
"17 146 OFFCURVE",
"17 142 CURVE SMOOTH",
"17 133 OFFCURVE",
"24 125 OFFCURVE",
"35 125 CURVE SMOOTH",
"45 125 OFFCURVE",
"50 132 OFFCURVE",
"56 143 CURVE SMOOTH",
"63 157 OFFCURVE",
"69 170 OFFCURVE",
"73 181 CURVE",
"89 143 OFFCURVE",
"113 113 OFFCURVE",
"113 80 CURVE SMOOTH",
"113 63 OFFCURVE",
"102 34 OFFCURVE",
"71 34 CURVE SMOOTH",
"55 34 OFFCURVE",
"41 46 OFFCURVE",
"39 48 CURVE SMOOTH",
"36 52 OFFCURVE",
"31 54 OFFCURVE",
"26 54 CURVE SMOOTH",
"16 54 OFFCURVE",
"7 45 OFFCURVE",
"7 35 CURVE SMOOTH",
"7 32 OFFCURVE",
"8 29 OFFCURVE",
"10 26 CURVE SMOOTH",
"21 9 OFFCURVE",
"37 -3 OFFCURVE",
"55 -11 CURVE",
"40 -51 LINE SMOOTH",
"38 -55 OFFCURVE",
"37 -59 OFFCURVE",
"37 -64 CURVE SMOOTH",
"37 -73 OFFCURVE",
"43 -78 OFFCURVE",
"51 -78 CURVE SMOOTH",
"56 -78 OFFCURVE",
"63 -75 OFFCURVE",
"74 -75 CURVE SMOOTH",
"87 -75 OFFCURVE",
"106 -83 OFFCURVE",
"106 -106 CURVE SMOOTH",
"106 -127 OFFCURVE",
"89 -137 OFFCURVE",
"70 -137 CURVE SMOOTH",
"43 -137 OFFCURVE",
"34 -120 OFFCURVE",
"24 -120 CURVE SMOOTH",
"16 -120 OFFCURVE",
"7 -125 OFFCURVE",
"7 -135 CURVE SMOOTH",
"7 -156 OFFCURVE",
"44 -168 OFFCURVE",
"70 -168 CURVE SMOOTH",
"115 -168 OFFCURVE",
"139 -137 OFFCURVE",
"139 -106 CURVE SMOOTH"
);
}
);
width = 254;
}
);
leftKerningGroup = s;
unicode = 015F;
},
{
glyphname = Tbar;
lastChange = "2017-06-09 11:17:31 +0000";
layers = (
{
layerId = UUID0;
paths = (
{
closed = 1;
nodes = (
"1098 680 OFFCURVE",
"1092 676 OFFCURVE",
"1088 672 CURVE SMOOTH",
"1057 633 OFFCURVE",
"994 604 OFFCURVE",
"895 604 CURVE SMOOTH",
"869 604 OFFCURVE",
"844 606 OFFCURVE",
"820 609 CURVE",
"843 633 OFFCURVE",
"863 645 OFFCURVE",
"864 646 CURVE SMOOTH",
"870 649 OFFCURVE",
"873 655 OFFCURVE",
"873 661 CURVE SMOOTH",
"873 672 OFFCURVE",
"863 680 OFFCURVE",
"854 680 CURVE SMOOTH",
"851 680 OFFCURVE",
"848 679 OFFCURVE",
"845 677 CURVE SMOOTH",
"843 676 OFFCURVE",
"809 656 OFFCURVE",
"776 615 CURVE",
"591 646 OFFCURVE",
"426 738 OFFCURVE",
"271 738 CURVE SMOOTH",
"128 738 OFFCURVE",
"20 651 OFFCURVE",
"20 519 CURVE SMOOTH",
"20 419 OFFCURVE",
"96 346 OFFCURVE",
"195 346 CURVE SMOOTH",
"349 346 OFFCURVE",
"400 495 OFFCURVE",
"402 499 CURVE SMOOTH",
"403 501 OFFCURVE",
"403 502 OFFCURVE",
"403 504 CURVE SMOOTH",
"403 514 OFFCURVE",
"396 523 OFFCURVE",
"385 523 CURVE SMOOTH",
"377 523 OFFCURVE",
"370 518 OFFCURVE",
"367 511 CURVE SMOOTH",
"367 510 OFFCURVE",
"322 382 OFFCURVE",
"195 382 CURVE SMOOTH",
"115 382 OFFCURVE",
"56 440 OFFCURVE",
"56 519 CURVE SMOOTH",
"56 628 OFFCURVE",
"146 702 OFFCURVE",
"270 702 CURVE SMOOTH",
"406 702 OFFCURVE",
"579 618 OFFCURVE",
"754 583 CURVE",
"741 561 OFFCURVE",
"729 535 OFFCURVE",
"721 504 CURVE SMOOTH",
"708 454 OFFCURVE",
"706 397 OFFCURVE",
"705 340 CURVE",
"620 339 LINE SMOOTH",
"609 339 OFFCURVE",
"603 331 OFFCURVE",
"603 321 CURVE SMOOTH",
"603 311 OFFCURVE",
"612 304 OFFCURVE",
"621 304 CURVE SMOOTH",
"677 305 OFFCURVE",
"631 305 OFFCURVE",
"704 306 CURVE",
"703 245 OFFCURVE",
"700 187 OFFCURVE",
"685 143 CURVE SMOOTH",
"656 60 OFFCURVE",
"600 11 OFFCURVE",
"504 11 CURVE SMOOTH",
"413 11 OFFCURVE",
"352 45 OFFCURVE",
"304 118 CURVE SMOOTH",
"301 123 OFFCURVE",
"294 127 OFFCURVE",
"288 127 CURVE SMOOTH",
"276 127 OFFCURVE",
"269 116 OFFCURVE",
"269 107 CURVE SMOOTH",
"269 102 OFFCURVE",
"273 95 OFFCURVE",
"275 92 CURVE SMOOTH",
"332 11 OFFCURVE",
"410 -26 OFFCURVE",
"504 -26 CURVE SMOOTH",
"620 -26 OFFCURVE",
"691 42 OFFCURVE",
"721 129 CURVE SMOOTH",
"739 185 OFFCURVE",
"743 246 OFFCURVE",
"744 306 CURVE",
"765 307 OFFCURVE",
"792 307 OFFCURVE",
"826 307 CURVE SMOOTH",
"836 307 OFFCURVE",
"843 315 OFFCURVE",
"843 326 CURVE SMOOTH",
"843 336 OFFCURVE",
"834 342 OFFCURVE",
"824 342 CURVE SMOOTH",
"744 341 LINE",
"745 395 OFFCURVE",
"746 448 OFFCURVE",
"757 496 CURVE SMOOTH",
"765 527 OFFCURVE",
"778 554 OFFCURVE",
"793 576 CURVE",
"827 570 OFFCURVE",
"861 567 OFFCURVE",
"895 567 CURVE SMOOTH",
"1013 567 OFFCURVE",
"1087 608 OFFCURVE",
"1118 650 CURVE SMOOTH",
"1121 653 OFFCURVE",
"1122 657 OFFCURVE",
"1122 661 CURVE SMOOTH",
"1122 670 OFFCURVE",
"1114 680 OFFCURVE",
"1104 680 CURVE SMOOTH"
);
}
);
width = 877;
}
);
leftKerningGroup = T;
rightKerningGroup = T;
unicode = 0166;
},
{
glyphname = tbar;
lastChange = "2017-06-09 11:17:31 +0000";
layers = (
{
layerId = UUID0;
paths = (
{
closed = 1;
nodes = (
"414 499 OFFCURVE",
"406 506 OFFCURVE",
"396 506 CURVE SMOOTH",
"146 506 LINE",
"141 552 OFFCURVE",
"126 586 OFFCURVE",
"94 586 CURVE SMOOTH",
"60 586 OFFCURVE",
"39 552 OFFCURVE",
"25 506 CURVE",
"-159 506 LINE SMOOTH",
"-169 506 OFFCURVE",
"-177 499 OFFCURVE",
"-177 489 CURVE SMOOTH",
"-177 479 OFFCURVE",
"-169 472 OFFCURVE",
"-159 472 CURVE SMOOTH",
"17 472 LINE",
"8 429 OFFCURVE",
"4 380 OFFCURVE",
"2 340 CURVE",
"-94 339 LINE SMOOTH",
"-104 339 OFFCURVE",
"-111 331 OFFCURVE",
"-111 321 CURVE SMOOTH",
"-111 311 OFFCURVE",
"-102 304 OFFCURVE",
"-93 304 CURVE SMOOTH",
"-54 305 OFFCURVE",
"-37 305 OFFCURVE",
"2 305 CURVE",
"2 288 LINE SMOOTH",
"2 116 OFFCURVE",
"56 -8 OFFCURVE",
"146 -8 CURVE SMOOTH",
"223 -8 OFFCURVE",
"278 122 OFFCURVE",
"284 137 CURVE SMOOTH",
"285 139 OFFCURVE",
"286 141 OFFCURVE",
"286 144 CURVE SMOOTH",
"286 153 OFFCURVE",
"278 162 OFFCURVE",
"267 162 CURVE SMOOTH",
"260 162 OFFCURVE",
"253 158 OFFCURVE",
"250 150 CURVE SMOOTH",
"237 118 OFFCURVE",
"189 29 OFFCURVE",
"144 29 CURVE SMOOTH",
"105 29 OFFCURVE",
"75 76 OFFCURVE",
"58 136 CURVE",
"76 159 OFFCURVE",
"104 228 OFFCURVE",
"125 306 CURVE",
"149 307 OFFCURVE",
"177 307 OFFCURVE",
"211 307 CURVE SMOOTH",
"222 307 OFFCURVE",
"229 315 OFFCURVE",
"229 326 CURVE SMOOTH",
"228 336 OFFCURVE",
"219 342 OFFCURVE",
"209 342 CURVE SMOOTH",
"133 341 LINE",
"142 384 OFFCURVE",
"148 428 OFFCURVE",
"148 466 CURVE SMOOTH",
"148 472 LINE",
"396 472 LINE SMOOTH",
"406 472 OFFCURVE",
"414 479 OFFCURVE",
"414 489 CURVE SMOOTH"
);
},
{
closed = 1;
nodes = (
"111 472 LINE",
"111 434 OFFCURVE",
"105 388 OFFCURVE",
"96 341 CURVE",
"40 340 LINE",
"42 398 OFFCURVE",
"47 440 OFFCURVE",
"54 472 CURVE"
);
},
{
closed = 1;
nodes = (
"41 210 OFFCURVE",
"39 241 OFFCURVE",
"39 288 CURVE SMOOTH",
"39 306 LINE",
"52 306 OFFCURVE",
"68 306 OFFCURVE",
"88 306 CURVE",
"77 263 OFFCURVE",
"63 221 OFFCURVE",
"46 185 CURVE"
);
},
{
closed = 1;
nodes = (
"100 550 OFFCURVE",
"106 533 OFFCURVE",
"109 506 CURVE",
"62 506 LINE",
"74 539 OFFCURVE",
"86 550 OFFCURVE",
"92 550 CURVE SMOOTH"
);
}
);
width = 233;
}
);
leftKerningGroup = t;
rightKerningGroup = t;
unicode = 0167;
},
{
glyphname = Uogonek;
lastChange = "2017-06-09 11:17:31 +0000";
layers = (
{
layerId = UUID0;
paths = (
{
closed = 1;
nodes = (
"958 -108 OFFCURVE",
"952 -101 OFFCURVE",
"943 -101 CURVE SMOOTH",
"937 -101 OFFCURVE",
"931 -104 OFFCURVE",
"928 -111 CURVE SMOOTH",
"923 -119 OFFCURVE",
"916 -132 OFFCURVE",
"899 -132 CURVE SMOOTH",
"886 -132 OFFCURVE",
"877 -125 OFFCURVE",
"877 -110 CURVE SMOOTH",
"877 -75 OFFCURVE",
"911 -33 OFFCURVE",
"942 -14 CURVE SMOOTH",
"980 9 OFFCURVE",
"1025 74 OFFCURVE",
"1046 138 CURVE SMOOTH",
"1046 140 OFFCURVE",
"1047 142 OFFCURVE",
"1047 144 CURVE SMOOTH",
"1047 153 OFFCURVE",
"1040 162 OFFCURVE",
"1028 162 CURVE SMOOTH",
"1021 162 OFFCURVE",
"1013 157 OFFCURVE",
"1011 149 CURVE SMOOTH",
"996 104 OFFCURVE",
"952 5 OFFCURVE",
"887 5 CURVE SMOOTH",
"840 5 OFFCURVE",
"808 46 OFFCURVE",
"808 129 CURVE SMOOTH",
"808 255 OFFCURVE",
"870 651 OFFCURVE",
"870 662 CURVE SMOOTH",
"870 671 OFFCURVE",
"862 680 OFFCURVE",
"852 680 CURVE SMOOTH",
"843 680 OFFCURVE",
"835 673 OFFCURVE",
"833 665 CURVE SMOOTH",
"833 662 OFFCURVE",
"788 381 OFFCURVE",
"704 206 CURVE SMOOTH",
"627 46 OFFCURVE",
"556 6 OFFCURVE",
"500 6 CURVE SMOOTH",
"417 6 OFFCURVE",
"389 62 OFFCURVE",
"389 144 CURVE SMOOTH",
"389 260 OFFCURVE",
"449 405 OFFCURVE",
"449 527 CURVE SMOOTH",
"449 639 OFFCURVE",
"383 706 OFFCURVE",
"274 706 CURVE SMOOTH",
"144 706 OFFCURVE",
"29 615 OFFCURVE",
"29 489 CURVE SMOOTH",
"29 385 OFFCURVE",
"91 344 OFFCURVE",
"143 331 CURVE SMOOTH",
"144 331 OFFCURVE",
"151 330 OFFCURVE",
"152 330 CURVE SMOOTH",
"162 330 OFFCURVE",
"171 337 OFFCURVE",
"171 348 CURVE SMOOTH",
"171 356 OFFCURVE",
"165 365 OFFCURVE",
"155 366 CURVE SMOOTH",
"151 367 OFFCURVE",
"66 378 OFFCURVE",
"66 489 CURVE SMOOTH",
"66 594 OFFCURVE",
"163 670 OFFCURVE",
"275 670 CURVE SMOOTH",
"364 670 OFFCURVE",
"412 618 OFFCURVE",
"412 527 CURVE SMOOTH",
"412 408 OFFCURVE",
"352 259 OFFCURVE",
"352 144 CURVE SMOOTH",
"352 46 OFFCURVE",
"389 -29 OFFCURVE",
"500 -29 CURVE SMOOTH",
"604 -29 OFFCURVE",
"710 82 OFFCURVE",
"786 316 CURVE",
"777 240 OFFCURVE",
"771 171 OFFCURVE",
"771 129 CURVE SMOOTH",
"771 34 OFFCURVE",
"807 -26 OFFCURVE",
"882 -30 CURVE",
"856 -55 OFFCURVE",
"844 -82 OFFCURVE",
"844 -110 CURVE SMOOTH",
"844 -136 OFFCURVE",
"861 -165 OFFCURVE",
"900 -165 CURVE SMOOTH",
"935 -165 OFFCURVE",
"958 -137 OFFCURVE",
"958 -117 CURVE SMOOTH"
);
}
);
width = 993;
}
);
leftKerningGroup = U;
unicode = 0172;
},
{
glyphname = uogonek;
lastChange = "2017-06-09 11:17:31 +0000";
layers = (
{
layerId = UUID0;
paths = (
{
closed = 1;
nodes = (
"288 -94 OFFCURVE",
"282 -86 OFFCURVE",
"273 -86 CURVE SMOOTH",
"267 -86 OFFCURVE",
"261 -90 OFFCURVE",
"257 -96 CURVE SMOOTH",
"253 -104 OFFCURVE",
"246 -118 OFFCURVE",
"229 -118 CURVE SMOOTH",
"216 -118 OFFCURVE",
"207 -106 OFFCURVE",
"207 -89 CURVE SMOOTH",
"207 -57 OFFCURVE",
"244 -17 OFFCURVE",
"257 -8 CURVE",
"347 5 OFFCURVE",
"396 120 OFFCURVE",
"402 136 CURVE SMOOTH",
"403 139 OFFCURVE",
"404 141 OFFCURVE",
"404 144 CURVE SMOOTH",
"404 152 OFFCURVE",
"397 162 OFFCURVE",
"385 162 CURVE SMOOTH",
"378 162 OFFCURVE",
"372 158 OFFCURVE",
"369 151 CURVE SMOOTH",
"354 116 OFFCURVE",
"310 28 OFFCURVE",
"258 28 CURVE SMOOTH",
"211 28 OFFCURVE",
"204 100 OFFCURVE",
"206 127 CURVE SMOOTH",
"212 208 LINE",
"212 218 OFFCURVE",
"206 228 OFFCURVE",
"194 228 CURVE SMOOTH",
"185 228 OFFCURVE",
"176 221 OFFCURVE",
"175 211 CURVE SMOOTH",
"168 127 LINE SMOOTH",
"162 62 OFFCURVE",
"118 32 OFFCURVE",
"95 32 CURVE SMOOTH",
"67 32 OFFCURVE",
"51 52 OFFCURVE",
"51 90 CURVE SMOOTH",
"51 158 OFFCURVE",
"79 196 OFFCURVE",
"85 207 CURVE SMOOTH",
"87 211 OFFCURVE",
"89 215 OFFCURVE",
"89 219 CURVE SMOOTH",
"89 229 OFFCURVE",
"81 237 OFFCURVE",
"71 237 CURVE SMOOTH",
"66 237 OFFCURVE",
"61 235 OFFCURVE",
"57 231 CURVE SMOOTH",
"57 231 OFFCURVE",
"15 182 OFFCURVE",
"15 90 CURVE SMOOTH",
"15 32 OFFCURVE",
"46 -5 OFFCURVE",
"95 -5 CURVE SMOOTH",
"125 -5 OFFCURVE",
"158 18 OFFCURVE",
"181 55 CURVE",
"188 30 OFFCURVE",
"202 10 OFFCURVE",
"222 0 CURVE",
"199 -24 OFFCURVE",
"173 -57 OFFCURVE",
"173 -96 CURVE SMOOTH",
"173 -122 OFFCURVE",
"191 -150 OFFCURVE",
"230 -150 CURVE SMOOTH",
"264 -150 OFFCURVE",
"288 -123 OFFCURVE",
"288 -102 CURVE SMOOTH"
);
}
);
width = 350;
}
);
leftKerningGroup = u;
unicode = 0173;
},
{
glyphname = zero;
lastChange = "2017-06-09 11:17:31 +0000";
layers = (
{
layerId = UUID0;
paths = (
{
closed = 1;
nodes = (
"739 538 OFFCURVE",
"580 703 OFFCURVE",
"384 703 CURVE SMOOTH",
"188 703 OFFCURVE",
"29 538 OFFCURVE",
"29 334 CURVE SMOOTH",
"29 131 OFFCURVE",
"188 -34 OFFCURVE",
"384 -34 CURVE SMOOTH",
"580 -34 OFFCURVE",
"739 131 OFFCURVE",
"739 334 CURVE SMOOTH"
);
},
{
closed = 1;
nodes = (
"703 152 OFFCURVE",
"560 3 OFFCURVE",
"384 3 CURVE SMOOTH",
"209 3 OFFCURVE",
"66 152 OFFCURVE",
"66 334 CURVE SMOOTH",
"66 517 OFFCURVE",
"209 666 OFFCURVE",
"384 666 CURVE SMOOTH",
"560 666 OFFCURVE",
"703 517 OFFCURVE",
"703 334 CURVE SMOOTH"
);
}
);
width = 769;
}
);
unicode = 0030;
},
{
glyphname = one;
lastChange = "2017-06-09 11:17:31 +0000";
layers = (
{
layerId = UUID0;
paths = (
{
closed = 1;
nodes = (
"284 684 OFFCURVE",
"271 703 OFFCURVE",
"251 703 CURVE SMOOTH",
"233 703 OFFCURVE",
"221 690 OFFCURVE",
"220 661 CURVE SMOOTH",
"220 646 OFFCURVE",
"220 613 OFFCURVE",
"220 592 CURVE",
"160 480 OFFCURVE",
"35 400 OFFCURVE",
"33 399 CURVE SMOOTH",
"27 395 OFFCURVE",
"24 389 OFFCURVE",
"24 383 CURVE SMOOTH",
"24 373 OFFCURVE",
"34 365 OFFCURVE",
"43 365 CURVE SMOOTH",
"46 365 OFFCURVE",
"49 366 OFFCURVE",
"53 368 CURVE SMOOTH",
"58 371 OFFCURVE",
"152 432 OFFCURVE",
"220 523 CURVE",
"220 328 OFFCURVE",
"219 4 OFFCURVE",
"219 0 CURVE SMOOTH",
"219 -10 OFFCURVE",
"227 -19 OFFCURVE",
"237 -19 CURVE SMOOTH",
"247 -19 OFFCURVE",
"255 -10 OFFCURVE",
"255 0 CURVE SMOOTH",
"255 5 OFFCURVE",
"257 403 OFFCURVE",
"257 583 CURVE",
"269 607 OFFCURVE",
"284 635 OFFCURVE",
"284 662 CURVE SMOOTH"
);
}
);
width = 330;
}
);
unicode = 0031;
},
{
glyphname = two;
lastChange = "2017-06-09 11:17:31 +0000";
layers = (
{
layerId = UUID0;
paths = (
{
closed = 1;
nodes = (
"864 86 OFFCURVE",
"865 90 OFFCURVE",
"865 94 CURVE SMOOTH",
"865 104 OFFCURVE",
"857 113 OFFCURVE",
"847 113 CURVE SMOOTH",
"842 113 OFFCURVE",
"836 110 OFFCURVE",
"833 106 CURVE SMOOTH",
"830 103 OFFCURVE",
"764 25 OFFCURVE",
"616 25 CURVE SMOOTH",
"556 25 OFFCURVE",
"471 47 OFFCURVE",
"383 74 CURVE",
"545 168 OFFCURVE",
"658 320 OFFCURVE",
"658 469 CURVE SMOOTH",
"658 627 OFFCURVE",
"547 728 OFFCURVE",
"385 728 CURVE SMOOTH",
"246 728 OFFCURVE",
"87 637 OFFCURVE",
"87 490 CURVE SMOOTH",
"87 422 OFFCURVE",
"118 369 OFFCURVE",
"119 368 CURVE SMOOTH",
"122 362 OFFCURVE",
"128 358 OFFCURVE",
"135 358 CURVE SMOOTH",
"146 358 OFFCURVE",
"153 368 OFFCURVE",
"153 377 CURVE SMOOTH",
"153 380 OFFCURVE",
"152 383 OFFCURVE",
"151 386 CURVE SMOOTH",
"149 390 OFFCURVE",
"124 434 OFFCURVE",
"124 489 CURVE SMOOTH",
"124 620 OFFCURVE",
"276 691 OFFCURVE",
"383 691 CURVE SMOOTH",
"525 691 OFFCURVE",
"621 607 OFFCURVE",
"621 469 CURVE SMOOTH",
"621 297 OFFCURVE",
"469 160 OFFCURVE",
"333 88 CURVE",
"247 114 OFFCURVE",
"167 136 OFFCURVE",
"111 136 CURVE SMOOTH",
"36 136 OFFCURVE",
"0 97 OFFCURVE",
"0 62 CURVE SMOOTH",
"0 26 OFFCURVE",
"35 -10 OFFCURVE",
"115 -10 CURVE SMOOTH",
"176 -10 OFFCURVE",
"255 9 OFFCURVE",
"337 49 CURVE",
"424 22 OFFCURVE",
"521 -12 OFFCURVE",
"617 -12 CURVE SMOOTH",
"783 -12 OFFCURVE",
"858 79 OFFCURVE",
"861 83 CURVE SMOOTH"
);
},
{
closed = 1;
nodes = (
"221 40 OFFCURVE",
"162 27 OFFCURVE",
"115 27 CURVE SMOOTH",
"59 27 OFFCURVE",
"37 46 OFFCURVE",
"37 62 CURVE SMOOTH",
"37 80 OFFCURVE",
"66 99 OFFCURVE",
"115 99 CURVE SMOOTH",
"157 99 OFFCURVE",
"218 84 OFFCURVE",
"283 65 CURVE"
);
}
);
width = 792;
}
);
unicode = 0032;
},
{
glyphname = three;
lastChange = "2017-06-09 11:17:31 +0000";
layers = (
{
layerId = UUID0;
paths = (
{
closed = 1;
nodes = (
"479 410 OFFCURVE",
"529 474 OFFCURVE",
"529 535 CURVE SMOOTH",
"529 645 OFFCURVE",
"432 703 OFFCURVE",
"335 703 CURVE SMOOTH",
"148 703 OFFCURVE",
"45 559 OFFCURVE",
"42 554 CURVE SMOOTH",
"40 550 OFFCURVE",
"39 547 OFFCURVE",
"39 543 CURVE SMOOTH",
"39 534 OFFCURVE",
"46 525 OFFCURVE",
"57 525 CURVE SMOOTH",
"62 525 OFFCURVE",
"68 527 OFFCURVE",
"72 533 CURVE SMOOTH",
"72 533 OFFCURVE",
"167 666 OFFCURVE",
"336 666 CURVE SMOOTH",
"417 666 OFFCURVE",
"492 619 OFFCURVE",
"492 536 CURVE SMOOTH",
"492 488 OFFCURVE",
"443 419 OFFCURVE",
"348 382 CURVE",
"307 390 OFFCURVE",
"268 393 OFFCURVE",
"237 393 CURVE SMOOTH",
"146 393 OFFCURVE",
"143 362 OFFCURVE",
"143 353 CURVE SMOOTH",
"143 332 OFFCURVE",
"164 318 OFFCURVE",
"215 318 CURVE SMOOTH",
"260 318 OFFCURVE",
"309 329 OFFCURVE",
"350 344 CURVE",
"450 321 OFFCURVE",
"532 270 OFFCURVE",
"532 173 CURVE SMOOTH",
"532 55 OFFCURVE",
"427 -14 OFFCURVE",
"288 -14 CURVE SMOOTH",
"132 -14 OFFCURVE",
"51 72 OFFCURVE",
"51 71 CURVE SMOOTH",
"48 75 OFFCURVE",
"43 77 OFFCURVE",
"38 77 CURVE SMOOTH",
"28 77 OFFCURVE",
"20 69 OFFCURVE",
"20 59 CURVE SMOOTH",
"20 54 OFFCURVE",
"21 50 OFFCURVE",
"24 46 CURVE SMOOTH",
"26 44 OFFCURVE",
"115 -50 OFFCURVE",
"288 -50 CURVE SMOOTH",
"412 -50 OFFCURVE",
"569 11 OFFCURVE",
"569 174 CURVE SMOOTH",
"569 277 OFFCURVE",
"492 337 OFFCURVE",
"403 368 CURVE SMOOTH"
);
},
{
closed = 1;
nodes = (
"271 354 OFFCURVE",
"243 351 OFFCURVE",
"220 351 CURVE SMOOTH",
"207 351 OFFCURVE",
"196 352 OFFCURVE",
"190 354 CURVE",
"200 360 OFFCURVE",
"225 363 OFFCURVE",
"251 363 CURVE SMOOTH",
"266 363 OFFCURVE",
"280 362 OFFCURVE",
"293 360 CURVE"
);
}
);
width = 599;
}
);
unicode = 0033;
},
{
glyphname = four;
lastChange = "2017-06-09 11:17:31 +0000";
layers = (
{
layerId = UUID0;
paths = (
{
closed = 1;
nodes = (
"791 219 OFFCURVE",
"784 228 OFFCURVE",
"773 228 CURVE SMOOTH",
"772 228 OFFCURVE",
"695 232 OFFCURVE",
"578 233 CURVE",
"580 390 OFFCURVE",
"583 546 OFFCURVE",
"589 625 CURVE",
"609 648 OFFCURVE",
"638 677 OFFCURVE",
"638 701 CURVE SMOOTH",
"638 720 OFFCURVE",
"625 734 OFFCURVE",
"607 734 CURVE SMOOTH",
"597 734 OFFCURVE",
"575 729 OFFCURVE",
"561 687 CURVE SMOOTH",
"558 680 OFFCURVE",
"556 663 OFFCURVE",
"554 640 CURVE",
"312 361 OFFCURVE",
"23 209 OFFCURVE",
"20 208 CURVE SMOOTH",
"14 204 OFFCURVE",
"10 198 OFFCURVE",
"10 191 CURVE SMOOTH",
"10 180 OFFCURVE",
"19 173 OFFCURVE",
"28 173 CURVE SMOOTH",
"118 182 OFFCURVE",
"207 187 OFFCURVE",
"290 191 CURVE SMOOTH",
"382 195 OFFCURVE",
"467 196 OFFCURVE",
"541 196 CURVE",
"539 92 OFFCURVE",
"539 6 OFFCURVE",
"539 -15 CURVE SMOOTH",
"539 -24 OFFCURVE",
"547 -32 OFFCURVE",
"557 -32 CURVE SMOOTH",
"567 -32 OFFCURVE",
"576 -24 OFFCURVE",
"576 -14 CURVE SMOOTH",
"576 50 OFFCURVE",
"576 123 OFFCURVE",
"577 196 CURVE",
"694 195 OFFCURVE",
"769 191 OFFCURVE",
"772 191 CURVE SMOOTH",
"782 191 OFFCURVE",
"791 198 OFFCURVE",
"791 208 CURVE SMOOTH"
);
},
{
closed = 1;
nodes = (
"545 487 OFFCURVE",
"542 352 OFFCURVE",
"541 233 CURVE",
"421 233 OFFCURVE",
"268 229 OFFCURVE",
"109 217 CURVE",
"207 277 OFFCURVE",
"385 400 OFFCURVE",
"550 581 CURVE"
);
}
);
width = 801;
}
);
unicode = 0034;
},
